<svg width="50" height="50" viewBox="0 0 50 50" fill="none" xmlns="http://www.w3.org/2000/svg">
<circle cx="25" cy="25" r="24.5" stroke="#303030"/>
<g clip-path="url(#clip0_142_87890)">
<path d="M21.5312 37.1875C23.7625 37.1875 25.5625 35.3875 25.5625 33.1562V29.125H21.5312C19.3 29.125 17.5 30.925 17.5 33.1562C17.5 35.3875 19.3 37.1875 21.5312 37.1875Z" fill="#0ACF83"/>
<path d="M17.5 25.0938C17.5 22.8625 19.3 21.0625 21.5312 21.0625H25.5625V29.125H21.5312C19.3 29.125 17.5 27.325 17.5 25.0938Z" fill="#A259FF"/>
<path d="M17.5 17.0312C17.5 14.8 19.3 13 21.5312 13H25.5625V21.0625H21.5312C19.3 21.0625 17.5 19.2625 17.5 17.0312Z" fill="#F24E1E"/>
<path d="M25.5625 13H29.5938C31.825 13 33.625 14.8 33.625 17.0312C33.625 19.2625 31.825 21.0625 29.5938 21.0625H25.5625V13Z" fill="#FF7262"/>
<path d="M33.625 25.0938C33.625 27.325 31.825 29.125 29.5938 29.125C27.3625 29.125 25.5625 27.325 25.5625 25.0938C25.5625 22.8625 27.3625 21.0625 29.5938 21.0625C31.825 21.0625 33.625 22.8625 33.625 25.0938Z" fill="#1ABCFE"/>
</g>
<defs>
<clipPath id="clip0_142_87890">
<rect width="24" height="24" fill="white" transform="translate(13 13)"/>
</clipPath>
</defs>
</svg>
