<svg width="50" height="50" viewBox="0 0 50 50" fill="none" xmlns="http://www.w3.org/2000/svg">
<path d="M19.9404 18C19.9402 18.5305 19.7292 19.0391 19.3539 19.4139C18.9787 19.7888 18.4699 19.9993 17.9394 19.999C17.409 19.9988 16.9004 19.7878 16.5255 19.4125C16.1506 19.0373 15.9402 18.5285 15.9404 17.998C15.9407 17.4676 16.1517 16.959 16.5269 16.5841C16.9022 16.2092 17.411 15.9988 17.9414 15.999C18.4719 15.9993 18.9805 16.2103 19.3554 16.5855C19.7302 16.9608 19.9407 17.4696 19.9404 18ZM20.0004 21.48H16.0004V34H20.0004V21.48ZM26.3204 21.48H22.3404V34H26.2804V27.43C26.2804 23.77 31.0504 23.43 31.0504 27.43V34H35.0004V26.07C35.0004 19.9 27.9404 20.13 26.2804 23.16L26.3204 21.48Z" fill="white"/>
<circle cx="25" cy="25" r="24.5" stroke="#303030"/>
</svg>
