<svg width="50" height="50" viewBox="0 0 50 50" fill="none" xmlns="http://www.w3.org/2000/svg">
<circle cx="25" cy="25" r="24.5" stroke="#303030"/>
<g clip-path="url(#clip0_142_87894)">
<path d="M31.375 13H18.625C15.5184 13 13 15.5184 13 18.625V31.375C13 34.4816 15.5184 37 18.625 37H31.375C34.4816 37 37 34.4816 37 31.375V18.625C37 15.5184 34.4816 13 31.375 13Z" fill="white"/>
<path d="M31.375 13H18.625C15.5184 13 13 15.5184 13 18.625V31.375C13 34.4816 15.5184 37 18.625 37H31.375C34.4816 37 37 34.4816 37 31.375V18.625C37 15.5184 34.4816 13 31.375 13Z" fill="#0A66C2"/>
<path d="M30.317 33.408H33.0611C33.1605 33.408 33.2559 33.3685 33.3262 33.2982C33.3965 33.2279 33.4361 33.1325 33.4361 33.0331L33.4375 27.2354C33.4375 24.2051 32.7845 21.8759 29.2433 21.8759C27.8972 21.8258 26.6277 22.5198 25.9427 23.6785C25.9393 23.6841 25.9342 23.6885 25.9281 23.691C25.9221 23.6934 25.9154 23.6938 25.909 23.6921C25.9027 23.6904 25.8971 23.6867 25.8931 23.6815C25.8891 23.6763 25.8869 23.67 25.8869 23.6634V22.5306C25.8869 22.4312 25.8474 22.3358 25.777 22.2655C25.7067 22.1951 25.6113 22.1556 25.5119 22.1556H22.9078C22.8083 22.1556 22.7129 22.1951 22.6426 22.2655C22.5723 22.3358 22.5328 22.4312 22.5328 22.5306V33.0325C22.5328 33.132 22.5723 33.2273 22.6426 33.2977C22.7129 33.368 22.8083 33.4075 22.9078 33.4075H25.6517C25.7511 33.4075 25.8465 33.368 25.9168 33.2977C25.9871 33.2273 26.0267 33.132 26.0267 33.0325V27.8413C26.0267 26.3734 26.3051 24.9519 28.1249 24.9519C29.9188 24.9519 29.942 26.6315 29.942 27.9363V33.033C29.942 33.1324 29.9815 33.2278 30.0519 33.2981C30.1222 33.3685 30.2176 33.408 30.317 33.408ZM16.5625 18.59C16.5625 19.7024 17.4782 20.6176 18.5905 20.6176C19.7026 20.6175 20.6177 19.7017 20.6177 18.5897C20.6175 17.4776 19.7023 16.5625 18.5901 16.5625C17.4777 16.5625 16.5625 17.4778 16.5625 18.59ZM17.2149 33.408H19.9624C20.0619 33.408 20.1573 33.3685 20.2276 33.2981C20.2979 33.2278 20.3374 33.1324 20.3374 33.033V22.5306C20.3374 22.4312 20.2979 22.3358 20.2276 22.2655C20.1573 22.1951 20.0619 22.1556 19.9624 22.1556H17.2149C17.1155 22.1556 17.0201 22.1951 16.9497 22.2655C16.8794 22.3358 16.8399 22.4312 16.8399 22.5306V33.033C16.8399 33.1324 16.8794 33.2278 16.9497 33.2981C17.0201 33.3685 17.1155 33.408 17.2149 33.408Z" fill="white"/>
</g>
<path d="M13.288 35V16.54H16.304V35H13.288ZM36.5058 35.208L23.8958 23.144V35H20.8798V16.332L33.4898 28.396V16.54H36.5058V35.208Z" fill="white" fill-opacity="0.01"/>
<path d="M11 43.06H38.7938V45.348H11V43.06Z" fill="white" fill-opacity="0.01"/>
<a href="https://www.linkedin.com/in/denish-rich-33b739181?lipi=urn%3Ali%3Apage%3Ad_flagship3_profile_view_base_contact_details%3BE7fhrvNhSAKSVxCcJHJMVA%3D%3D">
<rect fill="black" fill-opacity="0" y="0.0160007" width="27.7938" height="32.968"/>
</a>
<defs>
<clipPath id="clip0_142_87894">
<rect width="24" height="24" fill="white" transform="translate(13 13)"/>
</clipPath>
</defs>
</svg>
