<svg xmlns="http://www.w3.org/2000/svg" width="237" height="211" viewBox="0 0 237 211" fill="none">
  <path d="M157.828 112.653L157.811 118.857L79.4209 164.424L79.4382 158.22L157.828 112.653Z" fill="#EFD0C0"/>
  <path d="M79.4384 158.22L79.4211 164.424L0.499023 118.858L0.517059 112.654L79.4384 158.22Z" fill="#FAEACF"/>
  <path d="M153.816 114.997L79.4388 158.22L4.5752 114.998L78.9526 71.7737L153.816 114.997Z" fill="#FFE2B7"/>
  <path d="M153.787 47.9099L153.77 114.997L78.9409 71.7738L78.9229 4.68677L153.787 47.9099Z" fill="#2B9FB3"/>
  <path d="M78.9229 0V4.68668L153.787 47.9098L157.846 45.5661L78.9229 0Z" fill="#32BAD1"/>
  <path d="M153.787 47.9099L153.771 114.997L157.828 112.653L157.846 45.5662L153.787 47.9099Z" fill="#268B9C"/>
  <path d="M4.05957 47.9099L4.5758 114.998L78.9412 71.7738L78.9232 4.68677L4.05957 47.9099Z" fill="#268B9C"/>
  <path d="M78.9229 0V4.68668L4.05923 47.9098L0 45.5661L78.9229 0Z" fill="#32BAD1"/>
  <path d="M4.05923 47.9099L4.57472 114.998L0.516985 112.654L0 45.5662L4.05923 47.9099Z" fill="#2B9FB3"/>
  <path d="M98.9047 31.4925V70.5691L94.5449 73.1022V29.0405L98.9047 31.4925Z" fill="#2B9FB3"/>
  <path d="M98.9043 26.5076V70.5693L136.024 92.0001V47.9391L98.9043 26.5076ZM101.815 31.5497L133.113 49.6193V86.9587L101.815 68.8883V31.5497Z" fill="#73485C"/>
  <path d="M102.786 32.1096V68.3286L101.815 68.8884V31.5498L102.786 32.1096Z" fill="#906471"/>
  <path d="M102.786 68.3286L133.113 85.8385V86.9589L101.815 68.8884L102.786 68.3286Z" fill="#C28798"/>
  <path d="M102.785 32.1096L133.113 49.6195V85.8385L102.785 68.3286V32.1096Z" fill="white"/>
  <path d="M118.006 40.8977V77.1167L117.036 77.6765V40.3379L118.006 40.8977Z" fill="#906471"/>
  <path d="M117.036 41.4581V78.2294L115.007 77.058V39.1655L117.036 41.4581Z" fill="#73485C"/>
  <path d="M98.9045 70.5693L131.665 89.4836V94.534L131.064 94.933L93.7617 73.397L98.9045 70.5693Z" fill="#FFFCF3"/>
  <path d="M131.064 94.933V97.0085L93.7617 75.4717V73.397L131.064 94.933Z" fill="#CEB0A2"/>
  <path d="M131.665 94.5339V96.6086L131.064 97.0084V94.933L131.665 94.5339Z" fill="#E9E0D3"/>
  <path d="M131.665 94.534V44.282L137.995 47.7972V94.1477L131.665 94.534Z" fill="#2B9FB3"/>
  <path d="M94.5449 29.0405L135.965 52.5175V46.6699L94.5449 23.1914V29.0405Z" fill="#2B9FB3"/>
  <path d="M20.7383 121.772L90.7409 81.5461L135.515 107.396L65.5123 147.622L20.7383 121.772Z" fill="#C9A395"/>
  <path d="M65.5138 146.047L23.4727 121.775L90.7393 83.1211L132.78 107.394L65.5138 146.047ZM24.566 121.775L65.5138 145.417L131.686 107.392L90.7386 83.7508L24.566 121.775Z" fill="white"/>
  <path opacity="0.25" d="M115.524 108.785L63.1323 139.033L10.7402 108.785L63.1323 78.5359L115.524 108.785Z" fill="#281B29"/>
  <path d="M86.0924 64.7842L86.0459 81.3277L74.6016 87.9786L74.6481 71.4351L86.0924 64.7842Z" fill="#281B29"/>
  <path d="M74.6482 71.435L74.6016 87.9786L63.0859 81.3291L63.1325 64.7864L74.6482 71.435Z" fill="#4C3342"/>
  <path d="M63.1328 64.7864L74.5771 58.1355L86.0928 64.7842L74.6485 71.4351L63.1328 64.7864Z" fill="#705C68"/>
  <path d="M75.6627 77.1008L86.0903 71.0405L86.0468 81.3284L75.6191 87.3887L75.6627 77.1008Z" fill="#4C3342"/>
  <path d="M75.1559 76.8079L75.1123 87.0957L75.621 87.3888L75.6631 77.1009L75.1559 76.8079Z" fill="#392632"/>
  <path d="M85.5839 70.7476L75.1562 76.8078L75.6635 77.1009L86.0911 71.0406L85.5839 70.7476Z" fill="#705C68"/>
  <path d="M77.3485 80.8565C77.2832 80.819 77.193 80.8242 77.0938 80.8813C76.8954 80.9955 76.7346 81.2721 76.7354 81.5005C76.7354 81.6132 76.7752 81.6921 76.8398 81.7297L77.196 81.9363C77.1321 81.8995 77.0923 81.8199 77.0915 81.7071C77.0908 81.4795 77.2516 81.2029 77.45 81.088C77.5492 81.0309 77.6393 81.0256 77.7047 81.0632L77.3485 80.8565Z" fill="#281B29"/>
  <path d="M77.4502 81.0878C77.6471 80.9743 77.8087 81.0645 77.8094 81.2922C77.8102 81.5198 77.6494 81.7964 77.4525 81.9098C77.2541 82.0241 77.0926 81.9339 77.0918 81.7062C77.091 81.4785 77.2519 81.202 77.4502 81.0878Z" fill="#281B29"/>
  <path d="M77.8799 80.8701C77.7784 80.8107 77.6372 80.8197 77.4831 80.9084C77.1743 81.0872 76.9233 81.5178 76.9248 81.8732C76.9256 82.049 76.9872 82.1723 77.0871 82.2301L77.3186 82.3699C77.2186 82.3121 77.157 82.1888 77.1563 82.013C77.1555 81.6575 77.4057 81.227 77.7146 81.0481C77.8694 80.9587 78.0099 80.9505 78.1113 81.0098L77.8799 80.8701Z" fill="url(#paint0_linear_99_9828)"/>
  <path d="M77.7136 81.0489C78.0202 80.8715 78.2719 81.0128 78.2734 81.3675C78.2742 81.7229 78.0239 82.1535 77.7174 82.3308C77.4085 82.5097 77.156 82.3684 77.1553 82.013C77.1538 81.6583 77.4048 81.227 77.7136 81.0489Z" fill="#281B29"/>
  <path d="M75.6627 72.0203L86.0903 65.96L86.0468 70.8939L75.6191 76.9542L75.6627 72.0203Z" fill="#4C3342"/>
  <path d="M75.1559 71.7271L75.1123 76.6609L75.621 76.954L75.6631 72.0201L75.1559 71.7271Z" fill="#392632"/>
  <path d="M85.5839 65.667L75.1562 71.7273L75.6635 72.0203L86.0911 65.9601L85.5839 65.667Z" fill="#705C68"/>
  <path d="M81.5634 70.8983C81.498 70.8607 81.4078 70.866 81.3086 70.9231C81.1102 71.0373 80.9494 71.3138 80.9502 71.5415C80.9509 71.6542 80.99 71.7331 81.0546 71.7707L81.4108 71.9773C81.3469 71.9398 81.3071 71.8609 81.3064 71.7481C81.3056 71.5205 81.4664 71.2439 81.6648 71.129C81.764 71.0719 81.8542 71.0666 81.9195 71.1042L81.5634 70.8983Z" fill="#281B29"/>
  <path d="M81.6651 71.1295C81.8619 71.0161 82.0235 71.1062 82.0243 71.3339C82.025 71.5616 81.8642 71.8381 81.6673 71.9516C81.4689 72.0658 81.3074 71.9756 81.3066 71.748C81.3059 71.521 81.4667 71.2445 81.6651 71.1295Z" fill="#281B29"/>
  <path d="M82.0937 70.9118C81.9923 70.8524 81.851 70.8615 81.697 70.9501C81.3882 71.1282 81.1372 71.5595 81.1387 71.915C81.1394 72.0908 81.201 72.214 81.301 72.2719L81.5324 72.4117C81.4325 72.3538 81.3709 72.2306 81.3701 72.0547C81.3694 71.6993 81.6196 71.2687 81.9284 71.0899C82.0832 71.0005 82.2238 70.9922 82.3252 71.0516L82.0937 70.9118Z" fill="url(#paint1_linear_99_9828)"/>
  <path d="M81.9284 71.0906C82.235 70.9133 82.4875 71.0546 82.4883 71.4092C82.489 71.7647 82.2388 72.1952 81.9322 72.3726C81.6234 72.5507 81.3709 72.4101 81.3701 72.0547C81.3686 71.7 81.6189 71.2687 81.9284 71.0906Z" fill="#281B29"/>
  <path d="M60.6407 52.2171C60.3581 51.6438 59.9396 51.1891 59.5173 50.9457C59.2024 50.7638 58.8853 50.6992 58.6201 50.7901C58.5757 50.8052 58.5337 50.8247 58.4946 50.8472L19.1602 73.7058C19.1992 73.6833 19.2413 73.6637 19.2856 73.6487C19.5509 73.5578 19.868 73.6224 20.1829 73.8042C20.6052 74.0485 21.0237 74.5031 21.3062 75.0764C22.9744 78.4556 23.7822 81.8333 23.7724 85.3958L23.7153 105.376L63.0498 82.5178L63.1061 62.5373C63.1166 58.974 62.3089 55.5955 60.6407 52.2171Z" fill="url(#paint2_linear_99_9828)"/>
  <path d="M20.1833 73.8041C20.6056 74.0483 21.0242 74.5029 21.3067 75.0755C22.9749 78.4547 23.7827 81.8324 23.7729 85.3949L23.7166 105.375L20.8371 103.713L20.8934 83.732C20.9017 80.9104 20.3178 78.4036 19.0532 75.8427C18.5565 74.8403 18.6632 73.8612 19.2869 73.6471C19.5514 73.5576 19.8685 73.6223 20.1833 73.8041Z" fill="#4C3342"/>
  <path d="M67.8191 124.169L67.8003 130.828L23.7168 105.376L23.7356 98.7173L67.8191 124.169Z" fill="#4C3342"/>
  <path d="M67.8186 124.169L107.154 101.31L107.134 107.969L67.7998 130.828L67.8186 124.169Z" fill="#281B29"/>
  <path d="M23.7354 98.7172L63.0698 75.8586L107.154 101.31L67.8188 124.169L23.7354 98.7172Z" fill="#705C68"/>
  <path d="M66.8968 118.897L105.217 96.6245L105.205 100.745L66.8848 123.018L66.8968 118.897Z" fill="#CBCDD9"/>
  <path d="M24.2549 94.2776L62.5741 72.0044L105.217 96.6243L66.8971 118.897L24.2549 94.2776Z" fill="#F6F7F9"/>
  <path d="M66.8964 118.897L66.8844 123.018L24.2422 98.3979L24.2542 94.2778L66.8964 118.897Z" fill="#E0E1E8"/>
  <path d="M66.8968 118.031L105.217 95.7583L105.205 100.745L66.8848 123.018L66.8968 118.031Z" fill="#513836"/>
  <path d="M66.8969 118.031L105.217 95.7583L75.4355 78.5693L37.1162 100.842L66.8969 118.031Z" fill="#6E5958"/>
  <path d="M66.8973 118.031L66.8852 123.018L37.1045 105.829L37.1165 100.842L66.8973 118.031Z" fill="#604947"/>
  <path d="M33.3052 98.3289L33.2939 104.214L39.7705 107.985L39.7826 102.1L33.3052 98.3289Z" fill="#7E605D"/>
  <path d="M40.3198 102.295L40.3078 107.673L39.7705 107.985L39.7825 102.607L40.3198 102.295Z" fill="#855C58"/>
  <path d="M78.7304 79.4612L39.7822 102.1V103.004L78.6403 80.4185L78.7304 80.4711V79.4612Z" fill="#855C58"/>
  <path d="M72.2546 75.6904L33.3057 98.3288L39.783 102.099L78.7312 79.4611L72.2546 75.6904Z" fill="#8C7170"/>
  <path d="M47.8481 89.0901C47.7091 89.2569 47.5521 89.4463 47.2402 89.6401C47.3244 89.5883 47.4003 89.5192 47.4664 89.4335C47.619 89.3388 47.746 89.2231 47.8481 89.0901Z" fill="#CBCDD9"/>
  <path d="M39.3809 78.4467C39.6484 78.2949 40.1458 78.0116 40.9566 78.1469C41.1437 78.1777 41.7915 78.3257 42.2791 78.9284C42.2115 78.845 41.944 78.9306 41.5112 79.1989C41.4345 79.1005 41.276 79.0606 41.1956 79.1155C40.617 78.4009 39.867 78.1454 39.3809 78.4467Z" fill="url(#paint3_linear_99_9828)"/>
  <path d="M48.0516 88.8264L47.8488 89.0902C47.7466 89.2224 47.6196 89.3389 47.4678 89.4328L47.6707 89.1691C47.8225 89.0751 47.9502 88.9587 48.0516 88.8264Z" fill="#CBCDD9"/>
  <path d="M42.2787 78.9284C43.8612 80.8828 48.0377 85.9031 48.0377 86.0407C47.9701 85.9572 47.7025 86.0429 47.2697 86.3112L41.5107 79.1996C41.9428 78.9306 42.2111 78.8449 42.2787 78.9284Z" fill="url(#paint4_linear_99_9828)"/>
  <path d="M48.0374 86.04C48.1659 86.2106 48.2771 86.3571 48.4034 86.6982C48.4718 86.8839 48.5244 87.1686 48.5251 87.361C48.5266 87.5902 48.5289 88.2004 48.0509 88.8271C47.9495 88.9593 47.8218 89.0758 47.67 89.1697C48.1186 88.5866 47.9315 87.4339 47.2529 86.5961C47.3393 86.5472 47.3484 86.4014 47.2702 86.3113C47.7015 86.043 47.9698 85.9573 48.0374 86.04Z" fill="url(#paint5_linear_99_9828)"/>
  <path d="M28.5809 88.2559C28.4517 88.0846 28.3397 87.9373 28.2135 87.5961C28.1444 87.4105 28.0918 87.125 28.091 86.9326C28.0895 86.7034 28.0865 86.0933 28.5659 85.4658C28.1008 86.0707 28.1639 87.013 28.7861 87.7817C28.593 88.0335 28.5298 88.1928 28.5809 88.2559Z" fill="#CBCDD9"/>
  <path d="M28.5653 85.4666L28.7682 85.2029C28.3031 85.8078 28.3662 86.7501 28.9884 87.5188L28.7855 87.7826C28.1633 87.0138 28.1002 86.0715 28.5653 85.4666Z" fill="#CBCDD9"/>
  <path d="M47.2404 89.64L37.2373 95.8446C37.3215 95.7927 37.3974 95.7236 37.4635 95.6379L47.4665 89.4333C47.4012 89.519 47.3245 89.5882 47.2404 89.64Z" fill="#CBCDD9"/>
  <path d="M29.3779 84.6514L39.381 78.4468C39.8672 78.1455 40.6171 78.401 41.1957 79.1156L31.1926 85.3202C30.614 84.6055 29.8641 84.3493 29.3779 84.6514Z" fill="url(#paint6_linear_99_9828)"/>
  <path d="M47.6698 89.1697L47.4669 89.4334L37.4639 95.6372L37.6668 95.3735L47.6698 89.1697Z" fill="#CBCDD9"/>
  <path d="M34.3394 95.3682L28.5804 88.2559C28.5294 88.1927 28.5925 88.0327 28.7856 87.7825L34.5446 94.894C34.3514 95.145 34.2883 95.305 34.3394 95.3682Z" fill="#CBCDD9"/>
  <path d="M28.7685 85.203C28.9075 85.0361 29.0653 84.8468 29.3779 84.6514C29.864 84.3501 30.614 84.6056 31.1926 85.3202C31.1032 85.372 31.0941 85.5156 31.1745 85.6102C30.4156 86.0806 29.4365 86.9358 28.9886 87.5181C28.3664 86.7494 28.3033 85.8071 28.7685 85.203Z" fill="url(#paint7_linear_99_9828)"/>
  <path d="M37.2385 95.8446C36.971 95.9964 36.472 96.2797 35.6605 96.1467C35.4734 96.1159 34.8264 95.9693 34.3402 95.3682C34.2891 95.305 34.3522 95.145 34.5454 94.8948C35.302 95.8288 36.6156 96.1647 37.4647 95.6387C37.3985 95.7236 37.3226 95.792 37.2385 95.8446Z" fill="#CBCDD9"/>
  <path d="M34.748 94.6304L34.5451 94.8941L28.7861 87.7826L28.989 87.5181L34.748 94.6304Z" fill="#CBCDD9"/>
  <path d="M37.6671 95.3735L37.4642 95.6373C36.6151 96.1641 35.3016 95.8282 34.5449 94.8934L34.7478 94.6296C35.5045 95.5644 36.818 95.9003 37.6671 95.3735Z" fill="#CBCDD9"/>
  <path d="M47.2699 86.3106C47.3473 86.4015 47.339 86.5465 47.2526 86.5954C43.9185 88.6633 40.5844 90.7312 37.2495 92.7999C37.1639 92.857 37.0046 92.815 36.9332 92.7218C35.0133 90.351 33.0941 87.9803 31.1742 85.6102C31.0938 85.5156 31.1028 85.372 31.1922 85.3202C34.5263 83.2522 37.8604 81.1843 41.1953 79.1156C41.2757 79.0608 41.435 79.1006 41.5109 79.199C43.4308 81.5698 45.3507 83.9406 47.2699 86.3106Z" fill="#F6F7F9"/>
  <path d="M47.2521 86.5959C47.9306 87.4338 48.1177 88.5865 47.6691 89.1696L37.6661 95.3742C38.1147 94.7911 37.9276 93.6384 37.249 92.8005L47.2521 86.5959Z" fill="url(#paint8_linear_99_9828)"/>
  <path d="M36.9341 92.7217C36.1752 93.1921 35.1961 94.0472 34.7482 94.6295L28.9893 87.518C29.4379 86.9349 30.4162 86.0805 31.1752 85.6101L36.9341 92.7217Z" fill="url(#paint9_linear_99_9828)"/>
  <path d="M37.2503 92.7998C37.9289 93.6377 38.116 94.7904 37.6674 95.3735C36.8182 95.9002 35.5047 95.5643 34.748 94.6296C35.1967 94.0465 36.175 93.1921 36.934 92.7217C37.0054 92.8156 37.1639 92.8569 37.2503 92.7998Z" fill="url(#paint10_linear_99_9828)"/>
  <path d="M65.0981 78.6165C64.9591 78.7833 64.8021 78.9726 64.4902 79.1665C64.5744 79.1147 64.6503 79.0455 64.7164 78.9599C64.8697 78.8652 64.9967 78.7495 65.0981 78.6165Z" fill="#CBCDD9"/>
  <path d="M56.6309 67.9731C56.8984 67.8213 57.3958 67.538 58.2066 67.6733C58.3937 67.7041 59.0415 67.8529 59.5291 68.4548C59.4615 68.3714 59.194 68.457 58.7612 68.7253C58.6845 68.6268 58.526 68.587 58.4456 68.6419C57.867 67.9273 57.117 67.6718 56.6309 67.9731Z" fill="url(#paint11_linear_99_9828)"/>
  <path d="M65.3016 78.3528L65.0988 78.6165C64.9973 78.7488 64.8696 78.8653 64.7178 78.9599L64.9207 78.6962C65.0725 78.6015 65.1994 78.4858 65.3016 78.3528Z" fill="#CBCDD9"/>
  <path d="M59.5289 68.4547C61.1114 70.4092 65.2879 75.4295 65.2879 75.567C65.2203 75.4836 64.9528 75.5693 64.5207 75.8375L58.7617 68.726C59.1938 68.457 59.4613 68.3713 59.5289 68.4547Z" fill="url(#paint12_linear_99_9828)"/>
  <path d="M65.2874 75.567C65.4159 75.7376 65.5271 75.8841 65.6534 76.2253C65.7217 76.4109 65.7743 76.6957 65.7751 76.888C65.7766 77.1172 65.7789 77.7274 65.3009 78.3541C65.1988 78.4863 65.0718 78.6028 64.92 78.6975C65.3686 78.1144 65.1815 76.9617 64.5029 76.1238C64.5893 76.075 64.5984 75.9292 64.5202 75.839C64.9523 75.5693 65.2198 75.4836 65.2874 75.567Z" fill="url(#paint13_linear_99_9828)"/>
  <path d="M45.8309 77.7823C45.7017 77.6117 45.5897 77.4636 45.4635 77.1225C45.3951 76.9369 45.3418 76.6513 45.341 76.459C45.3395 76.229 45.3365 75.6196 45.8159 74.9922C45.3508 75.5971 45.4139 76.5394 46.0361 77.3081C45.843 77.5598 45.7798 77.7191 45.8309 77.7823Z" fill="#CBCDD9"/>
  <path d="M45.8163 74.993L46.0192 74.7292C45.5541 75.3342 45.6172 76.2764 46.2394 77.0452L46.0365 77.3089C45.4143 76.5402 45.3512 75.5979 45.8163 74.993Z" fill="#CBCDD9"/>
  <path d="M64.4913 79.1664L54.4883 85.3709C54.5724 85.3191 54.6483 85.2499 54.7145 85.1643L64.7175 78.9597C64.6514 79.0454 64.5755 79.1145 64.4913 79.1664Z" fill="#CBCDD9"/>
  <path d="M46.6279 74.1778L56.631 67.9732C57.1172 67.6719 57.8671 67.9273 58.4457 68.642L48.4426 74.8465C47.864 74.1319 47.1141 73.8757 46.6279 74.1778Z" fill="url(#paint14_linear_99_9828)"/>
  <path d="M64.9208 78.696L64.7179 78.9598L54.7148 85.1644L54.9185 84.8999L64.9208 78.696Z" fill="#CBCDD9"/>
  <path d="M51.5904 84.8945L45.8314 77.783C45.7803 77.7199 45.8434 77.5598 46.0366 77.3088L51.7955 84.4204C51.6032 84.6714 51.5393 84.8314 51.5904 84.8945Z" fill="#CBCDD9"/>
  <path d="M46.0185 74.7293C46.1575 74.5625 46.3153 74.3731 46.6279 74.1778C47.114 73.8764 47.864 74.1319 48.4426 74.8466C48.3532 74.8984 48.3441 75.0419 48.4245 75.1366C47.6656 75.607 46.6865 76.4621 46.2386 77.0445C45.6164 76.2758 45.5533 75.3342 46.0185 74.7293Z" fill="url(#paint15_linear_99_9828)"/>
  <path d="M54.4895 85.371C54.222 85.5228 53.723 85.8061 52.9115 85.6731C52.7244 85.6422 52.0774 85.4957 51.5912 84.8946C51.5401 84.8315 51.6032 84.6714 51.7963 84.4204C52.553 85.3544 53.8665 85.6903 54.7156 85.1643C54.6495 85.25 54.5729 85.3184 54.4895 85.371Z" fill="#CBCDD9"/>
  <path d="M51.998 84.1567L51.7951 84.4205L46.0361 77.3089L46.239 77.0444L51.998 84.1567Z" fill="#CBCDD9"/>
  <path d="M54.9181 84.8999L54.7152 85.1637C53.8661 85.6904 52.5526 85.3545 51.7959 84.4198L51.9988 84.156C52.7547 85.0908 54.069 85.4267 54.9181 84.8999Z" fill="#CBCDD9"/>
  <path d="M64.5208 75.8377C64.5982 75.9286 64.59 76.0736 64.5036 76.1225C61.1695 78.1904 57.8354 80.2583 54.5005 82.327C54.4148 82.3841 54.2555 82.3428 54.1842 82.2489C52.2643 79.8781 50.3451 77.5073 48.4252 75.1373C48.3448 75.0427 48.3538 74.8991 48.4432 74.8473C51.7773 72.7793 55.1114 70.7114 58.4463 68.6427C58.5267 68.5879 58.686 68.6277 58.7619 68.7261C60.6818 71.0961 62.6009 73.4669 64.5208 75.8377Z" fill="#F6F7F9"/>
  <path d="M64.5031 76.1226C65.1816 76.9604 65.3687 78.1131 64.9201 78.6962L54.917 84.9008C55.3656 84.3177 55.1785 83.165 54.5 82.3271L64.5031 76.1226Z" fill="url(#paint16_linear_99_9828)"/>
  <path d="M54.1851 82.248C53.4262 82.7184 52.4471 83.5736 51.9992 84.1559L46.2402 77.0444C46.6888 76.4612 47.6672 75.6069 48.4261 75.1365L54.1851 82.248Z" fill="url(#paint17_linear_99_9828)"/>
  <path d="M54.5005 82.3262C55.1791 83.164 55.3662 84.3167 54.9183 84.8998C54.0692 85.4266 52.7557 85.0907 51.999 84.1559C52.4476 83.5728 53.426 82.7184 54.1849 82.248C54.2556 82.342 54.4149 82.3833 54.5005 82.3262Z" fill="url(#paint18_linear_99_9828)"/>
  <path d="M31.8444 96.0029L31.7978 112.546L20.3535 119.197L20.4001 102.653L31.8444 96.0029Z" fill="#281B29"/>
  <path d="M20.4002 102.653L20.3536 119.197L8.83789 112.548L8.88448 96.0044L20.4002 102.653Z" fill="#4C3342"/>
  <path d="M8.88477 96.0044L20.3291 89.3542L31.8448 96.0029L20.4005 102.653L8.88477 96.0044Z" fill="#705C68"/>
  <path d="M21.4137 108.319L31.8413 102.259L31.7977 112.546L21.3701 118.607L21.4137 108.319Z" fill="#4C3342"/>
  <path d="M20.9069 108.026L20.8633 118.314L21.372 118.607L21.4141 108.319L20.9069 108.026Z" fill="#392632"/>
  <path d="M31.3348 101.966L20.9072 108.026L21.4144 108.319L31.8421 102.259L31.3348 101.966Z" fill="#705C68"/>
  <path d="M30.7099 107.681C30.6445 107.643 30.5543 107.649 30.4551 107.706C30.2567 107.82 30.0959 108.097 30.0967 108.325C30.0967 108.438 30.1365 108.517 30.2011 108.554L30.5573 108.761C30.4934 108.724 30.4536 108.644 30.4529 108.532C30.4521 108.304 30.6129 108.027 30.8113 107.913C30.9105 107.856 31.0007 107.851 31.066 107.888L30.7099 107.681Z" fill="#281B29"/>
  <path d="M30.8116 107.912C31.0084 107.799 31.17 107.889 31.1707 108.117C31.1715 108.344 31.0107 108.621 30.8138 108.734C30.6154 108.849 30.4539 108.758 30.4531 108.531C30.4524 108.304 30.6132 108.027 30.8116 107.912Z" fill="#281B29"/>
  <path d="M31.2412 107.695C31.1398 107.635 30.9985 107.644 30.8445 107.733C30.5356 107.911 30.2846 108.342 30.2861 108.698C30.2869 108.874 30.3485 108.997 30.4485 109.055L30.6799 109.194C30.58 109.137 30.5183 109.013 30.5176 108.837C30.5168 108.482 30.7671 108.051 31.0759 107.873C31.2307 107.783 31.3712 107.775 31.4727 107.834L31.2412 107.695Z" fill="url(#paint19_linear_99_9828)"/>
  <path d="M31.0749 107.873C31.3815 107.696 31.6332 107.837 31.6347 108.192C31.6355 108.547 31.3853 108.978 31.0787 109.155C30.7698 109.333 30.5174 109.193 30.5166 108.837C30.5151 108.483 30.7661 108.051 31.0749 107.873Z" fill="#281B29"/>
  <path d="M21.4137 103.239L31.8413 97.179L31.7977 102.113L21.3701 108.172L21.4137 103.239Z" fill="#4C3342"/>
  <path d="M20.9069 102.946L20.8633 107.88L21.372 108.172L21.4141 103.238L20.9069 102.946Z" fill="#392632"/>
  <path d="M31.3348 96.8857L20.9072 102.946L21.4144 103.238L31.8421 97.1788L31.3348 96.8857Z" fill="#705C68"/>
  <path d="M27.3143 102.117C27.249 102.079 27.1588 102.085 27.0596 102.142C26.8612 102.256 26.7004 102.533 26.7012 102.761C26.7012 102.874 26.741 102.953 26.8056 102.99L27.1618 103.197C27.0979 103.159 27.0581 103.08 27.0574 102.968C27.0566 102.74 27.2174 102.464 27.4158 102.349C27.515 102.292 27.6051 102.287 27.6705 102.324L27.3143 102.117Z" fill="#281B29"/>
  <path d="M27.4161 102.349C27.6129 102.235 27.7745 102.325 27.7752 102.553C27.776 102.781 27.6152 103.057 27.4183 103.171C27.2199 103.285 27.0584 103.195 27.0576 102.967C27.0569 102.739 27.2177 102.463 27.4161 102.349Z" fill="#281B29"/>
  <path d="M27.8457 102.131C27.7443 102.071 27.603 102.08 27.4489 102.169C27.1401 102.348 26.8891 102.778 26.8906 103.134C26.8914 103.31 26.953 103.433 27.0529 103.491L27.2844 103.63C27.1844 103.573 27.1228 103.449 27.1221 103.273C27.1213 102.918 27.3715 102.487 27.6804 102.309C27.8352 102.219 27.9757 102.211 28.0771 102.27L27.8457 102.131Z" fill="url(#paint20_linear_99_9828)"/>
  <path d="M27.6794 102.309C27.986 102.131 28.2377 102.273 28.2392 102.627C28.24 102.983 27.9898 103.413 27.6832 103.591C27.3743 103.769 27.1219 103.628 27.1211 103.273C27.1196 102.919 27.3706 102.487 27.6794 102.309Z" fill="#281B29"/>
  <path d="M130.177 126.319L115.76 117.941L115.77 120.003L130.187 128.381L130.177 126.319Z" fill="#4C3342"/>
  <path d="M115.777 116.478L123.449 120.936L130.194 124.855L101.514 141.414L87.0967 133.036L115.777 116.478Z" fill="#705C68"/>
  <path d="M131.481 124.841L117.064 116.462L117.043 116.474L131.46 124.853L131.481 124.841Z" fill="#F0CEB3"/>
  <path d="M131.46 124.853L117.043 116.474L115.758 117.216L130.175 125.594L131.46 124.853Z" fill="#705C68"/>
  <path d="M130.175 125.594L115.758 117.216L115.76 117.941L130.177 126.319L130.175 125.594Z" fill="#705C68"/>
  <path d="M130.175 125.594L130.177 126.319L130.187 128.381L131.493 127.627L131.481 124.841L131.46 124.853L130.175 125.594Z" fill="#281B29"/>
  <path d="M130.169 116.078L115.752 107.7L115.777 116.478L130.194 124.856L130.169 116.078Z" fill="#4C3342"/>
  <path d="M131.246 114.217L116.829 105.838C116.714 105.771 116.555 105.781 116.38 105.882L130.797 114.26C130.972 114.16 131.131 114.15 131.246 114.217Z" fill="#F3D8C2"/>
  <path d="M131.246 114.217L116.829 105.838C116.714 105.771 116.555 105.781 116.38 105.882L130.797 114.26C130.972 114.16 131.131 114.15 131.246 114.217Z" fill="#705C68"/>
  <path d="M113.184 131.199L98.7673 122.821L98.043 123.232L112.459 131.61L113.184 131.199Z" fill="#F0CEB3"/>
  <path d="M112.459 131.61L98.043 123.232L98.0527 126.696L112.469 135.074L112.459 131.61Z" fill="#4C3342"/>
  <path d="M112.459 131.61L112.469 135.073L113.194 134.655L113.184 131.199L112.459 131.61Z" fill="#281B29"/>
  <path d="M122.142 124.574L107.725 116.195L87.7148 127.749L102.132 136.127L122.142 124.574Z" fill="#705C68"/>
  <path d="M119.405 122.286L104.988 113.908L105 117.768L119.417 126.146L119.405 122.286Z" fill="#4C3342"/>
  <path d="M101.485 131.184C101.136 131.386 100.854 131.875 100.854 132.275L100.87 137.582C100.87 137.984 101.155 138.145 101.504 137.943L112.46 131.618L113.185 131.192L122.146 126.025L122.143 124.574L102.132 136.127L102.121 132.272L119.406 122.292L120.131 121.867L130.169 116.078L130.193 124.856L101.513 141.414C101.165 141.616 100.882 142.103 100.883 142.505L100.891 145.422L102.155 144.693L102.149 142.5L130.176 126.319L130.174 125.594L131.459 124.852L131.429 114.622C131.429 114.221 131.144 114.059 130.795 114.261L101.485 131.184Z" fill="#281B29"/>
  <path d="M118.875 121.143L105.713 113.495L104.988 113.908L118.154 121.559L118.875 121.143ZM120.131 121.874L120.126 121.871L119.768 122.08L120.131 121.874Z" fill="#F0CEB3"/>
  <path d="M119.406 122.286L119.418 126.146L120.142 125.727L120.131 121.874L119.406 122.286Z" fill="#281B29"/>
  <path d="M100.884 142.505L86.4668 134.127L86.4751 137.045L100.892 145.423L100.884 142.505Z" fill="#4C3342"/>
  <path d="M101.513 141.414L87.0963 133.036C86.7476 133.237 86.4651 133.725 86.4658 134.127L100.883 142.505C100.882 142.103 101.165 141.615 101.513 141.414Z" fill="#4C3342"/>
  <path d="M86.6362 129.609L101.053 137.988C100.94 137.921 100.87 137.782 100.869 137.582L86.4521 129.203C86.4529 129.403 86.5235 129.543 86.6362 129.609Z" fill="#4C3342"/>
  <path d="M100.854 132.275L86.4375 123.897L86.4525 129.203L100.869 137.582L100.854 132.275Z" fill="#4C3342"/>
  <path d="M130.797 114.261L116.38 105.883L87.0684 122.806L101.485 131.184L130.797 114.261Z" fill="#705C68"/>
  <path d="M87.068 122.806L101.485 131.184C101.136 131.386 100.854 131.875 100.854 132.275L86.4375 123.897C86.4368 123.496 86.7193 123.007 87.068 122.806Z" fill="#4C3342"/>
  <path d="M106.266 125.081L104.836 124.25L104.831 122.854L106.262 123.686L106.266 125.081Z" fill="#291B23"/>
  <path d="M106.262 123.686L104.831 122.854L116.347 116.206L117.777 117.037L106.262 123.686Z" fill="#876F7E"/>
  <path d="M117.777 117.037L117.781 118.432L106.265 125.081L106.262 123.686L117.777 117.037Z" fill="#281B29"/>
  <path d="M97.3938 127.77L95.9631 126.939L95.9082 107.546L97.3389 108.377L97.3938 127.77Z" fill="#634356"/>
  <path d="M97.3389 108.377L95.9082 107.546L121.768 92.6162L123.198 93.448L97.3389 108.377Z" fill="#876F7E"/>
  <path d="M123.198 93.448L123.253 112.84L97.3937 127.77L97.3389 108.377L123.198 93.448Z" fill="#281B29"/>
  <path d="M236.98 158.49L236.962 164.694L158.572 210.261L158.59 204.057L236.98 158.49Z" fill="#EFD0C0"/>
  <path d="M158.591 204.057L158.573 210.261L79.6514 164.695L79.6687 158.491L158.591 204.057Z" fill="#FAEACF"/>
  <path d="M232.968 160.834L158.591 204.057L83.7266 160.835L158.104 117.611L232.968 160.834Z" fill="#FFE2B7"/>
  <path d="M232.939 141.966L232.922 160.834L158.092 117.611L158.075 50.5242L193.507 70.9804L232.939 141.966Z" fill="#2B9FB3"/>
  <path d="M158.075 45.8374V50.5241L193.507 70.9803L232.941 141.966L237 139.623L197.44 68.5652L158.075 45.8374Z" fill="#32BAD1"/>
  <path d="M232.939 141.966L232.923 160.834L236.98 158.49L236.998 139.623L232.939 141.966Z" fill="#268B9C"/>
  <path d="M83.8801 145.898L83.7275 160.835L158.092 117.611L158.075 50.5242L152.074 53.9883L134.735 117.731L83.8801 145.898Z" fill="#268B9C"/>
  <path d="M148.297 51.4822L152.074 53.9882L158.074 50.5241V45.8374L148.297 51.4822Z" fill="#32BAD1"/>
  <path d="M148.297 51.4822L130.747 115.473L134.734 117.731L152.073 53.9882L148.297 51.4822Z" fill="#30B1C7"/>
  <path d="M130.748 115.473L79.8691 143.529L83.8803 145.898L134.735 117.731L130.748 115.473Z" fill="#32BAD1"/>
  <path d="M83.8399 145.875L83.7257 160.835L79.668 158.491L79.8686 143.529L83.8399 145.875Z" fill="#2B9FB3"/>
  <path d="M99.8906 167.609L169.893 127.383L214.667 153.233L144.664 193.459L99.8906 167.609Z" fill="#E0B6A6"/>
  <path d="M144.666 191.884L102.625 167.612L169.892 128.958L211.933 153.231L144.666 191.884ZM103.718 167.613L144.666 191.254L210.839 153.23L169.891 129.589L103.718 167.613Z" fill="white"/>
  <path opacity="0.25" d="M193.425 165.784L136.756 133.066L160.521 119.345L217.19 152.063L193.425 165.784Z" fill="#281B29"/>
  <path d="M168.517 130.449L165.362 128.614L153.469 135.48L156.625 137.314L168.517 130.449Z" fill="#F0CEB3"/>
  <path d="M169.111 111.927L165.955 110.092L165.32 110.459L168.476 112.292L169.111 111.927Z" fill="#F0CEB3"/>
  <path d="M168.476 112.292L165.32 110.459L165.362 128.614L168.518 130.449L168.476 112.292Z" fill="#9B6A62"/>
  <path d="M155.949 119.525L152.793 117.691L152.837 136.576L155.993 138.41L155.949 119.525Z" fill="#9B6A62"/>
  <path d="M156.583 119.159L153.427 117.325L152.793 117.691L155.949 119.525L156.583 119.159Z" fill="#F0CEB3"/>
  <path d="M155.949 119.525L155.994 138.41L156.628 138.043L168.52 131.177L169.154 130.811L169.111 111.927L168.476 112.292L168.518 130.449L156.626 137.314L156.583 119.159L155.949 119.525Z" fill="#CCA284"/>
  <path d="M201.856 149.696L198.7 147.862L186.808 154.729L189.964 156.562L201.856 149.696Z" fill="#F0CEB3"/>
  <path d="M202.448 131.174L199.293 129.34L198.658 129.707L201.814 131.54L202.448 131.174Z" fill="#F0CEB3"/>
  <path d="M201.814 131.54L198.658 129.707L198.7 147.862L201.856 149.696L201.814 131.54Z" fill="#9B6A62"/>
  <path d="M189.288 138.773L186.132 136.939L186.176 155.823L189.331 157.658L189.288 138.773Z" fill="#9B6A62"/>
  <path d="M189.922 138.407L186.766 136.573L186.132 136.939L189.288 138.773L189.922 138.407Z" fill="#F0CEB3"/>
  <path d="M189.288 138.773L189.332 157.658L189.967 157.291L201.859 150.425L202.493 150.059L202.449 131.174L201.814 131.54L201.857 149.696L189.964 156.562L189.922 138.407L189.288 138.773Z" fill="#CCA284"/>
  <path d="M146.036 120.379L146.041 122.084L189.621 147.41L189.617 145.705L146.036 120.379Z" fill="#9B6A62"/>
  <path d="M189.617 145.705L189.622 147.41L210.168 135.548L210.163 133.843L189.617 145.705Z" fill="#CCA284"/>
  <path d="M146.036 120.379L189.617 145.705L210.163 133.843L166.582 108.516L146.036 120.379Z" fill="#F0CEB3"/>
  <path opacity="0.25" d="M147.949 158.227L115.193 177.139L82.4355 158.227L115.193 139.315L147.949 158.227Z" fill="#281B29"/>
  <path opacity="0.25" d="M176.896 158.191L162.552 166.472L148.208 158.191L162.552 149.909L176.896 158.191Z" fill="#281B29"/>
  <path d="M135.038 157.469L115.708 146.312L115.825 146.75L135.155 157.907L135.038 157.469Z" fill="#9B6A62"/>
  <path d="M115.708 146.312L135.038 157.469V141.303L115.708 130.146V146.312Z" fill="#9B6A62"/>
  <path d="M115.825 129.572L116.147 129.016L116.585 128.627L135.915 139.784L135.476 140.173L135.155 140.729L135.038 141.303L115.708 130.146L115.825 129.572Z" fill="url(#paint21_linear_99_9828)"/>
  <path d="M116.585 128.627L135.915 139.784L139.422 137.759L120.092 126.603L116.585 128.627Z" fill="#F0CEB3"/>
  <path d="M115.708 146.312V130.146L115.387 129.825V145.991L115.708 146.312Z" fill="#9B6A62"/>
  <path d="M115.708 146.312L115.387 145.991L115.489 146.371L115.825 146.75L115.708 146.312Z" fill="#74504A"/>
  <path d="M120.092 126.603L139.422 137.759L139.86 137.642L120.53 126.485L120.092 126.603Z" fill="#F3D8C2"/>
  <path d="M120.091 126.603L120.529 126.485L120.033 126.383L119.653 126.485L120.091 126.603Z" fill="#F0CEB3"/>
  <path d="M120.091 126.603L119.653 126.485L116.146 128.51L116.585 128.627L120.091 126.603Z" fill="#F3D8C2"/>
  <path d="M136.791 157.469L136.673 157.907L140.18 155.882L140.298 155.444L136.791 157.469Z" fill="#9B6A62"/>
  <path d="M136.791 157.469L140.298 155.444V139.278L136.791 141.303V157.469Z" fill="#CCA284"/>
  <path d="M140.298 139.278V155.444L140.619 155.123V138.957L140.298 139.278Z" fill="#CCA284"/>
  <path d="M140.619 155.123L140.298 155.444L140.56 155.41L140.619 155.123Z" fill="#74504A"/>
  <path d="M140.299 155.444L140.181 155.882L140.4 155.688L140.299 155.444Z" fill="#74504A"/>
  <path d="M135.593 157.654H136.235L136.791 157.469L136.673 157.907L136.352 158.093L135.973 158.194L135.475 158.093L135.154 157.907L135.037 157.469L135.593 157.654Z" fill="#9B6A62"/>
  <path d="M139.421 137.759L139.859 138.149L140.18 138.704L140.298 139.278L136.791 141.303L136.673 140.729L136.352 140.173L135.914 139.784L139.421 137.759Z" fill="url(#paint22_linear_99_9828)"/>
  <path d="M135.593 141.488H136.235L136.791 141.303V157.469L136.235 157.654H135.593L135.037 157.469V141.303L135.593 141.488Z" fill="url(#paint23_linear_99_9828)"/>
  <path d="M140.399 155.688L140.56 155.41L140.298 155.444L140.399 155.688Z" fill="#9B6A62"/>
  <path d="M139.859 137.642L140.18 137.827L140.516 138.207L140.619 138.587V138.957L140.298 139.278L140.18 138.704L139.859 138.149L139.421 137.759L139.859 137.642Z" fill="url(#paint24_linear_99_9828)"/>
  <path d="M115.445 129.167L115.606 128.889L115.825 128.695L116.146 128.51L116.584 128.627L116.146 129.016L115.825 129.572L115.708 130.146L115.387 129.825V129.454L115.445 129.167Z" fill="url(#paint25_linear_99_9828)"/>
  <path d="M135.154 140.729L135.475 140.173L135.914 139.784L136.352 140.173L136.673 140.729L136.791 141.303L136.235 141.488H135.593L135.037 141.303L135.154 140.729Z" fill="url(#paint26_linear_99_9828)"/>
  <path d="M115.074 165.954V161.715L98.2344 151.996V156.235L115.074 165.954Z" fill="#9B6A62"/>
  <path d="M115.074 165.955L98.2344 156.235L98.3516 156.674L115.192 166.393L115.074 165.955Z" fill="#74504A"/>
  <path d="M98.2349 156.235V151.996L97.9141 151.675V155.914L98.2349 156.235Z" fill="#9B6A62"/>
  <path d="M98.3516 151.422L98.6725 150.866L99.1113 150.477L115.951 160.196L115.513 160.586L115.192 161.141L115.074 161.715L98.2344 151.996L98.3516 151.422Z" fill="url(#paint27_linear_99_9828)"/>
  <path d="M99.1113 150.477L115.951 160.196L133.577 150.02L116.738 140.301L99.1113 150.477Z" fill="#F0CEB3"/>
  <path d="M99.1117 150.477L116.738 140.301L116.299 140.183L98.6729 150.36L99.1117 150.477Z" fill="#F3D8C2"/>
  <path d="M116.738 140.301L133.578 150.02L134.017 149.902L117.176 140.183L116.738 140.301Z" fill="#F3D8C2"/>
  <path d="M116.299 140.183L116.738 140.301L117.176 140.183L116.679 140.081L116.299 140.183Z" fill="#F3D8C2"/>
  <path d="M115.63 161.901H116.272L116.828 161.715V165.955L116.272 166.14H115.63L115.074 165.955V161.715L115.63 161.901Z" fill="url(#paint28_linear_99_9828)"/>
  <path d="M116.828 161.715V165.955L134.454 155.778V151.538L116.828 161.715Z" fill="#CCA284"/>
  <path d="M134.454 155.778L116.828 165.955L116.711 166.393L134.337 156.216L134.454 155.778Z" fill="#9B6A62"/>
  <path d="M134.454 151.538V155.778L134.775 155.457V151.218L134.454 151.538Z" fill="#CCA284"/>
  <path d="M133.578 150.02L134.016 150.409L134.336 150.964L134.454 151.538L116.828 161.715L116.711 161.141L116.39 160.585L115.951 160.196L133.578 150.02Z" fill="url(#paint29_linear_99_9828)"/>
  <path d="M134.455 155.778L134.776 155.457L134.717 155.744L134.556 156.022L134.337 156.216L134.455 155.778Z" fill="#9B6A62"/>
  <path d="M98.2349 156.235L97.9141 155.914L98.0155 156.294L98.3522 156.674L98.2349 156.235Z" fill="#74504A"/>
  <path d="M134.016 149.902L134.337 150.088L134.674 150.467L134.776 150.847V151.217L134.455 151.538L134.337 150.964L134.016 150.409L133.578 150.02L134.016 149.902Z" fill="url(#paint30_linear_99_9828)"/>
  <path d="M97.9727 151.018L98.1335 150.74L98.3522 150.545L98.673 150.36L99.1119 150.477L98.673 150.866L98.3522 151.422L98.2349 151.996L97.9141 151.675V151.304L97.9727 151.018Z" fill="url(#paint31_linear_99_9828)"/>
  <path d="M115.63 166.139H116.272L116.828 165.955L116.711 166.393L116.39 166.578L116.01 166.68L115.513 166.578L115.192 166.393L115.074 165.955L115.63 166.139Z" fill="#74504A"/>
  <path d="M115.192 161.141L115.513 160.586L115.951 160.196L116.39 160.586L116.711 161.141L116.828 161.715L116.272 161.901H115.63L115.074 161.715L115.192 161.141Z" fill="url(#paint32_linear_99_9828)"/>
  <path d="M98.1745 150.677L101.562 151.737L98.9101 133.029L95.5234 131.969L98.1745 150.677Z" fill="#9B6A62"/>
  <path d="M101.561 151.737L98.1738 150.677L98.3444 151.015L101.731 152.075L101.561 151.737Z" fill="#9B6A62"/>
  <path d="M98.9102 133.029L101.562 151.737L101.926 151.752L99.2746 133.044L98.9102 133.029Z" fill="url(#paint33_linear_99_9828)"/>
  <path d="M98.1743 150.677L95.5233 131.969L95.3857 131.828L98.0368 150.537L98.1743 150.677Z" fill="#9B6A62"/>
  <path d="M99.2744 133.044L101.925 151.752L102.42 151.636L99.7681 132.928L99.2744 133.044Z" fill="url(#paint34_linear_99_9828)"/>
  <path d="M101.925 151.752L101.562 151.737L101.731 152.075L102.047 152.088L101.925 151.752Z" fill="#9B6A62"/>
  <path d="M99.7686 132.928L102.42 151.636L102.911 151.421L100.26 132.713L99.7686 132.928Z" fill="url(#paint35_linear_99_9828)"/>
  <path d="M100.26 132.713L102.911 151.421L119.949 141.947L117.298 123.239L100.26 132.713Z" fill="#CCA284"/>
  <path d="M117.298 123.239L119.949 141.947L120.306 141.691L117.655 122.982L117.298 123.239Z" fill="#CCA284"/>
  <path d="M119.949 141.947L102.911 151.421L102.9 151.802L119.939 142.327L119.949 141.947Z" fill="#9B6A62"/>
  <path d="M102.911 151.421L102.42 151.636L102.475 151.987L102.9 151.802L102.911 151.421Z" fill="#9B6A62"/>
  <path d="M102.42 151.636L101.926 151.752L102.048 152.088L102.475 151.988L102.42 151.636Z" fill="#9B6A62"/>
  <path d="M99.6443 131.755L116.682 122.281L113.296 121.221L96.2568 130.695L99.6443 131.755Z" fill="#F0CEB3"/>
  <path d="M96.2567 130.695L113.295 121.221L113.059 121.251L96.0215 130.725L96.2567 130.695Z" fill="#F0CEB3"/>
  <path d="M113.296 121.221L116.683 122.281L117.121 122.154L113.735 121.093L113.296 121.221Z" fill="#F0CEB3"/>
  <path d="M120.305 141.691L119.948 141.947L119.938 142.327L120.247 142.105L120.305 141.691Z" fill="#9B6A62"/>
  <path d="M117.654 122.982L120.305 141.691L120.432 141.462L117.781 122.753L117.654 122.982Z" fill="#CCA284"/>
  <path d="M120.432 141.461L120.306 141.691L120.248 142.105L120.357 141.907L120.432 141.461Z" fill="#9B6A62"/>
  <path d="M98.3452 151.015L98.1746 150.677L98.0371 150.537L98.2265 150.893L98.3452 151.015Z" fill="#9B6A62"/>
  <path d="M98.6964 151.136L102.084 152.196L101.731 152.075L98.3447 151.015L98.6964 151.136Z" fill="#696969"/>
  <path d="M101.731 152.075L102.084 152.196L102.266 152.204L102.047 152.088L101.731 152.075Z" fill="#9B6A62"/>
  <path d="M120.248 142.105L119.939 142.327L119.797 142.565L119.975 142.436L120.248 142.105Z" fill="#9B6A62"/>
  <path d="M102.758 152.039L119.797 142.565L119.939 142.327L102.9 151.802L102.758 152.039Z" fill="#9B6A62"/>
  <path d="M102.758 152.039L102.9 151.802L102.475 151.988L102.513 152.146L102.758 152.039Z" fill="#9B6A62"/>
  <path d="M95.5798 131.504L95.8488 131.038L96.2568 130.695L99.6443 131.755L99.2355 132.099L98.9672 132.565L98.9101 133.029L95.5234 131.969L95.5798 131.504Z" fill="url(#paint36_linear_99_9828)"/>
  <path d="M113.305 121.144L113.552 121.086L113.734 121.093L113.296 121.221L113.06 121.251L113.305 121.144Z" fill="#F0CEB3"/>
  <path d="M95.4609 131.383L95.5706 131.184L95.8426 130.854L96.0214 130.725L96.2566 130.695L95.8486 131.038L95.5796 131.504L95.5233 131.969L95.3857 131.828L95.4609 131.383Z" fill="url(#paint37_linear_99_9828)"/>
  <path d="M102.266 152.204L102.513 152.146L102.474 151.988L102.047 152.088L102.266 152.204Z" fill="#9B6A62"/>
  <path d="M98.9673 132.565L99.2355 132.099L99.6443 131.755L99.9103 131.941L100.136 132.291L100.26 132.713L99.7683 132.928L99.2746 133.044L98.9102 133.029L98.9673 132.565Z" fill="url(#paint38_linear_99_9828)"/>
  <path d="M116.682 122.281L117.121 122.154L117.474 122.275L117.592 122.396L117.781 122.753L117.655 122.982L117.298 123.239L100.26 132.713L100.136 132.291L99.9105 131.941L99.6445 131.755L116.682 122.281Z" fill="url(#paint39_linear_99_9828)"/>
  <path d="M111.212 171.225L91.8818 160.069L91.9991 160.507L111.329 171.664L111.212 171.225Z" fill="#9B6A62"/>
  <path d="M91.8818 160.069L111.212 171.225V155.059L91.8818 143.902V160.069Z" fill="#9B6A62"/>
  <path d="M91.9991 143.328L92.3199 142.772L92.7588 142.384L112.089 153.541L111.65 153.93L111.329 154.485L111.212 155.059L91.8818 143.902L91.9991 143.328Z" fill="url(#paint40_linear_99_9828)"/>
  <path d="M92.7588 142.384L112.089 153.541L115.596 151.516L96.2657 140.359L92.7588 142.384Z" fill="#F0CEB3"/>
  <path d="M91.8814 160.069V143.902L91.5605 143.582V159.748L91.8814 160.069Z" fill="#9B6A62"/>
  <path d="M91.8814 160.069L91.5605 159.748L91.662 160.127L91.9986 160.507L91.8814 160.069Z" fill="#74504A"/>
  <path d="M96.2656 140.359L115.595 151.516L116.034 151.399L96.7037 140.241L96.2656 140.359Z" fill="#F3D8C2"/>
  <path d="M96.265 140.359L96.7031 140.241L96.2064 140.14L95.8262 140.241L96.265 140.359Z" fill="#F0CEB3"/>
  <path d="M96.2651 140.359L95.8263 140.241L92.3193 142.267L92.7582 142.384L96.2651 140.359Z" fill="#F3D8C2"/>
  <path d="M112.964 171.225L112.847 171.664L116.354 169.639L116.472 169.201L112.964 171.225Z" fill="#9B6A62"/>
  <path d="M112.965 171.225L116.473 169.201V153.034L112.965 155.059V171.225Z" fill="#CCA284"/>
  <path d="M116.472 153.034V169.201L116.793 168.88V152.714L116.472 153.034Z" fill="#CCA284"/>
  <path d="M116.793 168.88L116.472 169.201L116.733 169.167L116.793 168.88Z" fill="#9B6A62"/>
  <path d="M116.471 169.201L116.354 169.639L116.573 169.444L116.471 169.201Z" fill="#9B6A62"/>
  <path d="M111.767 171.411H112.409L112.964 171.225L112.847 171.664L112.526 171.849L112.146 171.951L111.649 171.849L111.328 171.664L111.211 171.225L111.767 171.411Z" fill="#9B6A62"/>
  <path d="M115.595 151.516L116.033 151.904L116.354 152.46L116.472 153.035L112.964 155.059L112.847 154.485L112.526 153.929L112.088 153.541L115.595 151.516Z" fill="url(#paint41_linear_99_9828)"/>
  <path d="M111.767 155.244H112.409L112.964 155.059V171.225L112.409 171.411H111.767L111.211 171.225V155.059L111.767 155.244Z" fill="url(#paint42_linear_99_9828)"/>
  <path d="M116.573 169.444L116.733 169.167L116.472 169.201L116.573 169.444Z" fill="#9B6A62"/>
  <path d="M116.033 151.399L116.354 151.584L116.69 151.963L116.793 152.343V152.714L116.472 153.035L116.354 152.46L116.033 151.904L115.595 151.516L116.033 151.399Z" fill="url(#paint43_linear_99_9828)"/>
  <path d="M91.6192 142.924L91.78 142.646L91.9986 142.451L92.3195 142.266L92.7583 142.384L92.3195 142.772L91.9986 143.328L91.8814 143.902L91.5605 143.581V143.211L91.6192 142.924Z" fill="url(#paint44_linear_99_9828)"/>
  <path d="M111.328 154.485L111.649 153.93L112.088 153.541L112.526 153.93L112.847 154.485L112.964 155.059L112.409 155.245H111.767L111.211 155.059L111.328 154.485Z" fill="url(#paint45_linear_99_9828)"/>
  <path d="M160.797 152.917L161.425 165.356C161.425 165.356 161.56 165.704 162.053 165.704C162.545 165.704 162.646 165.343 162.646 165.343L162.788 152.205L160.797 152.917Z" fill="url(#paint46_linear_99_9828)"/>
  <path d="M170.737 148.056L173.949 157.894C173.949 157.894 174.09 158.184 174.441 158.191C174.792 158.198 175.065 158.056 175.065 157.745L172.297 147.026L170.737 148.056Z" fill="url(#paint47_linear_99_9828)"/>
  <path d="M151.992 148.798L149.064 157.835C149.064 157.835 148.936 158.342 148.301 158.204C148.146 158.17 147.81 158.039 147.873 157.771C147.937 157.502 150.462 147.341 150.462 147.341L151.992 148.798Z" fill="url(#paint48_linear_99_9828)"/>
  <path d="M149.969 145.491C149.969 145.491 149.649 145.823 149.867 146.368C150.085 146.912 150.697 147.299 150.697 147.299C150.697 147.299 158.147 151.685 158.768 151.86C159.389 152.035 161.075 152.251 162.412 151.631C163.748 151.01 172.47 146.649 172.47 146.649C172.47 146.649 174.112 145.751 173.109 144.65C173.109 144.65 164.643 139.629 163.464 138.954C162.286 138.279 160.693 138.306 159.703 138.711C158.714 139.116 149.969 145.491 149.969 145.491Z" fill="#F0CEB3"/>
  <path d="M173.429 145.382C173.429 146.123 172.47 146.65 172.47 146.65C172.47 146.65 163.747 151.011 162.411 151.631C161.075 152.252 159.388 152.037 158.767 151.861C158.147 151.685 150.697 147.299 150.697 147.299C150.697 147.299 150.085 146.913 149.867 146.368C149.811 146.229 149.791 146.105 149.791 145.996L149.79 146.967C149.79 147.077 149.811 147.201 149.867 147.34C150.085 147.885 150.697 148.271 150.697 148.271C150.697 148.271 158.147 152.657 158.767 152.832C159.388 153.007 161.075 153.224 162.411 152.603C163.747 151.982 172.47 147.621 172.47 147.621C172.47 147.621 173.429 147.094 173.429 146.353H173.433V145.382H173.429Z" fill="url(#paint49_linear_99_9828)"/>
  <path d="M151.555 145.103C151.555 145.103 151.279 145.39 151.468 145.86C151.046 144.804 152.796 147.05 152.185 146.665C152.185 146.665 158.619 150.452 159.155 150.604C159.692 150.756 161.148 150.942 162.302 150.406C163.456 149.869 170.989 146.103 170.989 146.103C170.989 146.103 172.407 145.328 171.541 144.377C171.541 144.377 164.229 140.041 163.211 139.458C162.193 138.874 160.818 138.898 159.964 139.248C159.108 139.597 151.555 145.103 151.555 145.103Z" fill="#705C68"/>
  <path d="M171.817 145.008C171.816 145.649 170.988 146.103 170.988 146.103C170.988 146.103 163.455 149.869 162.301 150.406C161.147 150.942 159.69 150.755 159.154 150.604C158.617 150.452 152.184 146.664 152.184 146.664C152.71 146.997 151.486 145.378 151.407 145.6C151.413 145.679 151.429 145.765 151.467 145.86C151.409 145.715 151.395 145.637 151.407 145.6C151.406 145.58 151.402 145.558 151.402 145.538H151.401V145.949H151.402C151.402 146.044 151.419 146.151 151.467 146.271C151.655 146.741 152.184 147.075 152.184 147.075C152.184 147.075 158.618 150.863 159.155 151.015C159.691 151.166 161.147 151.353 162.302 150.816C163.456 150.28 170.989 146.513 170.989 146.513C170.989 146.513 171.817 146.058 171.818 145.419H171.821V145.008L171.817 145.008Z" fill="url(#paint50_linear_99_9828)"/>
  <path d="M148.88 142.347C148.88 142.347 149.037 144.992 151.237 146.814C153.436 148.636 156.662 150.293 158.268 150.66C159.874 151.027 159.901 149.742 159.874 149.526L158.457 139.067C158.457 139.067 158.133 137.515 157.093 136.921C156.054 136.327 152.262 135.18 150.291 133.614C148.321 132.049 147.903 131.604 147.903 131.604C147.903 131.604 147.309 131.064 147.106 131.826C147.009 132.193 148.88 142.347 148.88 142.347Z" fill="#CCA284"/>
  <path d="M160.715 148.95L159.298 138.491C159.298 138.491 159.092 136.903 157.934 136.345C156.856 135.825 153.103 134.604 151.132 133.039C149.162 131.474 148.744 131.028 148.744 131.028C148.744 131.028 148.408 130.723 148.155 130.896L147.314 131.471C147.567 131.299 147.903 131.604 147.903 131.604C147.903 131.604 148.321 132.049 150.292 133.614C152.262 135.18 156.054 136.327 157.094 136.921C158.133 137.514 158.457 139.067 158.457 139.067L159.874 149.526C159.891 149.665 159.884 150.246 159.449 150.545L159.45 150.547L160.291 149.972L160.289 149.969C160.724 149.67 160.732 149.089 160.715 148.95Z" fill="url(#paint51_linear_99_9828)"/>
  <path d="M157.174 136.287C157.174 136.287 153.773 135.374 152.082 134.322C150.39 133.269 149.009 132.04 148.258 131.127V130.722C148.258 130.722 148.393 130.352 148.815 130.843C149.238 131.335 151.533 133.575 154.474 134.465C157.417 135.356 157.098 135.712 157.174 136.287Z" fill="#4C3342"/>
  <path d="M155.321 133.977C152.379 133.087 150.085 130.846 149.662 130.355C149.426 130.081 149.282 130.077 149.198 130.126L149.197 130.124L148.352 130.612L148.353 130.615C148.436 130.566 148.58 130.57 148.817 130.844C149.24 131.335 151.534 133.575 154.476 134.466C157.418 135.356 157.098 135.712 157.175 136.288L157.445 136.132L158.02 136.391V135.8C157.944 135.223 158.264 134.868 155.321 133.977Z" fill="url(#paint52_linear_99_9828)"/>
  <path d="M178.131 89.1769L189.923 95.9849V82.6402L178.131 75.8323V89.1769Z" fill="#4C3342"/>
  <path d="M179.098 88.6404L188.956 94.3317V83.176L179.098 77.4846V88.6404Z" fill="white"/>
  <path d="M187.797 83.8455L180.258 79.4917V87.9716L187.797 92.3246V83.8455Z" fill="#E0B6A6"/>
  <path d="M190.837 82.1121V95.4567L189.923 95.985V82.6403L190.837 82.1121Z" fill="#634356"/>
  <path d="M179.045 75.304L190.838 82.1119L189.923 82.6402L178.131 75.8322L179.045 75.304Z" fill="#876F7E"/>
  <path d="M190.38 110.067L202.172 116.875V103.53L190.38 96.7222V110.067Z" fill="#4C3342"/>
  <path d="M191.347 109.53L201.205 115.222V104.066L191.347 98.3745V109.53Z" fill="white"/>
  <path d="M200.046 104.735L192.506 100.382V108.861L200.046 113.215V104.735Z" fill="#FE9381"/>
  <path d="M203.086 103.002V116.346L202.172 116.875V103.53L203.086 103.002Z" fill="#634356"/>
  <path d="M191.294 96.1938L203.087 103.002L202.172 103.53L190.38 96.7221L191.294 96.1938Z" fill="#876F7E"/>
  <path d="M161.199 100.881L172.991 107.689V67.3216L161.199 60.5137V100.881Z" fill="#4C3342"/>
  <path d="M162.166 100.345L172.023 106.036V67.8581L162.166 62.1667V100.345Z" fill="white"/>
  <path d="M170.865 68.5269L163.325 64.1738V99.676L170.865 104.029V68.5269Z" fill="#4C3342"/>
  <path d="M173.905 66.7935V107.162L172.99 107.689V67.3217L173.905 66.7935Z" fill="#634356"/>
  <path d="M162.114 59.9854L173.905 66.7933L172.991 67.3216L161.199 60.5136L162.114 59.9854Z" fill="#876F7E"/>
  <path d="M180.192 133.612L164.922 124.724C164.772 124.65 164.772 124.529 164.922 124.454L174.62 118.929C174.77 118.855 175.012 118.855 175.161 118.929L190.305 127.766C190.455 127.84 190.455 127.961 190.305 128.036L180.733 133.612C180.584 133.687 180.342 133.687 180.192 133.612Z" fill="url(#paint53_linear_99_9828)"/>
  <path d="M190.305 128.036L180.733 133.612C180.584 133.687 180.342 133.687 180.192 133.612L164.922 124.724C164.847 124.687 164.81 124.638 164.81 124.589V124.943C164.81 124.992 164.847 125.04 164.922 125.078L180.192 133.966C180.342 134.04 180.584 134.04 180.733 133.966L190.305 128.39C190.379 128.353 190.417 128.304 190.417 128.255V127.901C190.417 127.95 190.379 127.999 190.305 128.036Z" fill="url(#paint54_linear_99_9828)"/>
  <path d="M175.709 120.621L175.291 120.856L174.457 120.374L174.874 120.14L175.709 120.621Z" fill="#F8F9F8"/>
  <path d="M175.291 121.059V120.856L175.709 120.621V120.824L175.291 121.059Z" fill="#D9D9D9"/>
  <path d="M174.457 120.576V120.374L175.291 120.856V121.059L174.457 120.576Z" fill="#BBB8B8"/>
  <path d="M176.868 121.29L176.451 121.524L175.617 121.043L176.034 120.808L176.868 121.29Z" fill="#F8F9F8"/>
  <path d="M176.451 121.727V121.524L176.868 121.29V121.492L176.451 121.727Z" fill="#D9D9D9"/>
  <path d="M175.617 121.245V121.043L176.451 121.524V121.727L175.617 121.245Z" fill="#BBB8B8"/>
  <path d="M178.028 121.959L177.61 122.192L176.776 121.711L177.193 121.477L178.028 121.959Z" fill="#F8F9F8"/>
  <path d="M177.61 122.395V122.192L178.027 121.959V122.161L177.61 122.395Z" fill="#D9D9D9"/>
  <path d="M176.776 121.914V121.711L177.61 122.192V122.395L176.776 121.914Z" fill="#BBB8B8"/>
  <path d="M179.188 122.627L178.771 122.861L177.937 122.379L178.354 122.145L179.188 122.627Z" fill="#F8F9F8"/>
  <path d="M178.771 123.064V122.861L179.188 122.627V122.83L178.771 123.064Z" fill="#D9D9D9"/>
  <path d="M177.937 122.582V122.379L178.771 122.861V123.064L177.937 122.582Z" fill="#BBB8B8"/>
  <path d="M180.348 123.296L179.93 123.53L179.096 123.048L179.513 122.814L180.348 123.296Z" fill="#F8F9F8"/>
  <path d="M179.93 123.732V123.53L180.347 123.296V123.498L179.93 123.732Z" fill="#D9D9D9"/>
  <path d="M179.096 123.25V123.048L179.93 123.53V123.732L179.096 123.25Z" fill="#BBB8B8"/>
  <path d="M181.507 123.964L181.09 124.199L180.255 123.717L180.672 123.483L181.507 123.964Z" fill="#F8F9F8"/>
  <path d="M181.09 124.401V124.199L181.507 123.964V124.166L181.09 124.401Z" fill="#D9D9D9"/>
  <path d="M180.255 123.919V123.717L181.09 124.199V124.401L180.255 123.919Z" fill="#BBB8B8"/>
  <path d="M182.666 124.633L182.249 124.867L181.415 124.385L181.832 124.151L182.666 124.633Z" fill="#F8F9F8"/>
  <path d="M182.249 125.07V124.867L182.666 124.633V124.835L182.249 125.07Z" fill="#D9D9D9"/>
  <path d="M181.415 124.588V124.385L182.249 124.867V125.07L181.415 124.588Z" fill="#BBB8B8"/>
  <path d="M183.826 125.301L183.409 125.536L182.575 125.054L182.992 124.82L183.826 125.301Z" fill="#F8F9F8"/>
  <path d="M183.409 125.738V125.536L183.826 125.301V125.504L183.409 125.738Z" fill="#D9D9D9"/>
  <path d="M182.575 125.257V125.054L183.409 125.536V125.738L182.575 125.257Z" fill="#BBB8B8"/>
  <path d="M184.986 125.97L184.568 126.204L183.734 125.723L184.151 125.488L184.986 125.97Z" fill="#F8F9F8"/>
  <path d="M184.568 126.407V126.204L184.985 125.97V126.172L184.568 126.407Z" fill="#D9D9D9"/>
  <path d="M183.734 125.925V125.723L184.568 126.205V126.407L183.734 125.925Z" fill="#BBB8B8"/>
  <path d="M186.145 126.639L185.728 126.872L184.894 126.391L185.311 126.157L186.145 126.639Z" fill="#F8F9F8"/>
  <path d="M185.728 127.075V126.872L186.145 126.639V126.841L185.728 127.075Z" fill="#D9D9D9"/>
  <path d="M184.894 126.594V126.391L185.728 126.872V127.075L184.894 126.594Z" fill="#BBB8B8"/>
  <path d="M187.305 127.307L186.888 127.541L186.054 127.06L186.471 126.825L187.305 127.307Z" fill="#F8F9F8"/>
  <path d="M186.888 127.744V127.541L187.305 127.307V127.51L186.888 127.744Z" fill="#D9D9D9"/>
  <path d="M186.054 127.262V127.06L186.888 127.541V127.744L186.054 127.262Z" fill="#BBB8B8"/>
  <path d="M174.746 121.15L173.911 121.632L173.077 121.15L173.911 120.668L174.746 121.15Z" fill="#F8F9F8"/>
  <path d="M173.911 121.835V121.632L174.746 121.15V121.353L173.911 121.835Z" fill="#D9D9D9"/>
  <path d="M173.077 121.353V121.15L173.911 121.632V121.835L173.077 121.353Z" fill="#BBB8B8"/>
  <path d="M175.905 121.819L175.07 122.3L174.236 121.819L175.07 121.337L175.905 121.819Z" fill="#F8F9F8"/>
  <path d="M175.07 122.503V122.301L175.905 121.819V122.021L175.07 122.503Z" fill="#D9D9D9"/>
  <path d="M174.236 122.021V121.819L175.07 122.301V122.503L174.236 122.021Z" fill="#BBB8B8"/>
  <path d="M177.065 122.488L176.231 122.969L175.396 122.488L176.231 122.006L177.065 122.488Z" fill="#F8F9F8"/>
  <path d="M176.23 123.172V122.969L177.065 122.488V122.69L176.23 123.172Z" fill="#D9D9D9"/>
  <path d="M175.396 122.69V122.488L176.231 122.969V123.172L175.396 122.69Z" fill="#BBB8B8"/>
  <path d="M178.224 123.156L177.39 123.637L176.556 123.156L177.39 122.674L178.224 123.156Z" fill="#F8F9F8"/>
  <path d="M177.39 123.84V123.637L178.224 123.156V123.359L177.39 123.84Z" fill="#D9D9D9"/>
  <path d="M176.556 123.359V123.156L177.39 123.637V123.84L176.556 123.359Z" fill="#BBB8B8"/>
  <path d="M179.384 123.824L178.55 124.306L177.716 123.824L178.55 123.343L179.384 123.824Z" fill="#F8F9F8"/>
  <path d="M178.55 124.508V124.306L179.384 123.824V124.027L178.55 124.508Z" fill="#D9D9D9"/>
  <path d="M177.716 124.027V123.824L178.55 124.306V124.508L177.716 124.027Z" fill="#BBB8B8"/>
  <path d="M180.544 124.493L179.709 124.975L178.875 124.493L179.709 124.011L180.544 124.493Z" fill="#F8F9F8"/>
  <path d="M179.709 125.177V124.975L180.544 124.493V124.695L179.709 125.177Z" fill="#D9D9D9"/>
  <path d="M178.875 124.695V124.493L179.709 124.975V125.177L178.875 124.695Z" fill="#BBB8B8"/>
  <path d="M181.704 125.161L180.87 125.643L180.035 125.161L180.87 124.68L181.704 125.161Z" fill="#F8F9F8"/>
  <path d="M180.87 125.846V125.643L181.704 125.161V125.364L180.87 125.846Z" fill="#D9D9D9"/>
  <path d="M180.035 125.364V125.161L180.87 125.643V125.846L180.035 125.364Z" fill="#BBB8B8"/>
  <path d="M182.863 125.83L182.029 126.312L181.195 125.83L182.029 125.348L182.863 125.83Z" fill="#F8F9F8"/>
  <path d="M182.029 126.515V126.312L182.863 125.83V126.033L182.029 126.515Z" fill="#D9D9D9"/>
  <path d="M181.195 126.033V125.83L182.029 126.312V126.515L181.195 126.033Z" fill="#BBB8B8"/>
  <path d="M184.023 126.499L183.189 126.98L182.354 126.499L183.189 126.017L184.023 126.499Z" fill="#F8F9F8"/>
  <path d="M183.188 127.183V126.98L184.023 126.499V126.701L183.188 127.183Z" fill="#D9D9D9"/>
  <path d="M182.354 126.701V126.499L183.189 126.98V127.183L182.354 126.701Z" fill="#BBB8B8"/>
  <path d="M185.182 127.167L184.348 127.649L183.514 127.167L184.348 126.686L185.182 127.167Z" fill="#F8F9F8"/>
  <path d="M184.348 127.851V127.649L185.182 127.167V127.37L184.348 127.851Z" fill="#D9D9D9"/>
  <path d="M183.514 127.37V127.167L184.348 127.649V127.851L183.514 127.37Z" fill="#BBB8B8"/>
  <path d="M186.342 127.836L185.507 128.317L184.673 127.836L185.507 127.354L186.342 127.836Z" fill="#F8F9F8"/>
  <path d="M185.507 128.52V128.317L186.342 127.836V128.039L185.507 128.52Z" fill="#D9D9D9"/>
  <path d="M184.673 128.039V127.836L185.507 128.317V128.52L184.673 128.039Z" fill="#BBB8B8"/>
  <path d="M173.365 121.926L172.531 122.408L171.697 121.926L172.531 121.445L173.365 121.926Z" fill="#F8F9F8"/>
  <path d="M172.531 122.611V122.408L173.365 121.927V122.129L172.531 122.611Z" fill="#D9D9D9"/>
  <path d="M171.697 122.129V121.927L172.531 122.408V122.611L171.697 122.129Z" fill="#BBB8B8"/>
  <path d="M174.525 122.595L173.691 123.077L172.856 122.595L173.691 122.114L174.525 122.595Z" fill="#F8F9F8"/>
  <path d="M173.69 123.279V123.077L174.525 122.595V122.798L173.69 123.279Z" fill="#D9D9D9"/>
  <path d="M172.856 122.798V122.595L173.691 123.077V123.279L172.856 122.798Z" fill="#BBB8B8"/>
  <path d="M175.686 123.264L174.851 123.746L174.017 123.264L174.851 122.782L175.686 123.264Z" fill="#F8F9F8"/>
  <path d="M174.851 123.948V123.746L175.685 123.264V123.466L174.851 123.948Z" fill="#D9D9D9"/>
  <path d="M174.017 123.466V123.264L174.851 123.746V123.948L174.017 123.466Z" fill="#BBB8B8"/>
  <path d="M176.845 123.932L176.011 124.414L175.177 123.932L176.011 123.451L176.845 123.932Z" fill="#F8F9F8"/>
  <path d="M176.011 124.617V124.414L176.845 123.932V124.135L176.011 124.617Z" fill="#D9D9D9"/>
  <path d="M175.177 124.135V123.932L176.011 124.414V124.617L175.177 124.135Z" fill="#BBB8B8"/>
  <path d="M178.004 124.601L177.17 125.082L176.336 124.601L177.17 124.119L178.004 124.601Z" fill="#F8F9F8"/>
  <path d="M177.17 125.285V125.083L178.004 124.601V124.804L177.17 125.285Z" fill="#D9D9D9"/>
  <path d="M176.336 124.804V124.601L177.17 125.083V125.285L176.336 124.804Z" fill="#BBB8B8"/>
  <path d="M179.163 125.27L178.329 125.751L177.495 125.27L178.329 124.788L179.163 125.27Z" fill="#F8F9F8"/>
  <path d="M178.329 125.953V125.751L179.163 125.27V125.472L178.329 125.953Z" fill="#D9D9D9"/>
  <path d="M177.495 125.472V125.27L178.329 125.751V125.953L177.495 125.472Z" fill="#BBB8B8"/>
  <path d="M180.324 125.938L179.489 126.42L178.655 125.938L179.489 125.457L180.324 125.938Z" fill="#F8F9F8"/>
  <path d="M179.489 126.622V126.42L180.324 125.938V126.14L179.489 126.622Z" fill="#D9D9D9"/>
  <path d="M178.655 126.14V125.938L179.489 126.42V126.622L178.655 126.14Z" fill="#BBB8B8"/>
  <path d="M181.484 126.606L180.65 127.088L179.815 126.606L180.65 126.125L181.484 126.606Z" fill="#F8F9F8"/>
  <path d="M180.649 127.291V127.088L181.483 126.606V126.809L180.649 127.291Z" fill="#D9D9D9"/>
  <path d="M179.815 126.809V126.606L180.65 127.088V127.291L179.815 126.809Z" fill="#BBB8B8"/>
  <path d="M182.643 127.275L181.809 127.757L180.975 127.275L181.809 126.793L182.643 127.275Z" fill="#F8F9F8"/>
  <path d="M181.809 127.96V127.757L182.643 127.275V127.478L181.809 127.96Z" fill="#D9D9D9"/>
  <path d="M180.975 127.478V127.275L181.809 127.757V127.96L180.975 127.478Z" fill="#BBB8B8"/>
  <path d="M183.802 127.944L182.968 128.426L182.134 127.944L182.968 127.462L183.802 127.944Z" fill="#F8F9F8"/>
  <path d="M182.968 128.628V128.426L183.802 127.944V128.146L182.968 128.628Z" fill="#D9D9D9"/>
  <path d="M182.134 128.146V127.944L182.968 128.426V128.628L182.134 128.146Z" fill="#BBB8B8"/>
  <path d="M184.962 128.612L184.127 129.094L183.293 128.612L184.127 128.131L184.962 128.612Z" fill="#F8F9F8"/>
  <path d="M184.127 129.296V129.094L184.962 128.612V128.815L184.127 129.296Z" fill="#D9D9D9"/>
  <path d="M183.293 128.815V128.612L184.127 129.094V129.296L183.293 128.815Z" fill="#BBB8B8"/>
  <path d="M171.987 122.703L171.152 123.185L170.318 122.703L171.152 122.222L171.987 122.703Z" fill="#F8F9F8"/>
  <path d="M171.152 123.387V123.185L171.986 122.703V122.906L171.152 123.387Z" fill="#D9D9D9"/>
  <path d="M170.318 122.906V122.703L171.152 123.185V123.387L170.318 122.906Z" fill="#BBB8B8"/>
  <path d="M173.146 123.372L172.312 123.853L171.478 123.372L172.312 122.89L173.146 123.372Z" fill="#F8F9F8"/>
  <path d="M172.312 124.056V123.853L173.146 123.372V123.574L172.312 124.056Z" fill="#D9D9D9"/>
  <path d="M171.478 123.574V123.372L172.312 123.853V124.056L171.478 123.574Z" fill="#BBB8B8"/>
  <path d="M174.306 124.04L173.471 124.522L172.637 124.04L173.471 123.559L174.306 124.04Z" fill="#F8F9F8"/>
  <path d="M173.471 124.724V124.522L174.306 124.04V124.242L173.471 124.724Z" fill="#D9D9D9"/>
  <path d="M172.637 124.242V124.04L173.471 124.522V124.724L172.637 124.242Z" fill="#BBB8B8"/>
  <path d="M175.466 124.709L174.631 125.191L173.797 124.709L174.631 124.227L175.466 124.709Z" fill="#F8F9F8"/>
  <path d="M174.631 125.393V125.191L175.466 124.709V124.911L174.631 125.393Z" fill="#D9D9D9"/>
  <path d="M173.797 124.911V124.709L174.631 125.191V125.393L173.797 124.911Z" fill="#BBB8B8"/>
  <path d="M176.625 125.377L175.791 125.859L174.957 125.377L175.791 124.895L176.625 125.377Z" fill="#F8F9F8"/>
  <path d="M175.791 126.062V125.859L176.625 125.377V125.58L175.791 126.062Z" fill="#D9D9D9"/>
  <path d="M174.957 125.58V125.377L175.791 125.859V126.062L174.957 125.58Z" fill="#BBB8B8"/>
  <path d="M177.784 126.046L176.95 126.528L176.116 126.046L176.95 125.564L177.784 126.046Z" fill="#F8F9F8"/>
  <path d="M176.95 126.73V126.528L177.784 126.046V126.249L176.95 126.73Z" fill="#D9D9D9"/>
  <path d="M176.116 126.249V126.046L176.95 126.528V126.73L176.116 126.249Z" fill="#BBB8B8"/>
  <path d="M178.944 126.715L178.109 127.196L177.275 126.715L178.109 126.233L178.944 126.715Z" fill="#F8F9F8"/>
  <path d="M178.109 127.398V127.196L178.943 126.715V126.917L178.109 127.398Z" fill="#D9D9D9"/>
  <path d="M177.275 126.917V126.715L178.109 127.196V127.398L177.275 126.917Z" fill="#BBB8B8"/>
  <path d="M180.104 127.384L179.27 127.864L178.436 127.384L179.27 126.902L180.104 127.384Z" fill="#F8F9F8"/>
  <path d="M179.27 128.067V127.864L180.104 127.384V127.586L179.27 128.067Z" fill="#D9D9D9"/>
  <path d="M178.436 127.586V127.384L179.27 127.864V128.067L178.436 127.586Z" fill="#BBB8B8"/>
  <path d="M181.264 128.051L180.43 128.533L179.595 128.051L180.43 127.57L181.264 128.051Z" fill="#F8F9F8"/>
  <path d="M180.43 128.736V128.533L181.264 128.051V128.254L180.43 128.736Z" fill="#D9D9D9"/>
  <path d="M179.595 128.254V128.051L180.43 128.533V128.736L179.595 128.254Z" fill="#BBB8B8"/>
  <path d="M183.583 129.389L182.748 129.871L180.755 128.72L181.589 128.239L183.583 129.389Z" fill="#F8F9F8"/>
  <path d="M182.748 130.073V129.871L183.582 129.389V129.591L182.748 130.073Z" fill="#D9D9D9"/>
  <path d="M180.755 128.923V128.72L182.748 129.871V130.073L180.755 128.923Z" fill="#BBB8B8"/>
  <path d="M170.606 123.48L169.772 123.961L168.938 123.48L169.772 122.998L170.606 123.48Z" fill="#F8F9F8"/>
  <path d="M169.772 124.164V123.961L170.607 123.48V123.682L169.772 124.164Z" fill="#D9D9D9"/>
  <path d="M168.938 123.682V123.48L169.772 123.961V124.164L168.938 123.682Z" fill="#BBB8B8"/>
  <path d="M171.766 124.148L170.932 124.629L170.098 124.148L170.932 123.666L171.766 124.148Z" fill="#F8F9F8"/>
  <path d="M170.932 124.832V124.629L171.766 124.148V124.351L170.932 124.832Z" fill="#D9D9D9"/>
  <path d="M170.098 124.351V124.148L170.932 124.629V124.832L170.098 124.351Z" fill="#BBB8B8"/>
  <path d="M172.925 124.817L172.091 125.298L171.257 124.817L172.091 124.335L172.925 124.817Z" fill="#F8F9F8"/>
  <path d="M172.091 125.501V125.298L172.925 124.817V125.02L172.091 125.501Z" fill="#D9D9D9"/>
  <path d="M171.257 125.02V124.817L172.091 125.298V125.501L171.257 125.02Z" fill="#BBB8B8"/>
  <path d="M177.588 127.45L176.754 127.931L172.417 125.485L173.251 125.004L177.588 127.45Z" fill="#F8F9F8"/>
  <path d="M176.754 128.134V127.931L177.588 127.449V127.652L176.754 128.134Z" fill="#D9D9D9"/>
  <path d="M172.417 125.687V125.485L176.754 127.931V128.134L172.417 125.687Z" fill="#BBB8B8"/>
  <path d="M178.724 128.16L177.89 128.641L177.056 128.16L177.89 127.678L178.724 128.16Z" fill="#F8F9F8"/>
  <path d="M177.89 128.843V128.641L178.724 128.16V128.362L177.89 128.843Z" fill="#D9D9D9"/>
  <path d="M177.056 128.362V128.16L177.89 128.641V128.843L177.056 128.362Z" fill="#BBB8B8"/>
  <path d="M179.884 128.828L179.049 129.31L178.215 128.828L179.049 128.347L179.884 128.828Z" fill="#F8F9F8"/>
  <path d="M179.049 129.512V129.31L179.884 128.828V129.031L179.049 129.512Z" fill="#D9D9D9"/>
  <path d="M178.215 129.031V128.828L179.049 129.31V129.512L178.215 129.031Z" fill="#BBB8B8"/>
  <path d="M181.043 129.497L180.209 129.978L179.375 129.497L180.209 129.015L181.043 129.497Z" fill="#F8F9F8"/>
  <path d="M180.209 130.181V129.978L181.043 129.497V129.699L180.209 130.181Z" fill="#D9D9D9"/>
  <path d="M179.375 129.699V129.497L180.209 129.978V130.181L179.375 129.699Z" fill="#BBB8B8"/>
  <path d="M182.202 130.165L181.368 130.647L180.534 130.165L181.368 129.684L182.202 130.165Z" fill="#F8F9F8"/>
  <path d="M181.368 130.849V130.647L182.202 130.165V130.367L181.368 130.849Z" fill="#D9D9D9"/>
  <path d="M180.534 130.367V130.165L181.368 130.647V130.849L180.534 130.367Z" fill="#BBB8B8"/>
  <path d="M172.418 125.989V126.143L176.512 128.507L176.644 128.429L172.418 125.989Z" fill="#BBB8B8"/>
  <path d="M170.092 127.332L170.22 127.412L172.418 126.143V125.989L170.092 127.332Z" fill="#D9D9D9"/>
  <path d="M172.418 126.143L170.22 127.412L174.314 129.776L176.512 128.507L172.418 126.143Z" fill="#A3A3A3"/>
  <path d="M189.981 127.92L174.838 119.083C174.688 119.009 174.567 118.827 174.567 118.677V108.463C174.567 108.314 174.688 108.254 174.838 108.328L189.981 117.166C190.131 117.24 190.252 117.422 190.252 117.571V127.786C190.252 127.934 190.131 127.994 189.981 127.92Z" fill="url(#paint55_linear_99_9828)"/>
  <path d="M190.264 117.024L175.121 108.187C175.046 108.149 174.979 108.146 174.93 108.17L174.646 108.311C174.695 108.287 174.763 108.29 174.837 108.328L189.981 117.166C190.13 117.24 190.251 117.422 190.251 117.571V127.786C190.251 127.86 190.221 127.913 190.173 127.937L190.456 127.796C190.505 127.771 190.535 127.719 190.535 127.644V117.43C190.535 117.28 190.414 117.098 190.264 117.024Z" fill="url(#paint56_linear_99_9828)"/>
  <path d="M175.022 109.268V118.343L189.796 126.979V117.904L175.022 109.268Z" fill="#281B29"/>
  <path opacity="0.2" d="M183.708 123.355L186.381 124.898L184.283 114.779L181.611 113.237L183.708 123.355Z" fill="white"/>
  <path opacity="0.2" d="M180.168 121.31L181.962 122.347L179.866 112.229L178.071 111.192L180.168 121.31Z" fill="white"/>
  <path d="M161.717 118.166L160.127 117.242L160.104 109.108L161.694 110.032L161.717 118.166Z" fill="#FE9381"/>
  <path d="M161.694 110.032L160.104 109.108L165.825 105.805L167.414 106.729L161.694 110.032Z" fill="white"/>
  <path d="M167.414 106.729L167.437 114.863L161.717 118.166L161.693 110.032L167.414 106.729Z" fill="#E86C65"/>
  <path d="M164.816 119.346L163.227 118.423L163.204 110.289L164.793 111.212L164.816 119.346Z" fill="#4C3342"/>
  <path d="M164.793 111.212L163.204 110.288L168.925 106.985L170.514 107.909L164.793 111.212Z" fill="white"/>
  <path d="M170.514 107.909L170.537 116.044L164.816 119.346L164.793 111.212L170.514 107.909Z" fill="#281B29"/>
  <path d="M161.714 119.179L154.493 123.348L149.79 120.634L157.012 116.464L161.714 119.179Z" fill="white"/>
  <path d="M164.717 121.668L157.495 125.838L152.793 123.123L160.015 118.953L164.717 121.668Z" fill="white"/>
  <path d="M195.249 136.556L187.347 141.118L182.202 138.148L190.105 133.586L195.249 136.556Z" fill="white"/>
  <path d="M194.928 133.398L192.719 132.122C192.602 132.054 192.602 131.944 192.719 131.876L197.182 129.3C197.299 129.232 197.49 129.232 197.607 129.3L199.816 130.575C199.933 130.643 199.933 130.754 199.816 130.82L195.353 133.397C195.236 133.465 195.045 133.465 194.928 133.398Z" fill="#F7F4EF"/>
  <path d="M199.816 130.821L195.353 133.398C195.236 133.465 195.045 133.465 194.928 133.398L192.719 132.122C192.66 132.088 192.631 132.044 192.631 131.999V132.295C192.631 132.339 192.66 132.383 192.719 132.417L194.928 133.693C195.045 133.761 195.236 133.761 195.353 133.693L199.816 131.117C199.875 131.083 199.904 131.038 199.904 130.994V130.699C199.904 130.743 199.875 130.787 199.816 130.821Z" fill="url(#paint57_linear_99_9828)"/>
  <path d="M193.74 132.367L193.851 132.302C193.902 132.272 193.986 132.272 194.038 132.302L194.49 132.564C194.507 132.573 194.518 132.585 194.524 132.597C194.536 132.572 194.525 132.543 194.49 132.523L194.038 132.261C193.987 132.232 193.903 132.232 193.851 132.261L193.74 132.326C193.705 132.346 193.694 132.375 193.706 132.4C193.712 132.388 193.723 132.376 193.74 132.367Z" fill="#3A3A3A"/>
  <path d="M193.74 132.434L194.192 132.695C194.243 132.724 194.328 132.724 194.379 132.695L194.491 132.63C194.507 132.621 194.518 132.609 194.524 132.597C194.518 132.585 194.507 132.573 194.491 132.563L194.038 132.301C193.987 132.271 193.903 132.271 193.851 132.301L193.74 132.366C193.723 132.376 193.712 132.387 193.706 132.4C193.712 132.413 193.723 132.425 193.74 132.434Z" fill="#3A3A3A"/>
  <path d="M193.74 132.367L193.851 132.302C193.902 132.272 193.986 132.272 194.038 132.302L194.49 132.564C194.507 132.573 194.518 132.585 194.524 132.597C194.536 132.572 194.525 132.543 194.49 132.523L194.038 132.261C193.987 132.232 193.903 132.232 193.851 132.261L193.74 132.326C193.705 132.346 193.694 132.375 193.706 132.4C193.712 132.388 193.723 132.376 193.74 132.367Z" fill="url(#paint58_linear_99_9828)"/>
  <path d="M193.74 132.434L194.192 132.695C194.243 132.724 194.328 132.724 194.379 132.695L194.491 132.63C194.507 132.621 194.518 132.609 194.524 132.597C194.518 132.585 194.507 132.573 194.491 132.563L194.038 132.301C193.987 132.271 193.903 132.271 193.851 132.301L193.74 132.366C193.723 132.376 193.712 132.387 193.706 132.4C193.712 132.413 193.723 132.425 193.74 132.434Z" fill="#A3A3A3"/>
  <path d="M198.442 131.879L198.114 132.069C198.083 132.087 198.057 132.076 198.057 132.044C198.057 132.012 198.083 131.971 198.114 131.952L198.442 131.763C198.474 131.745 198.5 131.755 198.5 131.787C198.5 131.82 198.474 131.861 198.442 131.879Z" fill="#CBCACA"/>
  <path d="M198.057 132.044C198.057 132.012 198.083 131.971 198.114 131.952L198.442 131.763C198.459 131.753 198.475 131.751 198.486 131.757L198.43 131.726C198.42 131.72 198.404 131.721 198.386 131.731L198.059 131.921C198.027 131.939 198.001 131.98 198.001 132.012C198.001 132.027 198.006 132.037 198.015 132.042L198.071 132.073C198.062 132.069 198.057 132.059 198.057 132.044Z" fill="#F7F4EF"/>
  <path d="M199.123 131.487L198.795 131.675C198.764 131.694 198.737 131.683 198.737 131.651C198.737 131.619 198.764 131.578 198.795 131.559L199.123 131.37C199.154 131.352 199.181 131.362 199.181 131.394C199.181 131.427 199.154 131.468 199.123 131.487Z" fill="#CBCACA"/>
  <path d="M198.737 131.651C198.737 131.62 198.764 131.579 198.795 131.56L199.123 131.37C199.14 131.361 199.156 131.359 199.166 131.365L199.111 131.334C199.1 131.328 199.084 131.328 199.067 131.339L198.74 131.528C198.708 131.546 198.682 131.588 198.682 131.619C198.682 131.633 198.687 131.644 198.696 131.648L198.752 131.68C198.743 131.676 198.737 131.666 198.737 131.651Z" fill="#F7F4EF"/>
  <path d="M199.112 130.299C199.137 130.314 199.137 130.337 199.112 130.352C199.086 130.367 199.045 130.367 199.019 130.352C198.994 130.337 198.994 130.314 199.019 130.299C199.045 130.284 199.086 130.284 199.112 130.299Z" fill="#3A3A3A"/>
  <path d="M199.065 130.335C199.075 130.335 199.083 130.331 199.083 130.326C199.083 130.32 199.075 130.316 199.065 130.316C199.056 130.316 199.048 130.32 199.048 130.326C199.048 130.331 199.056 130.335 199.065 130.335Z" fill="#3A3A3A"/>
  <path d="M198.93 130.169C198.967 130.191 198.967 130.226 198.93 130.247C198.892 130.269 198.831 130.269 198.794 130.247C198.756 130.225 198.756 130.19 198.794 130.169C198.831 130.147 198.892 130.147 198.93 130.169Z" fill="#3A3A3A"/>
  <path d="M198.877 130.2C198.885 130.204 198.885 130.212 198.877 130.216C198.868 130.221 198.855 130.221 198.847 130.216C198.839 130.212 198.839 130.204 198.847 130.2C198.855 130.194 198.868 130.194 198.877 130.2Z" fill="#3A3A3A"/>
  <path d="M198.482 129.913C198.491 129.918 198.491 129.928 198.482 129.933C198.472 129.938 198.456 129.938 198.447 129.933C198.437 129.928 198.437 129.918 198.447 129.913C198.457 129.908 198.472 129.908 198.482 129.913Z" fill="#3A3A3A"/>
  <path d="M198.604 130.12L198.106 129.833C198.09 129.823 198.09 129.808 198.106 129.799C198.123 129.789 198.15 129.789 198.166 129.799L198.664 130.086C198.68 130.095 198.68 130.11 198.664 130.12C198.647 130.13 198.62 130.13 198.604 130.12Z" fill="#3A3A3A"/>
  <path d="M199.536 130.748L195.715 132.952L193.435 131.635L197.256 129.431L199.536 130.748Z" fill="#281B29"/>
  <defs>
    <linearGradient id="paint0_linear_99_9828" x1="77.0362" y1="82.184" x2="77.3622" y2="81.5947" gradientUnits="userSpaceOnUse">
      <stop stop-color="#4C3342"/>
      <stop offset="1" stop-color="#705C68"/>
    </linearGradient>
    <linearGradient id="paint1_linear_99_9828" x1="81.2508" y1="72.2261" x2="81.5768" y2="71.6368" gradientUnits="userSpaceOnUse">
      <stop stop-color="#4C3342"/>
      <stop offset="1" stop-color="#705C68"/>
    </linearGradient>
    <linearGradient id="paint2_linear_99_9828" x1="33.9701" y1="64.8905" x2="47.0793" y2="87.0837" gradientUnits="userSpaceOnUse">
      <stop stop-color="#281B29"/>
      <stop offset="0.0045" stop-color="#352734"/>
      <stop offset="0.0141" stop-color="#4B3A47"/>
      <stop offset="0.0255" stop-color="#5C4A56"/>
      <stop offset="0.0395" stop-color="#675460"/>
      <stop offset="0.0593" stop-color="#6E5A66"/>
      <stop offset="0.1141" stop-color="#705C68"/>
      <stop offset="0.1588" stop-color="#614F5B"/>
      <stop offset="0.2519" stop-color="#483845"/>
      <stop offset="0.3489" stop-color="#362835"/>
      <stop offset="0.4514" stop-color="#2B1E2C"/>
      <stop offset="0.5689" stop-color="#281B29"/>
    </linearGradient>
    <linearGradient id="paint3_linear_99_9828" x1="40.7661" y1="79.0065" x2="40.9191" y2="78.2415" gradientUnits="userSpaceOnUse">
      <stop stop-color="#F6F7F9"/>
      <stop offset="1" stop-color="#CBCDD9"/>
    </linearGradient>
    <linearGradient id="paint4_linear_99_9828" x1="44.5417" y1="82.7902" x2="46.1175" y2="81.6351" gradientUnits="userSpaceOnUse">
      <stop stop-color="#F6F7F9"/>
      <stop offset="1" stop-color="#CBCDD9"/>
    </linearGradient>
    <linearGradient id="paint5_linear_99_9828" x1="47.0113" y1="87.313" x2="48.5718" y2="87.8433" gradientUnits="userSpaceOnUse">
      <stop stop-color="#F6F7F9"/>
      <stop offset="1" stop-color="#CBCDD9"/>
    </linearGradient>
    <linearGradient id="paint6_linear_99_9828" x1="35.6519" y1="82.5302" x2="34.693" y2="80.8303" gradientUnits="userSpaceOnUse">
      <stop stop-color="#F6F7F9"/>
      <stop offset="0.5178" stop-color="#E0E1E8"/>
      <stop offset="1" stop-color="#CBCDD9"/>
    </linearGradient>
    <linearGradient id="paint7_linear_99_9828" x1="31.1563" y1="86.0379" x2="28.8513" y2="86.0176" gradientUnits="userSpaceOnUse">
      <stop stop-color="#F6F7F9"/>
      <stop offset="0.7787" stop-color="#CBCDD9"/>
    </linearGradient>
    <linearGradient id="paint8_linear_99_9828" x1="41.9758" y1="90.1744" x2="43.118" y2="92.0306" gradientUnits="userSpaceOnUse">
      <stop stop-color="#F6F7F9"/>
      <stop offset="1" stop-color="#CBCDD9"/>
    </linearGradient>
    <linearGradient id="paint9_linear_99_9828" x1="34.0252" y1="89.3845" x2="31.5775" y2="91.0673" gradientUnits="userSpaceOnUse">
      <stop stop-color="#F6F7F9"/>
      <stop offset="1" stop-color="#CBCDD9"/>
    </linearGradient>
    <linearGradient id="paint10_linear_99_9828" x1="36.5068" y1="92.8314" x2="36.2621" y2="95.3199" gradientUnits="userSpaceOnUse">
      <stop stop-color="#F6F7F9"/>
      <stop offset="1" stop-color="#CBCDD9"/>
    </linearGradient>
    <linearGradient id="paint11_linear_99_9828" x1="58.0166" y1="68.5329" x2="58.1695" y2="67.768" gradientUnits="userSpaceOnUse">
      <stop stop-color="#F6F7F9"/>
      <stop offset="1" stop-color="#CBCDD9"/>
    </linearGradient>
    <linearGradient id="paint12_linear_99_9828" x1="61.7923" y1="72.3166" x2="63.368" y2="71.1616" gradientUnits="userSpaceOnUse">
      <stop stop-color="#F6F7F9"/>
      <stop offset="1" stop-color="#CBCDD9"/>
    </linearGradient>
    <linearGradient id="paint13_linear_99_9828" x1="64.2618" y1="76.8393" x2="65.8221" y2="77.3696" gradientUnits="userSpaceOnUse">
      <stop stop-color="#F6F7F9"/>
      <stop offset="1" stop-color="#CBCDD9"/>
    </linearGradient>
    <linearGradient id="paint14_linear_99_9828" x1="52.9015" y1="72.0567" x2="51.9427" y2="70.3567" gradientUnits="userSpaceOnUse">
      <stop stop-color="#F6F7F9"/>
      <stop offset="0.5178" stop-color="#E0E1E8"/>
      <stop offset="1" stop-color="#CBCDD9"/>
    </linearGradient>
    <linearGradient id="paint15_linear_99_9828" x1="48.406" y1="75.5644" x2="46.101" y2="75.544" gradientUnits="userSpaceOnUse">
      <stop stop-color="#F6F7F9"/>
      <stop offset="0.7787" stop-color="#CBCDD9"/>
    </linearGradient>
    <linearGradient id="paint16_linear_99_9828" x1="59.2264" y1="79.7011" x2="60.3686" y2="81.5573" gradientUnits="userSpaceOnUse">
      <stop stop-color="#F6F7F9"/>
      <stop offset="1" stop-color="#CBCDD9"/>
    </linearGradient>
    <linearGradient id="paint17_linear_99_9828" x1="51.2758" y1="78.9109" x2="48.8281" y2="80.5937" gradientUnits="userSpaceOnUse">
      <stop stop-color="#F6F7F9"/>
      <stop offset="1" stop-color="#CBCDD9"/>
    </linearGradient>
    <linearGradient id="paint18_linear_99_9828" x1="53.7574" y1="82.3578" x2="53.5127" y2="84.8463" gradientUnits="userSpaceOnUse">
      <stop stop-color="#F6F7F9"/>
      <stop offset="1" stop-color="#CBCDD9"/>
    </linearGradient>
    <linearGradient id="paint19_linear_99_9828" x1="30.3976" y1="109.009" x2="30.7236" y2="108.419" gradientUnits="userSpaceOnUse">
      <stop stop-color="#4C3342"/>
      <stop offset="1" stop-color="#705C68"/>
    </linearGradient>
    <linearGradient id="paint20_linear_99_9828" x1="27.0021" y1="103.444" x2="27.3281" y2="102.855" gradientUnits="userSpaceOnUse">
      <stop stop-color="#4C3342"/>
      <stop offset="1" stop-color="#705C68"/>
    </linearGradient>
    <linearGradient id="paint21_linear_99_9828" x1="125.956" y1="134.535" x2="125.118" y2="135.971" gradientUnits="userSpaceOnUse">
      <stop offset="0.002" stop-color="#F3D8C2"/>
      <stop offset="0.4704" stop-color="#CCA284"/>
      <stop offset="0.6623" stop-color="#B18371"/>
      <stop offset="0.797" stop-color="#9B6A62"/>
    </linearGradient>
    <linearGradient id="paint22_linear_99_9828" x1="137.796" y1="138.809" x2="138.57" y2="140.153" gradientUnits="userSpaceOnUse">
      <stop offset="0.002" stop-color="#F3D8C2"/>
      <stop offset="0.4961" stop-color="#F2D6C0"/>
      <stop offset="0.674" stop-color="#EED0B9"/>
      <stop offset="0.8009" stop-color="#E6C6AE"/>
      <stop offset="0.9027" stop-color="#DCB89D"/>
      <stop offset="0.9897" stop-color="#CEA587"/>
      <stop offset="1" stop-color="#CCA284"/>
    </linearGradient>
    <linearGradient id="paint23_linear_99_9828" x1="136.791" y1="149.478" x2="135.037" y2="149.478" gradientUnits="userSpaceOnUse">
      <stop stop-color="#CCA284"/>
      <stop offset="0.4683" stop-color="#B18371"/>
      <stop offset="0.797" stop-color="#9B6A62"/>
    </linearGradient>
    <linearGradient id="paint24_linear_99_9828" x1="139.785" y1="137.664" x2="140.555" y2="139.003" gradientUnits="userSpaceOnUse">
      <stop offset="0.002" stop-color="#F3D8C2"/>
      <stop offset="0.4961" stop-color="#F2D6C0"/>
      <stop offset="0.674" stop-color="#EED0B9"/>
      <stop offset="0.8009" stop-color="#E6C6AE"/>
      <stop offset="0.9027" stop-color="#DCB89D"/>
      <stop offset="0.9897" stop-color="#CEA587"/>
      <stop offset="1" stop-color="#CCA284"/>
    </linearGradient>
    <linearGradient id="paint25_linear_99_9828" x1="116.049" y1="128.844" x2="115.258" y2="130.201" gradientUnits="userSpaceOnUse">
      <stop offset="0.002" stop-color="#F3D8C2"/>
      <stop offset="0.4704" stop-color="#CCA284"/>
      <stop offset="0.6623" stop-color="#B18371"/>
      <stop offset="0.797" stop-color="#9B6A62"/>
    </linearGradient>
    <linearGradient id="paint26_linear_99_9828" x1="136.246" y1="140.543" x2="135.402" y2="141.992" gradientUnits="userSpaceOnUse">
      <stop offset="0.002" stop-color="#F3D8C2"/>
      <stop offset="0.4704" stop-color="#CCA284"/>
      <stop offset="0.6623" stop-color="#B18371"/>
      <stop offset="0.797" stop-color="#9B6A62"/>
    </linearGradient>
    <linearGradient id="paint27_linear_99_9828" x1="107.236" y1="155.669" x2="106.404" y2="157.095" gradientUnits="userSpaceOnUse">
      <stop offset="0.002" stop-color="#F3D8C2"/>
      <stop offset="0.4704" stop-color="#CCA284"/>
      <stop offset="0.6623" stop-color="#B18371"/>
      <stop offset="0.797" stop-color="#9B6A62"/>
    </linearGradient>
    <linearGradient id="paint28_linear_99_9828" x1="116.828" y1="163.928" x2="115.075" y2="163.928" gradientUnits="userSpaceOnUse">
      <stop stop-color="#CCA284"/>
      <stop offset="0.4683" stop-color="#B18371"/>
      <stop offset="0.797" stop-color="#9B6A62"/>
    </linearGradient>
    <linearGradient id="paint29_linear_99_9828" x1="124.888" y1="155.135" x2="125.672" y2="156.499" gradientUnits="userSpaceOnUse">
      <stop offset="0.002" stop-color="#F3D8C2"/>
      <stop offset="0.4961" stop-color="#F2D6C0"/>
      <stop offset="0.674" stop-color="#EED0B9"/>
      <stop offset="0.8009" stop-color="#E6C6AE"/>
      <stop offset="0.9027" stop-color="#DCB89D"/>
      <stop offset="0.9897" stop-color="#CEA587"/>
      <stop offset="1" stop-color="#CCA284"/>
    </linearGradient>
    <linearGradient id="paint30_linear_99_9828" x1="133.943" y1="149.924" x2="134.713" y2="151.264" gradientUnits="userSpaceOnUse">
      <stop offset="0.002" stop-color="#F3D8C2"/>
      <stop offset="0.4961" stop-color="#F2D6C0"/>
      <stop offset="0.674" stop-color="#EED0B9"/>
      <stop offset="0.8009" stop-color="#E6C6AE"/>
      <stop offset="0.9027" stop-color="#DCB89D"/>
      <stop offset="0.9897" stop-color="#CEA587"/>
      <stop offset="1" stop-color="#CCA284"/>
    </linearGradient>
    <linearGradient id="paint31_linear_99_9828" x1="98.5766" y1="150.694" x2="97.7852" y2="152.051" gradientUnits="userSpaceOnUse">
      <stop offset="0.002" stop-color="#F3D8C2"/>
      <stop offset="0.4704" stop-color="#CCA284"/>
      <stop offset="0.6623" stop-color="#B18371"/>
      <stop offset="0.797" stop-color="#9B6A62"/>
    </linearGradient>
    <linearGradient id="paint32_linear_99_9828" x1="116.284" y1="160.956" x2="115.439" y2="162.404" gradientUnits="userSpaceOnUse">
      <stop offset="0.002" stop-color="#F3D8C2"/>
      <stop offset="0.4704" stop-color="#CCA284"/>
      <stop offset="0.6623" stop-color="#B18371"/>
      <stop offset="0.797" stop-color="#9B6A62"/>
    </linearGradient>
    <linearGradient id="paint33_linear_99_9828" x1="101.514" y1="142.201" x2="100.107" y2="142.445" gradientUnits="userSpaceOnUse">
      <stop stop-color="#CCA284"/>
      <stop offset="0.4683" stop-color="#B18371"/>
      <stop offset="0.797" stop-color="#9B6A62"/>
    </linearGradient>
    <linearGradient id="paint34_linear_99_9828" x1="101.518" y1="142.224" x2="100.111" y2="142.467" gradientUnits="userSpaceOnUse">
      <stop stop-color="#CCA284"/>
      <stop offset="0.4683" stop-color="#B18371"/>
      <stop offset="0.797" stop-color="#9B6A62"/>
    </linearGradient>
    <linearGradient id="paint35_linear_99_9828" x1="101.505" y1="142.146" x2="100.098" y2="142.39" gradientUnits="userSpaceOnUse">
      <stop stop-color="#CCA284"/>
      <stop offset="0.4683" stop-color="#B18371"/>
      <stop offset="0.797" stop-color="#9B6A62"/>
    </linearGradient>
    <linearGradient id="paint36_linear_99_9828" x1="97.7341" y1="131.251" x2="97.2703" y2="132.692" gradientUnits="userSpaceOnUse">
      <stop offset="0.002" stop-color="#F3D8C2"/>
      <stop offset="0.4704" stop-color="#CCA284"/>
      <stop offset="0.6623" stop-color="#B18371"/>
      <stop offset="0.797" stop-color="#9B6A62"/>
    </linearGradient>
    <linearGradient id="paint37_linear_99_9828" x1="95.965" y1="130.709" x2="95.51" y2="132.123" gradientUnits="userSpaceOnUse">
      <stop offset="0.002" stop-color="#F3D8C2"/>
      <stop offset="0.4704" stop-color="#CCA284"/>
      <stop offset="0.6623" stop-color="#B18371"/>
      <stop offset="0.797" stop-color="#9B6A62"/>
    </linearGradient>
    <linearGradient id="paint38_linear_99_9828" x1="99.8424" y1="131.927" x2="99.3875" y2="133.341" gradientUnits="userSpaceOnUse">
      <stop offset="0.002" stop-color="#F3D8C2"/>
      <stop offset="0.4704" stop-color="#CCA284"/>
      <stop offset="0.5967" stop-color="#C69B80"/>
      <stop offset="0.7784" stop-color="#B58874"/>
      <stop offset="0.9871" stop-color="#9B6A62"/>
    </linearGradient>
    <linearGradient id="paint39_linear_99_9828" x1="108.457" y1="126.779" x2="109.054" y2="127.879" gradientUnits="userSpaceOnUse">
      <stop offset="0.002" stop-color="#F3D8C2"/>
      <stop offset="0.2331" stop-color="#F1D5BF"/>
      <stop offset="0.4325" stop-color="#EACCB4"/>
      <stop offset="0.62" stop-color="#DFBCA2"/>
      <stop offset="0.7993" stop-color="#CFA789"/>
      <stop offset="0.8323" stop-color="#CCA284"/>
    </linearGradient>
    <linearGradient id="paint40_linear_99_9828" x1="102.13" y1="148.292" x2="101.292" y2="149.728" gradientUnits="userSpaceOnUse">
      <stop offset="0.002" stop-color="#F3D8C2"/>
      <stop offset="0.4704" stop-color="#CCA284"/>
      <stop offset="0.6623" stop-color="#B18371"/>
      <stop offset="0.797" stop-color="#9B6A62"/>
    </linearGradient>
    <linearGradient id="paint41_linear_99_9828" x1="113.97" y1="152.565" x2="114.743" y2="153.909" gradientUnits="userSpaceOnUse">
      <stop offset="0.002" stop-color="#F3D8C2"/>
      <stop offset="0.4961" stop-color="#F2D6C0"/>
      <stop offset="0.674" stop-color="#EED0B9"/>
      <stop offset="0.8009" stop-color="#E6C6AE"/>
      <stop offset="0.9027" stop-color="#DCB89D"/>
      <stop offset="0.9897" stop-color="#CEA587"/>
      <stop offset="1" stop-color="#CCA284"/>
    </linearGradient>
    <linearGradient id="paint42_linear_99_9828" x1="112.964" y1="163.235" x2="111.211" y2="163.235" gradientUnits="userSpaceOnUse">
      <stop stop-color="#CCA284"/>
      <stop offset="0.4683" stop-color="#B18371"/>
      <stop offset="0.797" stop-color="#9B6A62"/>
    </linearGradient>
    <linearGradient id="paint43_linear_99_9828" x1="115.959" y1="151.42" x2="116.729" y2="152.76" gradientUnits="userSpaceOnUse">
      <stop offset="0.002" stop-color="#F3D8C2"/>
      <stop offset="0.4961" stop-color="#F2D6C0"/>
      <stop offset="0.674" stop-color="#EED0B9"/>
      <stop offset="0.8009" stop-color="#E6C6AE"/>
      <stop offset="0.9027" stop-color="#DCB89D"/>
      <stop offset="0.9897" stop-color="#CEA587"/>
      <stop offset="1" stop-color="#CCA284"/>
    </linearGradient>
    <linearGradient id="paint44_linear_99_9828" x1="92.2232" y1="142.601" x2="91.4318" y2="143.958" gradientUnits="userSpaceOnUse">
      <stop offset="0.002" stop-color="#F3D8C2"/>
      <stop offset="0.4704" stop-color="#CCA284"/>
      <stop offset="0.6623" stop-color="#B18371"/>
      <stop offset="0.797" stop-color="#9B6A62"/>
    </linearGradient>
    <linearGradient id="paint45_linear_99_9828" x1="112.42" y1="154.3" x2="111.575" y2="155.748" gradientUnits="userSpaceOnUse">
      <stop offset="0.002" stop-color="#F3D8C2"/>
      <stop offset="0.4704" stop-color="#CCA284"/>
      <stop offset="0.6623" stop-color="#B18371"/>
      <stop offset="0.797" stop-color="#9B6A62"/>
    </linearGradient>
    <linearGradient id="paint46_linear_99_9828" x1="162.738" y1="158.945" x2="160.921" y2="158.999" gradientUnits="userSpaceOnUse">
      <stop offset="0.203" stop-color="#9B6A62"/>
      <stop offset="0.5317" stop-color="#B18371"/>
      <stop offset="1" stop-color="#CCA284"/>
    </linearGradient>
    <linearGradient id="paint47_linear_99_9828" x1="173.545" y1="152.583" x2="172.198" y2="152.945" gradientUnits="userSpaceOnUse">
      <stop stop-color="#CCA284"/>
      <stop offset="0.4683" stop-color="#B18371"/>
      <stop offset="0.797" stop-color="#9B6A62"/>
    </linearGradient>
    <linearGradient id="paint48_linear_99_9828" x1="149.247" y1="152.733" x2="150.433" y2="153.08" gradientUnits="userSpaceOnUse">
      <stop stop-color="#CCA284"/>
      <stop offset="0.4683" stop-color="#B18371"/>
      <stop offset="0.797" stop-color="#9B6A62"/>
    </linearGradient>
    <linearGradient id="paint49_linear_99_9828" x1="157.016" y1="147.958" x2="163.089" y2="148.74" gradientUnits="userSpaceOnUse">
      <stop stop-color="#CCA284"/>
      <stop offset="0.4683" stop-color="#B18371"/>
      <stop offset="0.797" stop-color="#9B6A62"/>
    </linearGradient>
    <linearGradient id="paint50_linear_99_9828" x1="158.175" y1="148.021" x2="165.854" y2="146.739" gradientUnits="userSpaceOnUse">
      <stop stop-color="#4C3342"/>
      <stop offset="0.7027" stop-color="#2D1E2C"/>
      <stop offset="0.797" stop-color="#281B29"/>
    </linearGradient>
    <linearGradient id="paint51_linear_99_9828" x1="152.034" y1="134.592" x2="157.405" y2="141.596" gradientUnits="userSpaceOnUse">
      <stop offset="0.002" stop-color="#F3D8C2"/>
      <stop offset="0.1109" stop-color="#EED1BA"/>
      <stop offset="0.2784" stop-color="#E1BEA5"/>
      <stop offset="0.4704" stop-color="#CCA284"/>
      <stop offset="0.5868" stop-color="#C4997F"/>
      <stop offset="0.7733" stop-color="#B08271"/>
      <stop offset="0.9248" stop-color="#9B6A62"/>
    </linearGradient>
    <linearGradient id="paint52_linear_99_9828" x1="153.813" y1="135.09" x2="154.62" y2="137.697" gradientUnits="userSpaceOnUse">
      <stop stop-color="#705C68"/>
      <stop offset="1" stop-color="#281B29"/>
    </linearGradient>
    <linearGradient id="paint53_linear_99_9828" x1="164.81" y1="126.27" x2="190.417" y2="126.27" gradientUnits="userSpaceOnUse">
      <stop stop-color="#E0E1E8"/>
      <stop offset="0.1764" stop-color="#E8E9EE"/>
      <stop offset="0.5638" stop-color="#F2F3F6"/>
      <stop offset="1" stop-color="#F6F7F9"/>
    </linearGradient>
    <linearGradient id="paint54_linear_99_9828" x1="164.81" y1="129.306" x2="190.417" y2="129.306" gradientUnits="userSpaceOnUse">
      <stop stop-color="#E0E1E8"/>
      <stop offset="0.1764" stop-color="#E8E9EE"/>
      <stop offset="0.5638" stop-color="#F2F3F6"/>
      <stop offset="1" stop-color="#F6F7F9"/>
    </linearGradient>
    <linearGradient id="paint55_linear_99_9828" x1="181.172" y1="122.87" x2="183.525" y2="113.846" gradientUnits="userSpaceOnUse">
      <stop stop-color="#E0E1E8"/>
      <stop offset="0.1764" stop-color="#E8E9EE"/>
      <stop offset="0.5638" stop-color="#F2F3F6"/>
      <stop offset="1" stop-color="#F6F7F9"/>
    </linearGradient>
    <linearGradient id="paint56_linear_99_9828" x1="174.646" y1="118.045" x2="190.535" y2="118.045" gradientUnits="userSpaceOnUse">
      <stop stop-color="#E0E1E8"/>
      <stop offset="1" stop-color="#CBCDD9"/>
    </linearGradient>
    <linearGradient id="paint57_linear_99_9828" x1="194.041" y1="133.148" x2="196.492" y2="131.363" gradientUnits="userSpaceOnUse">
      <stop stop-color="#BBB8B8"/>
      <stop offset="0.0354" stop-color="#BDBABA"/>
      <stop offset="0.6547" stop-color="#DAD9D9"/>
      <stop offset="1" stop-color="#E5E5E5"/>
    </linearGradient>
    <linearGradient id="paint58_linear_99_9828" x1="193.701" y1="132.418" x2="194.529" y2="132.418" gradientUnits="userSpaceOnUse">
      <stop stop-color="#E2E2E2"/>
      <stop offset="0.4525" stop-color="#D8D6D6"/>
      <stop offset="1" stop-color="#C7C2C2"/>
    </linearGradient>
  </defs>
</svg>