<svg xmlns="http://www.w3.org/2000/svg" width="363" height="470" viewBox="0 0 363 470" fill="none">
  <path d="M299.211 233.79L327.618 250.188L362.5 228V469.067H0V0H20.6914L29.3524 5L20.6914 10L29.3524 15L20.6914 20L29.3524 25L20.6914 30L29.3524 35L20.6914 40L29.3524 45L20.6914 50L29.3524 55L20.6914 60L29.3524 65L20.6914 70L23.2897 71.5L20.6914 73L29.19 77.9062L29.3518 84.5965V94.5965V104.596V114.596V127.596C30.7375 141.462 40.7836 153.795 59.4902 164.594C63.5 164.594 87.1656 184.189 181.083 184.189C181.644 184.287 182.205 184.384 182.765 184.478L181.083 194.189L182.765 194.478L181.083 204.189L182.765 204.478L181.083 214.189L182.765 214.478L181.083 224.189L182.765 224.478L181.083 234.189L182.765 234.478L181.083 244.189C181.163 244.203 181.242 244.217 181.322 244.231C181.411 244.246 181.499 244.261 181.587 244.277L181.083 247.189C223.577 254.655 262.953 250.188 299.211 233.79Z" fill="white"/>
</svg>