<svg width="192" height="84" viewBox="0 0 192 84" fill="none" xmlns="http://www.w3.org/2000/svg">
<path d="M188.181 83.4407C188.394 83.6166 188.709 83.5867 188.885 83.3739L191.753 79.9055C191.928 79.6927 191.899 79.3775 191.686 79.2016C191.473 79.0256 191.158 79.0555 190.982 79.2684L188.433 82.3513L185.35 79.8028C185.137 79.6268 184.822 79.6567 184.646 79.8696C184.47 80.0824 184.5 80.3976 184.713 80.5735L188.181 83.4407ZM82.0448 24.0533C98.6613 22.5578 123.904 23.7325 145.62 32.0969C167.322 40.4556 185.426 55.9559 188.002 83.1025L188.998 83.0081C186.374 55.3547 167.895 39.6049 145.98 31.1637C124.079 22.7281 98.672 21.5528 81.9552 23.0573L82.0448 24.0533Z" fill="black"/>
<path d="M17.172 27.112C16.1453 27.112 15.2867 26.7667 14.596 26.076C13.9147 25.376 13.574 24.5173 13.574 23.5C13.574 22.4827 13.9147 21.6287 14.596 20.938C15.2867 20.238 16.1453 19.888 17.172 19.888C18.236 19.888 19.1273 20.2567 19.846 20.994L19.076 21.834C18.5347 21.2927 17.9 21.022 17.172 21.022C16.4907 21.022 15.926 21.26 15.478 21.736C15.0393 22.2027 14.82 22.7907 14.82 23.5C14.82 24.2093 15.0393 24.802 15.478 25.278C15.926 25.7447 16.4907 25.978 17.172 25.978C17.9 25.978 18.5347 25.7073 19.076 25.166L19.846 26.006C19.1273 26.7433 18.236 27.112 17.172 27.112ZM21.2824 27V17.06H22.4864V27H21.2824ZM24.591 27V20H25.795V27H24.591ZM25.795 18.474H24.591C24.4137 18.3247 24.325 18.11 24.325 17.83C24.325 17.5873 24.409 17.382 24.577 17.214C24.745 17.0367 24.9503 16.948 25.193 16.948C25.4357 16.948 25.641 17.0367 25.809 17.214C25.977 17.382 26.061 17.5873 26.061 17.83C26.061 18.11 25.9723 18.3247 25.795 18.474ZM31.0216 27.112C29.9949 27.112 29.1363 26.7667 28.4456 26.076C27.7643 25.376 27.4236 24.5173 27.4236 23.5C27.4236 22.4827 27.7643 21.6287 28.4456 20.938C29.1363 20.238 29.9949 19.888 31.0216 19.888C32.0856 19.888 32.9769 20.2567 33.6956 20.994L32.9256 21.834C32.3843 21.2927 31.7496 21.022 31.0216 21.022C30.3403 21.022 29.7756 21.26 29.3276 21.736C28.8889 22.2027 28.6696 22.7907 28.6696 23.5C28.6696 24.2093 28.8889 24.802 29.3276 25.278C29.7756 25.7447 30.3403 25.978 31.0216 25.978C31.7496 25.978 32.3843 25.7073 32.9256 25.166L33.6956 26.006C32.9769 26.7433 32.0856 27.112 31.0216 27.112ZM35.132 27V17.06H36.336V23.164L39.43 20H41.012L37.764 23.29L41.334 27H39.71L36.336 23.5V27H35.132ZM45.5637 27V17.06H46.7677V20.798C47.2623 20.1913 47.9857 19.888 48.9377 19.888C49.731 19.888 50.3797 20.1493 50.8837 20.672C51.3877 21.1853 51.6397 21.8713 51.6397 22.73V27H50.4357V22.8C50.4357 22.2773 50.277 21.8527 49.9597 21.526C49.6423 21.19 49.213 21.022 48.6717 21.022C47.6823 21.022 47.0477 21.5073 46.7677 22.478V27H45.5637ZM56.7794 27.112C55.7528 27.112 54.8941 26.7667 54.2034 26.076C53.5221 25.376 53.1814 24.5173 53.1814 23.5C53.1814 22.4827 53.5221 21.6287 54.2034 20.938C54.8848 20.238 55.7154 19.888 56.6954 19.888C57.7314 19.888 58.5574 20.252 59.1734 20.98C59.7988 21.6987 60.1114 22.6367 60.1114 23.794H54.4274C54.4834 24.4473 54.7354 24.9747 55.1834 25.376C55.6408 25.7773 56.1728 25.978 56.7794 25.978C57.5821 25.978 58.2634 25.698 58.8234 25.138L59.5934 25.978C58.8748 26.734 57.9368 27.112 56.7794 27.112ZM56.6254 20.994C56.1494 20.994 55.7061 21.1433 55.2954 21.442C54.8848 21.7313 54.6188 22.1653 54.4974 22.744H58.7534C58.6694 22.184 58.4314 21.75 58.0394 21.442C57.6474 21.134 57.1761 20.9847 56.6254 20.994ZM61.6281 27V20H62.8321V20.826C63.3175 20.2287 63.9615 19.93 64.7641 19.93C64.9415 19.93 65.1048 19.944 65.2541 19.972V21.218C65.0581 21.162 64.8341 21.134 64.5821 21.134C63.7421 21.134 63.1588 21.5027 62.8321 22.24V27H61.6281ZM69.4396 27.112C68.4129 27.112 67.5542 26.7667 66.8636 26.076C66.1822 25.376 65.8416 24.5173 65.8416 23.5C65.8416 22.4827 66.1822 21.6287 66.8636 20.938C67.5449 20.238 68.3756 19.888 69.3556 19.888C70.3916 19.888 71.2176 20.252 71.8336 20.98C72.4589 21.6987 72.7716 22.6367 72.7716 23.794H67.0876C67.1436 24.4473 67.3956 24.9747 67.8436 25.376C68.3009 25.7773 68.8329 25.978 69.4396 25.978C70.2422 25.978 70.9236 25.698 71.4836 25.138L72.2536 25.978C71.5349 26.734 70.5969 27.112 69.4396 27.112ZM69.2856 20.994C68.8096 20.994 68.3662 21.1433 67.9556 21.442C67.5449 21.7313 67.2789 22.1653 67.1576 22.744H71.4136C71.3296 22.184 71.0916 21.75 70.6996 21.442C70.3076 21.134 69.8362 20.9847 69.2856 20.994Z" fill="black"/>
<path d="M4.24087 19.3611L1.21743 16.3018M7.0443 17.8979L4.35594 13.7721M81.9495 14.4751L83.7834 10.1292M84.735 16.0533L87.8735 13.5235" stroke="black"/>
</svg>
