<svg xmlns="http://www.w3.org/2000/svg" width="234" height="198" viewBox="0 0 234 198" fill="none">
  <g clip-path="url(#clip0_94_4921)">
    <g opacity="0.6">
      <path d="M144.167 113.455L159.051 104.806C165.184 101.242 164.712 97.4178 157.642 93.3366L135.59 80.6045L82.4092 111.51L94.3583 118.41L114.259 106.845L116.368 108.062L104.88 124.484L117.761 131.921L128.563 114.719C134.059 116.728 139.257 116.308 144.167 113.455ZM138.759 92.6072L145.242 96.3504C146.699 97.1909 146.733 98.0196 145.338 98.8304L133.386 105.776C132.659 106.2 131.968 106.4 131.331 106.385C130.688 106.366 129.974 106.134 129.19 105.681L122.705 101.938L138.759 92.6072Z" fill="#D6D9E6"/>
      <path d="M205.865 121.177L166.929 133.573L188.194 110.976L175.066 103.396L121.885 134.302L132.487 140.422L168.106 119.723L150.926 137.703L159.844 142.852L190.916 132.793L155.211 153.542L165.819 159.667L219 128.76L205.865 121.177Z" fill="#D6D9E6"/>
      <path d="M94.5791 97.2261L82.4567 90.2272L74.3433 94.9425C73.563 95.3955 72.8514 95.6158 72.2085 95.5959C71.5703 95.582 70.8508 95.3459 70.0671 94.8923L66.6142 92.899C65.777 92.4155 65.3405 91.9837 65.3107 91.614C65.277 91.2417 65.6553 90.8296 66.4357 90.376L99.0471 71.4239C100.442 70.6138 101.894 70.6475 103.405 71.5198L106.857 73.5131C108.318 74.3576 108.35 75.1797 106.956 75.9898L98.5974 80.848L110.72 87.847L120.168 82.3559C126.299 78.7926 125.802 74.9528 118.678 70.8406L107.904 64.62C100.835 60.5389 94.2312 60.279 88.0999 63.841L53.3133 84.0568C47.182 87.6195 47.6543 91.444 54.7227 95.5252L65.4966 101.746C72.6199 105.858 79.2492 106.134 85.3818 102.571L94.5791 97.2261Z" fill="#D6D9E6"/>
    </g>
    <path d="M59.5458 86.0289C59.1894 86.1976 58.5975 86.0448 57.7708 85.568L54.1308 83.4662C53.2432 82.9544 52.6236 82.4061 52.2691 81.8281C51.9166 81.2494 51.7407 80.4829 51.7433 79.5313L51.8557 39.7694C51.8584 38.956 52.0429 38.4421 52.4099 38.2285L39.359 45.8134C38.992 46.0264 38.8075 46.5409 38.8048 47.3544L38.6924 87.1155C38.6898 88.0672 38.8657 88.8344 39.2182 89.413C39.572 89.991 40.1923 90.5386 41.0792 91.0512L44.7192 93.1522C45.5459 93.6304 46.1371 93.7818 46.4943 93.6132C46.5075 93.6066 46.5214 93.6 46.5346 93.5927L59.5855 86.0078C59.5729 86.0157 59.5591 86.0223 59.5458 86.0289Z" fill="#AB1C1C"/>
    <path d="M47.0596 82.0432L60.1111 74.4583L72.8882 81.8355L59.8373 89.4198L47.0596 82.0432Z" fill="#D12323"/>
    <path d="M59.8377 89.4197L59.8053 100.633C59.7948 104.086 58.9879 106.279 57.3809 107.213C61.7312 104.685 66.0815 102.157 70.4318 99.6282C72.0388 98.695 72.8457 96.502 72.8563 93.0478L72.8887 81.8354L59.8377 89.4197Z" fill="#AB1C1C"/>
    <path d="M48.6874 40.4973C56.1996 44.8344 59.9467 50.7448 59.9249 58.2166L59.8925 69.7398L47.1154 62.3633L47.1438 52.1693C47.1491 50.471 46.3833 49.1735 44.8457 48.2859L41.2057 46.1849C39.6092 45.263 38.8096 45.6558 38.8043 47.3548L38.6919 87.1159C38.6893 88.0676 38.8652 88.8347 39.2177 89.4134C39.5715 89.9914 40.1918 90.539 41.0787 91.0516L44.7187 93.1526C45.5454 93.6308 46.1366 93.7822 46.4937 93.6136C46.8489 93.445 47.0288 92.8828 47.0314 91.9312L47.0599 82.0434L59.837 89.42L59.8046 100.633C59.7841 108.115 56.0151 109.681 48.5022 105.343L37.1483 98.7879C29.6917 94.4826 25.9776 88.5973 26.0001 81.1149L26.1205 38.6998C26.141 31.2273 29.8769 29.6374 37.3335 33.9428L48.6874 40.4973Z" fill="#FF3333"/>
    <path d="M59.8222 94.9437L59.8056 100.633C59.7851 108.114 56.0161 109.68 48.5033 105.343L43.1299 102.24L26.0098 77.6761L26.099 46.556L38.7565 64.7178L38.693 87.1154C38.6903 88.0671 38.8662 88.8343 39.2187 89.4129C39.5725 89.9909 40.1929 90.5385 41.0798 91.0511L44.7198 93.1521C45.5464 93.6303 46.1377 93.7817 46.4948 93.6131C46.8499 93.4445 47.0298 92.8823 47.0325 91.9306L47.0609 82.0429L53.3681 85.6849L59.8222 94.9437ZM48.6878 40.4975L37.3339 33.9423C35.7103 33.0051 34.2739 32.3643 33.0028 31.9854L44.0379 47.8192L44.8468 48.2854C46.3837 49.173 47.1495 50.4705 47.1449 52.1688V52.276L58.9274 69.1818L59.8936 69.74L59.926 58.2168C59.9478 50.745 56.2007 44.8346 48.6878 40.4975Z" fill="#FF5252"/>
    <path d="M61.7389 32.9141L50.3837 26.3582C46.3846 24.0495 43.4562 23.4364 41.5978 24.517C38.5523 26.2868 35.5062 28.0565 32.462 29.8256C31.1559 30.5849 29.8517 31.3427 28.5469 32.1013C30.4059 31.02 33.3337 31.6337 37.3341 33.9425L48.688 40.4977C56.2002 44.8348 59.9474 50.7452 59.9255 58.217L59.8931 69.7402L72.944 62.156L72.9764 50.6327C72.9983 43.1609 69.2498 37.2505 61.7389 32.9141Z" fill="#D12323"/>
    <path d="M79.0078 98.6462L92.0587 91.0613L92.1738 115.398L79.1229 122.982L79.0078 98.6462Z" fill="#FF780A"/>
    <path d="M93.7412 106.744L106.793 99.1602L116.841 129.639L103.79 137.224L93.7412 106.744Z" fill="#FF8C00"/>
    <path d="M100.695 85.1766C100.344 85.3479 99.7477 85.1885 98.9197 84.7103L92.088 80.7661L79.0371 88.3504L85.8688 92.2953C86.6968 92.7734 87.292 92.9321 87.6451 92.7609C87.6603 92.7536 87.6775 92.7456 87.6927 92.7364L100.744 85.1515C100.728 85.1607 100.711 85.1687 100.695 85.1766Z" fill="#FF9D00"/>
    <path d="M79.0927 68.7727L92.1436 61.1877L92.088 80.7661L79.0371 88.3503L79.0927 68.7727Z" fill="#FF780A"/>
    <path d="M93.7416 106.744L103.789 137.224L90.2153 129.386L81.229 99.928L79.0076 98.6456L79.1226 122.982L66.5234 115.708V50.7949L89.7722 64.2182C97.2242 68.5209 100.943 74.4141 100.92 81.8859L100.869 100.037C100.852 106.02 98.4742 108.253 93.7416 106.744ZM88.1863 91.183L88.228 76.6031C88.232 74.9054 87.4661 73.6072 85.9252 72.7171L79.0936 68.7728L79.038 88.3505L85.8697 92.2954C86.6977 92.7736 87.2929 92.9323 87.646 92.761C88.0038 92.5943 88.1837 92.0659 88.1863 91.183Z" fill="#FFCE0A"/>
    <path d="M66.5234 104.561L79.1213 122.636L79.1226 122.982L66.5234 115.708V104.561ZM93.7416 106.744L101.495 130.26L81.9102 102.16L81.2297 99.9285L79.7661 99.0846L66.5241 80.083V50.7961L82.8949 60.248L100.91 86.0972L100.87 100.038C100.852 106.019 98.4742 108.253 93.7416 106.744ZM88.2273 76.603C88.2313 74.9053 87.4655 73.6071 85.9245 72.717L79.0929 68.7727L79.0373 88.3504L85.869 92.2953C86.697 92.7735 87.2922 92.9322 87.6454 92.7609C88.0045 92.5942 88.1837 92.0658 88.1863 91.1829L88.2273 76.603Z" fill="#FFD83D"/>
    <path d="M102.824 56.634L79.5753 43.2114L66.5244 50.7957L89.7732 64.2189C97.2252 68.5216 100.944 74.4148 100.921 81.8867L100.87 100.038C100.861 103.528 100.047 105.742 98.4302 106.681C102.78 104.153 107.131 101.624 111.481 99.0968C113.098 98.157 113.912 95.9428 113.921 92.4529L113.972 74.3024C113.994 66.8299 110.275 60.9367 102.824 56.634Z" fill="#FF9D00"/>
    <path d="M119.239 108.446L132.29 100.862L132.367 138.407L119.315 145.992L119.239 108.446Z" fill="#305EAD"/>
    <path d="M143.197 122.177L156.249 114.592L148.906 134.098L135.855 141.682L143.197 122.177Z" fill="#305EAD"/>
    <path d="M108.14 74.8225L121.191 67.2383L135.031 75.2293L121.98 82.8142L108.14 74.8225Z" fill="#3B74D4"/>
    <path d="M121.979 82.8142L135.031 75.2292L144.242 117.312L131.191 124.897L121.979 82.8142Z" fill="#305EAD"/>
    <path d="M154.455 101.563L167.506 93.979V158.695L154.455 166.28V101.563Z" fill="#305EAD"/>
    <path d="M140.613 93.5716L153.665 85.9873L167.506 93.979L154.455 101.563L140.613 93.5716Z" fill="#3B74D4"/>
    <path d="M154.455 101.563V166.28L143.275 159.825L143.197 122.177L135.855 141.682L126.452 136.253L119.239 108.446L119.315 145.992L108.14 139.539V74.8225L121.98 82.8142L131.191 124.897L140.613 93.5715L154.455 101.563Z" fill="#4A85E8"/>
    <path d="M140.613 93.5715L154.455 101.563V128.981L137.347 104.433L140.613 93.5715ZM119.247 112.409L108.14 96.4709V139.539L119.315 145.992L119.247 112.409ZM154.455 162.927L143.248 146.846L143.275 159.825L154.455 166.28V162.927ZM135.855 141.682L137.186 138.147L120.872 114.739L126.452 136.253L135.855 141.682Z" fill="#5A93F2"/>
    <path d="M201.281 141.138L192.666 136.131L204.181 115.527L212.978 109L212.798 120.535L201.281 141.138Z" fill="#FFCE0A"/>
    <path d="M175.822 164.431L167.206 159.424L179.907 136.704L188.523 141.712L175.822 164.431Z" fill="#FFCE0A"/>
    <path d="M188.523 141.712L179.906 136.704L192.665 136.131L201.281 141.138L188.523 141.712Z" fill="#FF9D00"/>
    <path d="M164.63 164.934L156.015 159.926L167.206 159.424L175.822 164.431L164.63 164.934Z" fill="#FF9D00"/>
    <path d="M162.615 171.128L154 166.12L156.015 159.926L164.63 164.934L162.615 171.128Z" fill="#FFCE0A"/>
    <path d="M212.797 120.535L216.295 122.344L202.409 147.184L189.647 147.76L176.946 170.479L162.615 171.128L164.63 164.934L175.822 164.431L188.523 141.712L201.281 141.138L212.797 120.535Z" fill="#FF780A"/>
    <path d="M212.798 120.535L212.978 109L216.476 110.81L216.296 122.344L212.798 120.535Z" fill="#FF9D00"/>
    <path d="M220.707 144.073C221.763 143.463 223.468 143.462 224.518 144.073L232.554 148.743C233.603 149.352 233.597 150.341 232.542 150.95L215.63 160.715C214.574 161.324 212.869 161.322 211.821 160.713L203.784 156.043C202.734 155.432 202.74 154.446 203.794 153.837L220.707 144.073Z" fill="#7BB857"/>
    <path d="M203.784 156.044L211.821 160.714C212.869 161.323 214.574 161.324 215.63 160.715L232.542 150.95C233.073 150.644 233.339 150.241 233.337 149.839L233.349 152.667C233.35 153.07 233.085 153.472 232.554 153.779L215.641 163.543C214.587 164.152 212.881 164.151 211.833 163.542L203.796 158.871C203.274 158.568 203.013 158.172 203.012 157.775L203 154.947C203.001 155.344 203.262 155.74 203.784 156.044Z" fill="#5F9640"/>
    <path d="M203.012 157.206C203.013 157.603 203.274 157.999 203.796 158.303L211.833 162.973C212.881 163.583 214.586 163.584 215.641 162.974L232.554 153.21C233.076 152.908 233.341 152.513 233.347 152.118L233.349 152.668C233.35 153.07 233.085 153.473 232.554 153.779L215.641 163.543C214.587 164.153 212.881 164.152 211.833 163.542L203.796 158.872C203.274 158.568 203.013 158.172 203.012 157.775V157.206Z" fill="#47702F"/>
    <path opacity="0.7" d="M203.784 156.044L211.821 160.714C212.869 161.323 214.574 161.324 215.629 160.715L232.542 150.95C233.073 150.644 233.338 150.241 233.337 149.839L233.338 150.226C233.286 150.583 233.025 150.931 232.554 151.204L215.641 160.968C214.586 161.577 212.881 161.576 211.833 160.967L203.796 156.296C203.274 155.993 203.013 155.597 203.011 155.2L203.011 155.082C203.064 155.432 203.321 155.774 203.784 156.044Z" fill="#9AD479"/>
    <path d="M205.083 155.293L213.12 159.964C213.454 160.158 214.003 160.159 214.339 159.965L231.252 150.2C231.588 150.006 231.588 149.689 231.253 149.494L223.217 144.824C222.882 144.629 222.334 144.628 221.997 144.823L205.085 154.587C204.748 154.782 204.748 155.099 205.083 155.293ZM214.552 150.293C216.563 149.132 219.811 149.131 221.808 150.291C223.807 151.453 223.795 153.335 221.784 154.495C219.775 155.656 216.528 155.656 214.529 154.494C212.532 153.333 212.542 151.453 214.552 150.293Z" fill="#9AD479"/>
    <path d="M215.805 151.584L215.305 151.293L216.285 150.728L216.785 151.018C217.328 150.731 217.826 150.723 218.286 150.991L219.061 151.441C219.298 151.578 219.423 151.719 219.432 151.862C219.436 152.005 219.293 152.16 219.003 152.328L218.436 152.655C218.337 152.712 218.332 152.766 218.419 152.815L218.951 153.125C219.037 153.175 219.13 153.172 219.229 153.115L219.399 153.017C219.497 152.96 219.502 152.906 219.416 152.856L219.1 152.672L220.132 152.076L220.583 152.339C221.041 152.605 221.027 152.892 220.545 153.203L221.039 153.489L220.058 154.055L219.565 153.769C219.022 154.058 218.519 154.069 218.054 153.798L217.282 153.35C217.047 153.213 216.929 153.074 216.932 152.932C216.936 152.79 217.084 152.635 217.374 152.468L217.928 152.148C218.026 152.091 218.031 152.037 217.948 151.988L217.39 151.664C217.303 151.614 217.213 151.618 217.114 151.675L216.944 151.773C216.846 151.83 216.839 151.883 216.924 151.932L217.24 152.116L216.209 152.712L215.758 152.45C215.302 152.186 215.315 151.896 215.805 151.584Z" fill="#9AD479"/>
    <path d="M220.707 140.993C221.763 140.383 223.468 140.382 224.518 140.993L232.554 145.663C233.603 146.272 233.597 147.261 232.542 147.87L215.63 157.635C214.574 158.244 212.869 158.242 211.821 157.633L203.784 152.963C202.734 152.352 202.74 151.366 203.794 150.757L220.707 140.993Z" fill="#7BB857"/>
    <path d="M203.784 152.964L211.821 157.634C212.869 158.243 214.574 158.244 215.63 157.635L232.542 147.871C233.073 147.564 233.339 147.161 233.337 146.759L233.349 149.588C233.35 149.99 233.085 150.393 232.554 150.7L215.641 160.464C214.587 161.073 212.881 161.072 211.833 160.462L203.796 155.792C203.274 155.489 203.013 155.092 203.012 154.695L203 151.867C203.001 152.264 203.262 152.66 203.784 152.964Z" fill="#5F9640"/>
    <path d="M203.012 154.126C203.013 154.523 203.274 154.919 203.796 155.223L211.833 159.893C212.881 160.503 214.586 160.504 215.641 159.894L232.554 150.13C233.076 149.828 233.341 149.434 233.347 149.038L233.349 149.588C233.35 149.99 233.085 150.393 232.554 150.7L215.641 160.464C214.587 161.073 212.881 161.072 211.833 160.462L203.796 155.792C203.274 155.489 203.013 155.092 203.012 154.695V154.126Z" fill="#47702F"/>
    <path opacity="0.7" d="M203.784 152.964L211.821 157.634C212.869 158.243 214.574 158.244 215.629 157.635L232.542 147.871C233.073 147.564 233.338 147.161 233.337 146.759L233.338 147.146C233.286 147.503 233.025 147.851 232.554 148.124L215.641 157.888C214.586 158.498 212.881 158.497 211.833 157.887L203.796 153.217C203.274 152.913 203.013 152.517 203.011 152.12L203.011 152.002C203.064 152.352 203.321 152.695 203.784 152.964Z" fill="#9AD479"/>
    <path d="M205.083 152.214L213.12 156.884C213.454 157.078 214.003 157.079 214.339 156.885L231.252 147.12C231.588 146.926 231.588 146.609 231.253 146.415L223.217 141.744C222.882 141.549 222.334 141.548 221.997 141.743L205.085 151.507C204.748 151.702 204.748 152.019 205.083 152.214ZM214.552 147.212C216.563 146.052 219.811 146.051 221.808 147.211C223.807 148.373 223.795 150.254 221.784 151.415C219.775 152.576 216.528 152.576 214.529 151.414C212.532 150.254 212.542 148.373 214.552 147.212Z" fill="#9AD479"/>
    <path d="M215.805 148.504L215.305 148.213L216.285 147.647L216.785 147.937C217.328 147.651 217.826 147.643 218.286 147.911L219.061 148.36C219.298 148.498 219.423 148.638 219.432 148.782C219.436 148.925 219.293 149.08 219.003 149.248L218.436 149.575C218.337 149.632 218.332 149.686 218.419 149.735L218.951 150.045C219.037 150.094 219.13 150.092 219.229 150.035L219.399 149.937C219.497 149.88 219.502 149.826 219.416 149.776L219.1 149.592L220.132 148.997L220.583 149.259C221.041 149.525 221.027 149.812 220.545 150.123L221.039 150.41L220.058 150.976L219.565 150.689C219.022 150.978 218.519 150.989 218.054 150.719L217.282 150.27C217.047 150.134 216.929 149.995 216.932 149.853C216.936 149.711 217.084 149.556 217.374 149.388L217.928 149.068C218.026 149.012 218.031 148.957 217.948 148.909L217.39 148.585C217.303 148.535 217.213 148.539 217.114 148.596L216.944 148.694C216.846 148.75 216.839 148.804 216.924 148.853L217.24 149.037L216.209 149.633L215.758 149.371C215.302 149.106 215.315 148.816 215.805 148.504Z" fill="#9AD479"/>
    <path d="M218.085 131.726C216.733 135.546 214.931 138.914 212.692 141.798C210.451 144.684 207.833 147.009 204.864 148.755C203.741 149.477 203.716 150.322 204.798 151.014L213.271 155.94C214.546 156.612 216.144 156.639 217.343 156.008C220.313 154.261 222.931 151.937 225.172 149.051C227.411 146.167 229.213 142.798 230.565 138.979C231.028 137.456 230.564 135.92 229.409 135.155L220.935 130.23C219.515 129.516 218.512 130.59 218.085 131.726Z" fill="#66A144"/>
    <path d="M228.849 136.976L220.374 132.051C219.774 131.794 219.513 132.343 219.447 132.517C218.096 136.337 216.294 139.706 214.055 142.59C211.814 145.477 209.197 147.8 206.226 149.547C205.729 149.902 206.054 150.183 206.217 150.288L214.691 155.213C215.129 155.421 215.553 155.423 215.982 155.217C218.952 153.471 221.57 151.146 223.811 148.26C226.051 145.377 227.853 142.007 229.204 138.188C229.342 137.655 229.226 137.259 228.849 136.976ZM222.745 147.64C219.87 150.955 214.457 149.598 214.084 146.337C213.692 142.912 218.704 139.271 221.958 141.683C223.616 142.912 224.328 145.599 222.745 147.64Z" fill="#9AD479"/>
    <path d="M221.132 144.8L220.318 144.327C219.636 143.947 219.252 144.344 218.946 144.745C218.826 144.906 218.705 145.065 218.583 145.222C218.558 145.254 218.534 145.286 218.509 145.317C218.418 145.421 218.359 145.438 218.256 145.388L217.668 145.047C217.558 144.97 217.593 144.9 217.651 144.818C217.675 144.787 217.7 144.755 217.725 144.724C217.746 144.696 217.767 144.668 217.789 144.641C217.878 144.537 217.94 144.519 218.04 144.568L218.373 144.761C218.643 144.406 218.907 144.044 219.165 143.674L218.689 143.398C218.181 143.129 217.802 143.234 217.333 143.774L216.809 143.469C216.684 143.638 216.556 143.804 216.427 143.97C216.297 144.139 216.166 144.305 216.032 144.469L216.557 144.774C216.161 145.337 216.195 145.677 216.681 145.983L217.497 146.458C218.191 146.846 218.596 146.527 218.93 146.126C219.059 145.968 219.185 145.808 219.311 145.646C219.335 145.616 219.359 145.585 219.383 145.554C219.474 145.447 219.533 145.43 219.638 145.479L220.202 145.807C220.264 145.85 220.317 145.904 220.219 146.039C220.195 146.071 220.171 146.101 220.148 146.132C220.126 146.159 220.104 146.187 220.082 146.214C219.993 146.317 219.935 146.333 219.832 146.284L219.496 146.088C219.22 146.438 218.937 146.778 218.65 147.111L219.125 147.387C219.64 147.661 220.058 147.57 220.524 147.079L221.043 147.381C221.177 147.216 221.309 147.05 221.438 146.882C221.568 146.717 221.695 146.55 221.82 146.381L221.3 146.079C221.679 145.497 221.629 145.114 221.132 144.8Z" fill="#9AD479"/>
    <path opacity="0.15" d="M220.921 153.473C219.792 154.418 218.601 155.268 217.343 156.008C216.447 156.479 215.327 156.583 214.286 156.324L207.676 146.838C209.511 145.413 211.188 143.736 212.692 141.799C212.709 141.778 212.724 141.755 212.74 141.734L220.921 153.473ZM221.684 130.665L220.935 130.23C219.515 129.516 218.512 130.59 218.085 131.726C217.61 133.069 217.076 134.353 216.489 135.583L225.535 148.562C227.047 146.534 228.355 144.28 229.446 141.803L221.684 130.665Z" fill="white"/>
    <path d="M36.3962 115.116L36.3822 120.37L18.2822 118.845L18.2972 113.591L36.3962 115.116Z" fill="#FF780A"/>
    <path d="M36.5755 113.855C36.57 113.983 36.5605 114.112 36.5468 114.242C36.5441 114.274 36.5423 114.305 36.5387 114.337C36.52 114.49 36.495 114.643 36.466 114.797C36.4455 114.904 36.4233 115.01 36.3969 115.117L36.3828 120.371C36.406 120.279 36.4264 120.186 36.4451 120.094C36.4478 120.08 36.4487 120.066 36.4514 120.052C36.4814 119.897 36.5064 119.742 36.5241 119.587C36.5277 119.56 36.5296 119.533 36.5323 119.507C36.5464 119.373 36.5555 119.24 36.5609 119.108C36.5618 119.086 36.5655 119.064 36.5655 119.043C36.5673 118.989 36.5682 118.936 36.5691 118.883C36.5736 117.131 36.5786 115.379 36.5832 113.628C36.5823 113.703 36.5782 113.779 36.5755 113.855Z" fill="#FF780A"/>
    <path d="M32.9219 126.746L32.9064 132L24.8242 122.487L24.8388 117.232L32.9219 126.746Z" fill="#305EAD"/>
    <path d="M31.1737 106.096C35.1288 108.379 37.2432 111.675 36.3959 115.116L18.2969 113.591L26.3827 123.103C23.1928 124.011 19.5109 124.388 15.7217 124.069C11.6699 123.727 8.1188 122.642 5.42276 121.085C1.46775 118.802 -0.646744 115.506 0.197871 112.065C1.6195 106.278 10.8775 102.269 20.873 103.112C24.9266 103.454 28.4768 104.54 31.1737 106.096Z" fill="#FFCE0A"/>
    <path d="M3.02767e-05 118.805L0.014114 113.551C0.00684455 116.441 2.04274 119.133 5.42347 121.085C8.11951 122.641 11.6706 123.727 15.7224 124.069C19.5116 124.388 23.1931 124.011 26.3835 123.103L26.3675 128.357C23.1776 129.265 19.4975 129.643 15.7074 129.323C11.6547 128.982 8.10452 127.896 5.40847 126.339C2.02774 124.387 -0.00905649 121.695 3.02767e-05 118.805Z" fill="#FF8C00"/>
    <path d="M42.939 118.758L42.924 124.012C42.0394 127.607 38.1339 130.512 32.9072 132L32.9222 126.746C38.148 125.258 42.054 122.352 42.939 118.758Z" fill="#3B74D4"/>
    <path d="M42.9388 118.758C42.0542 122.352 38.1478 125.258 32.922 126.746L24.8389 117.232L42.9388 118.758Z" fill="#4A85E8"/>
    <path d="M88 147.42V171.543L95.6059 175.962L95.6048 151.839L88 147.42Z" fill="#D12323"/>
    <path d="M95.6045 151.839L95.6056 175.962L103.26 171.543V147.42L95.6045 151.839Z" fill="#AB1C1C"/>
    <path d="M88 147.42L95.6048 151.839L103.26 147.42L95.6555 143L88 147.42Z" fill="#FF3333"/>
    <path d="M100.177 158.121V178.62L107.782 183.038V162.541L100.177 158.121Z" fill="#FF9D00"/>
    <path d="M107.781 162.541V183.038L115.436 178.619V158.121L107.781 162.541Z" fill="#FF780A"/>
    <path d="M100.177 158.121L107.782 162.541L115.436 158.121L107.832 153.703L100.177 158.121Z" fill="#FFCE0A"/>
    <path d="M112.351 155.867L112.352 185.695L119.956 190.115V160.287L112.351 155.867Z" fill="#3B74D4"/>
    <path d="M119.956 160.287V190.115L127.611 185.695V155.867L119.956 160.287Z" fill="#305EAD"/>
    <path d="M112.351 155.868L119.956 160.287L127.611 155.868L120.007 151.448L112.351 155.868Z" fill="#4A85E8"/>
    <path d="M124.527 166.961V192.771L132.133 197.191V171.38L124.527 166.961Z" fill="#7BB857"/>
    <path d="M132.133 171.38V197.191L139.789 192.771L139.788 166.961L132.133 171.38Z" fill="#66A144"/>
    <path d="M124.527 166.961L132.133 171.38L139.788 166.961L132.183 162.541L124.527 166.961Z" fill="#8DC86A"/>
    <path d="M31.124 4.83721L37.3972 8.48242C36.4135 7.91035 35.0561 7.98055 33.5544 8.82384L27.2812 5.17862C28.7829 4.33534 30.1407 4.26557 31.124 4.83721Z" fill="#FF780A"/>
    <path d="M12.8795 31.5457L6.60636 27.9005C5.61832 27.3263 5.00526 26.1054 5.00003 24.3691C4.99087 20.9079 7.4043 16.7019 10.4059 14.9216L16.68 18.5668C13.677 20.3476 11.2636 24.5536 11.2741 28.0148C11.2784 29.7506 11.8915 30.9719 12.8795 31.5457Z" fill="#FF9D00"/>
    <path d="M24.8445 0.571468C23.3049 -0.322831 21.1732 -0.197691 18.8212 1.16098C14.392 3.7183 10.7682 9.72724 10.4062 14.9221L16.6803 18.5673C17.0422 13.3733 20.6643 7.36396 25.0944 4.8062C27.4472 3.4484 29.5781 3.32282 31.1182 4.21712L24.8445 0.571468Z" fill="#FFCE0A"/>
    <path d="M25.0944 4.80619C29.5245 2.24931 33.1689 4.06233 33.5552 8.82422C36.5616 7.13591 38.9912 8.54603 39.0003 12.0072C39.0104 15.5007 36.5564 19.7525 33.5159 21.5079L16.792 31.163C13.755 32.9162 11.2836 31.5087 11.2744 28.0152C11.2644 24.554 13.6778 20.3481 16.6804 18.5673C17.0427 13.3729 20.6644 7.36352 25.0944 4.80619Z" fill="white"/>
    <path d="M26.4346 10.5828L30.4029 16.1587L28.8955 17.029V21.4696L24.0185 24.2837V19.8445L22.5107 20.7157L26.4346 10.5828Z" fill="#FF3333"/>
    <path d="M80.1686 148.211C81.1324 148.768 81.911 150.114 81.9099 151.222L81.8865 159.242C81.8831 160.35 81.0994 160.794 80.1355 160.237L50.7402 143.266C49.7763 142.71 48.9966 141.363 49 140.256L49.0222 132.235C49.0257 131.128 49.8105 130.684 50.7732 131.24L80.1686 148.211Z" fill="white"/>
    <path d="M56.1884 139.612L55.8202 139.365L55.4537 139.117L54.886 138.731L54.6665 138.002L54.5252 137.53L54.3827 137.057C54.3228 136.856 54.2436 136.728 54.1621 136.682C54.0817 136.635 54.0008 136.671 53.9381 136.801L53.7944 137.108L53.6519 137.417L53.4291 137.891L52.8602 137.62L52.4937 137.444L52.1272 137.267C51.8143 137.116 51.7533 137.299 51.9893 137.672L52.2652 138.11L52.9731 139.226L52.8426 139.787L52.7571 140.152L52.6727 140.516C52.6214 140.731 52.6841 140.906 52.8163 140.983C52.8745 141.016 52.9474 141.03 53.029 141.021L53.3464 140.983L53.6605 140.946L54.1501 140.89L54.6369 141.51L54.9498 141.909L55.265 142.312C55.3465 142.416 55.4189 142.484 55.4765 142.518C55.6098 142.595 55.6725 142.492 55.6247 142.219L55.5414 141.759L55.4599 141.298L55.3317 140.587L56.043 140.291L56.3212 140.173C56.5623 140.076 56.499 139.822 56.1884 139.612Z" fill="#FFCE0A"/>
    <path d="M61.8372 142.873L61.4696 142.628L61.1042 142.38L60.5354 141.994L60.3159 141.265L60.1746 140.792L60.0321 140.319C59.9711 140.118 59.893 139.99 59.8126 139.944C59.7311 139.897 59.6513 139.934 59.5886 140.063L59.445 140.371L59.3025 140.679L59.0785 141.154L58.5096 140.883L58.1443 140.707L57.7761 140.528C57.4643 140.378 57.401 140.561 57.637 140.934L57.9151 141.372L58.6242 142.488L58.4908 143.046L58.4082 143.415L58.3227 143.778C58.2725 143.993 58.3346 144.168 58.4674 144.245C58.5256 144.278 58.598 144.292 58.6801 144.283L58.993 144.243L59.3105 144.208L59.7978 144.15L60.2874 144.772L60.6003 145.17L60.9144 145.574C60.997 145.677 61.0689 145.745 61.127 145.779C61.2592 145.855 61.3231 145.753 61.2752 145.48L61.192 145.02L61.1088 144.557L60.9817 143.847L61.6941 143.552L61.9712 143.434C62.21 143.337 62.1501 143.084 61.8372 142.873Z" fill="#FFCE0A"/>
    <path d="M67.4869 146.136L67.1216 145.89L66.7551 145.642L66.1862 145.256L65.9668 144.527L65.8254 144.055L65.6818 143.58C65.6219 143.381 65.5416 143.252 65.4612 143.206C65.3808 143.159 65.301 143.196 65.2395 143.325L65.0959 143.634L64.9522 143.941L64.7276 144.414L64.1611 144.145L63.7929 143.968L63.4264 143.79C63.1157 143.64 63.0525 143.823 63.2884 144.195L63.5666 144.634L64.2734 145.748L64.1423 146.309L64.0568 146.676L63.9741 147.04C63.924 147.255 63.9861 147.43 64.1189 147.507C64.177 147.54 64.2494 147.555 64.3304 147.546L64.6444 147.506L64.9619 147.471L65.4492 147.413L65.936 148.033L66.2524 148.433L66.5676 148.836C66.6491 148.941 66.7215 149.008 66.779 149.042C66.9124 149.118 66.974 149.016 66.9261 148.743L66.8429 148.282L66.7591 147.819L66.632 147.109L67.3433 146.813L67.6226 146.696C67.8597 146.599 67.7999 146.345 67.4869 146.136Z" fill="#FFCE0A"/>
    <path d="M73.1376 149.397L72.7711 149.152L72.4029 148.903L71.8375 148.518L71.6146 147.786L71.4732 147.315L71.3319 146.842C71.2726 146.642 71.1928 146.514 71.1113 146.467C71.0309 146.421 70.9511 146.457 70.8896 146.587L70.7471 146.896L70.6 147.202L70.3783 147.676L69.8083 147.405L69.4424 147.231L69.077 147.052C68.763 146.901 68.7031 147.084 68.9379 147.457L69.2161 147.896L69.9229 149.01L69.7918 149.572L69.7074 149.938L69.6208 150.3C69.5718 150.516 69.6339 150.691 69.7656 150.767C69.8254 150.801 69.8967 150.815 69.9805 150.806L70.2968 150.768L70.6131 150.733L71.1005 150.675L71.5872 151.295L71.9036 151.695L72.2177 152.098C72.2992 152.201 72.3715 152.269 72.428 152.303C72.5602 152.379 72.6241 152.277 72.5739 152.004L72.4935 151.545L72.4109 151.082L72.2815 150.371L72.9928 150.075L73.2733 149.958C73.5104 149.861 73.4471 149.607 73.1376 149.397Z" fill="#FFCE0A"/>
    <path d="M78.7882 152.66L78.4188 152.414L78.0534 152.166L77.4846 151.779L77.2652 151.05L77.1238 150.577L76.9824 150.105C76.9215 149.905 76.8411 149.776 76.7607 149.73C76.6815 149.683 76.6017 149.72 76.5401 149.85L76.3942 150.156L76.2506 150.465L76.0277 150.94L75.4589 150.667L75.0924 150.493L74.7259 150.315C74.4129 150.164 74.352 150.347 74.5879 150.72L74.8638 151.159L75.5717 152.274L75.4412 152.834L75.3557 153.201L75.2702 153.563C75.2212 153.779 75.2822 153.954 75.4161 154.03C75.4754 154.064 75.5466 154.079 75.6287 154.069L75.9451 154.031L76.2591 153.994L76.7499 153.939L77.2355 154.559L77.5519 154.958L77.8648 155.36C77.9452 155.464 78.0175 155.533 78.0751 155.566C78.2085 155.642 78.2723 155.539 78.2233 155.268L78.1401 154.808L78.0586 154.345L77.9292 153.634L78.6428 153.34L78.9198 153.221C79.1598 153.123 79.0977 152.869 78.7882 152.66Z" fill="#FFCE0A"/>
    <path d="M198.305 80.5658L178.973 69.4038C178.155 68.9318 177.413 68.8879 176.878 69.1986C175.243 70.1482 175.537 69.9629 173.904 70.9131C174.44 70.6019 175.18 70.6452 175.998 71.1166L195.332 82.2792C196.959 83.2168 198.271 85.4951 198.266 87.3618L198.221 102.944C198.219 103.872 197.892 104.526 197.363 104.832L200.336 103.12C200.864 102.811 201.194 102.158 201.196 101.231L201.24 85.6484C201.245 83.7805 199.931 81.5035 198.305 80.5658Z" fill="#D12323"/>
    <path d="M195.332 82.2786L175.998 71.1159C174.373 70.1778 173.049 70.9324 173.044 72.7991L173 88.3825C172.994 90.2493 174.309 92.5263 175.933 93.4645L195.267 104.627C196.893 105.565 198.215 104.811 198.221 102.943L198.265 87.3611C198.271 85.4944 196.959 83.2168 195.332 82.2786Z" fill="#AB1C1C"/>
    <path d="M196.588 103.64C196.514 103.64 196.303 103.619 195.963 103.423L176.631 92.2602C175.433 91.5699 174.387 89.7591 174.391 88.3866L174.435 72.8037C174.435 72.7752 174.441 72.1038 174.678 72.1038C174.753 72.1038 174.963 72.1254 175.301 72.3204L194.637 83.4835C195.834 84.1744 196.879 85.9841 196.874 87.3572L196.831 102.939C196.831 102.969 196.825 103.64 196.588 103.64Z" fill="white"/>
    <path d="M195.332 82.2786L175.998 71.1159C174.373 70.1778 173.049 70.9324 173.045 72.7991L173.039 74.6624L180.874 85.3707C181.88 86.7455 183.204 87.9077 184.532 88.6749C185.86 89.4422 187.191 89.8121 188.201 89.6006L198.266 87.5036V87.3611C198.271 85.4944 196.959 83.2168 195.332 82.2786Z" fill="#FF3333"/>
  </g>
  <defs>
    <clipPath id="clip0_94_4921">
      <rect width="233.349" height="197.19" fill="white"/>
    </clipPath>
  </defs>
</svg>