<svg width="340" height="279" viewBox="0 0 340 279" fill="none" xmlns="http://www.w3.org/2000/svg">
<g clip-path="url(#clip0_42_302)">
<g filter="url(#filter0_iii_42_302)">
<path d="M308.618 273.122L280.212 256.723C243.953 273.122 204.577 277.588 162.083 270.122L169.011 230.124C202.268 234.391 227.787 231.391 245.57 221.125C253.422 216.592 257.348 212.059 257.348 207.526C257.348 202.993 254.346 198.993 248.341 195.527C242.798 192.327 235.87 190.86 227.556 191.127C219.473 191.26 207.695 192.994 192.221 196.327L172.129 200.726C119.705 212.326 75.8251 207.926 40.4905 187.527C21.7839 176.728 11.7378 164.395 10.3521 150.53C8.73552 136.531 15.4329 123.865 30.4444 112.532L1.6917 95.9332L30.4444 79.3343L59.197 95.9332C79.9821 87.1338 106.194 83.4674 137.834 84.9339L139.566 124.331C126.864 123.931 117.28 124.265 110.813 125.331C104.347 126.398 98.5732 128.398 93.4924 131.331C86.1021 135.597 82.407 139.997 82.407 144.53C82.407 148.796 85.2938 152.596 91.0675 155.929C97.072 159.396 104.693 160.996 113.931 160.729C123.169 160.196 136.564 157.929 154.115 153.929L173.168 149.73C222.129 139.064 263.583 143.53 297.532 163.129C317.394 174.595 328.248 187.127 330.096 200.726C331.943 214.325 324.784 227.391 308.618 239.924L337.37 256.523L308.618 273.122Z" fill="white"/>
</g>
</g>
<g clip-path="url(#clip1_42_302)">
<g filter="url(#filter1_d_42_302)">
<path d="M308.618 270.122L280.212 253.723C243.953 270.122 204.577 274.588 162.083 267.122L169.011 227.124C202.268 231.391 227.787 228.391 245.57 218.125C253.422 213.592 257.348 209.059 257.348 204.526C257.348 199.993 254.346 195.993 248.341 192.527C242.798 189.327 235.87 187.86 227.556 188.127C219.473 188.26 207.695 189.994 192.221 193.327L172.129 197.726C119.705 209.326 75.8251 204.926 40.4905 184.527C21.7839 173.728 11.7378 161.395 10.3521 147.53C8.73552 133.531 15.4329 120.865 30.4444 109.532L1.6917 92.9332L30.4444 76.3343L59.197 92.9332C79.9821 84.1338 106.194 80.4674 137.834 81.9339L139.566 121.331C126.864 120.931 117.28 121.265 110.813 122.331C104.347 123.398 98.5732 125.398 93.4924 128.331C86.1021 132.597 82.407 136.997 82.407 141.53C82.407 145.796 85.2938 149.596 91.0675 152.929C97.072 156.396 104.693 157.996 113.931 157.729C123.169 157.196 136.564 154.929 154.115 150.929L173.168 146.73C222.129 136.064 263.583 140.53 297.532 160.129C317.394 171.595 328.248 184.127 330.096 197.726C331.943 211.325 324.784 224.391 308.618 236.924L337.37 253.523L308.618 270.122Z" fill="#28EBBE"/>
</g>
</g>
<g clip-path="url(#clip2_42_302)">
<g filter="url(#filter2_d_42_302)">
<path d="M308.618 260.122L280.212 243.723C243.953 260.122 204.577 264.588 162.083 257.122L169.011 217.124C202.268 221.391 227.787 218.391 245.57 208.125C253.422 203.592 257.348 199.059 257.348 194.526C257.348 189.993 254.346 185.993 248.341 182.527C242.798 179.327 235.87 177.86 227.556 178.127C219.473 178.26 207.695 179.994 192.221 183.327L172.129 187.726C119.705 199.326 75.8251 194.926 40.4905 174.527C21.7839 163.728 11.7378 151.395 10.3521 137.53C8.73552 123.531 15.4329 110.865 30.4444 99.5321L1.6917 82.9332L30.4444 66.3343L59.197 82.9332C79.9821 74.1338 106.194 70.4674 137.834 71.9339L139.566 111.331C126.864 110.931 117.28 111.265 110.813 112.331C104.347 113.398 98.5732 115.398 93.4924 118.331C86.1021 122.597 82.407 126.997 82.407 131.53C82.407 135.796 85.2938 139.596 91.0675 142.929C97.072 146.396 104.693 147.996 113.931 147.729C123.169 147.196 136.564 144.929 154.115 140.929L173.168 136.73C222.129 126.064 263.583 130.53 297.532 150.129C317.394 161.595 328.248 174.127 330.096 187.726C331.943 201.325 324.784 214.391 308.618 226.924L337.37 243.523L308.618 260.122Z" fill="#28EBBE"/>
</g>
</g>
<g clip-path="url(#clip3_42_302)">
<g filter="url(#filter3_d_42_302)">
<path d="M308.618 250.122L280.212 233.723C243.953 250.122 204.577 254.588 162.083 247.122L169.011 207.124C202.268 211.391 227.787 208.391 245.57 198.125C253.422 193.592 257.348 189.059 257.348 184.526C257.348 179.993 254.346 175.993 248.341 172.527C242.798 169.327 235.87 167.86 227.556 168.127C219.473 168.26 207.695 169.994 192.221 173.327L172.129 177.726C119.705 189.326 75.8251 184.926 40.4905 164.527C21.7839 153.728 11.7378 141.395 10.3521 127.53C8.73552 113.531 15.4329 100.865 30.4444 89.5321L1.6917 72.9332L30.4444 56.3343L59.197 72.9332C79.9821 64.1338 106.194 60.4674 137.834 61.9339L139.566 101.331C126.864 100.931 117.28 101.265 110.813 102.331C104.347 103.398 98.5732 105.398 93.4924 108.331C86.1021 112.597 82.407 116.997 82.407 121.53C82.407 125.796 85.2938 129.596 91.0675 132.929C97.072 136.396 104.693 137.996 113.931 137.729C123.169 137.196 136.564 134.929 154.115 130.929L173.168 126.73C222.129 116.064 263.583 120.53 297.532 140.129C317.394 151.595 328.248 164.127 330.096 177.726C331.943 191.325 324.784 204.391 308.618 216.924L337.37 233.523L308.618 250.122Z" fill="#28EBBE"/>
</g>
</g>
<g clip-path="url(#clip4_42_302)">
<g filter="url(#filter4_d_42_302)">
<path d="M308.618 240.122L280.212 223.723C243.953 240.122 204.577 244.588 162.083 237.122L169.011 197.124C202.268 201.391 227.787 198.391 245.57 188.125C253.422 183.592 257.348 179.059 257.348 174.526C257.348 169.993 254.346 165.993 248.341 162.527C242.798 159.327 235.87 157.86 227.556 158.127C219.473 158.26 207.695 159.994 192.221 163.327L172.129 167.726C119.705 179.326 75.8251 174.926 40.4905 154.527C21.7839 143.728 11.7378 131.395 10.3521 117.53C8.73552 103.531 15.4329 90.8647 30.4444 79.5321L1.6917 62.9332L30.4444 46.3343L59.197 62.9332C79.9821 54.1338 106.194 50.4674 137.834 51.9339L139.566 91.3314C126.864 90.9314 117.28 91.2647 110.813 92.3313C104.347 93.3979 98.5732 95.3978 93.4924 98.3309C86.1021 102.597 82.407 106.997 82.407 111.53C82.407 115.796 85.2938 119.596 91.0675 122.929C97.072 126.396 104.693 127.996 113.931 127.729C123.169 127.196 136.564 124.929 154.115 120.929L173.168 116.73C222.129 106.064 263.583 110.53 297.532 130.129C317.394 141.595 328.248 154.127 330.096 167.726C331.943 181.325 324.784 194.391 308.618 206.924L337.37 223.523L308.618 240.122Z" fill="#28EBBE"/>
</g>
</g>
<g clip-path="url(#clip5_42_302)">
<g filter="url(#filter5_d_42_302)">
<path d="M308.618 230.122L280.212 213.723C243.953 230.122 204.577 234.588 162.083 227.122L169.011 187.124C202.268 191.391 227.787 188.391 245.57 178.125C253.422 173.592 257.348 169.059 257.348 164.526C257.348 159.993 254.346 155.993 248.341 152.527C242.798 149.327 235.87 147.86 227.556 148.127C219.473 148.26 207.695 149.994 192.221 153.327L172.129 157.726C119.705 169.326 75.8251 164.926 40.4905 144.527C21.7839 133.728 11.7378 121.395 10.3521 107.53C8.73552 93.5306 15.4329 80.8647 30.4444 69.5321L1.6917 52.9332L30.4444 36.3343L59.197 52.9332C79.9821 44.1338 106.194 40.4674 137.834 41.9339L139.566 81.3314C126.864 80.9314 117.28 81.2647 110.813 82.3313C104.347 83.3979 98.5732 85.3978 93.4924 88.3309C86.1021 92.5973 82.407 96.997 82.407 101.53C82.407 105.796 85.2938 109.596 91.0675 112.929C97.072 116.396 104.693 117.996 113.931 117.729C123.169 117.196 136.564 114.929 154.115 110.929L173.168 106.73C222.129 96.0637 263.583 100.53 297.532 120.129C317.394 131.595 328.248 144.127 330.096 157.726C331.943 171.325 324.784 184.391 308.618 196.924L337.37 213.523L308.618 230.122Z" fill="#28EBBE"/>
</g>
</g>
<g clip-path="url(#clip6_42_302)">
<g filter="url(#filter6_d_42_302)">
<path d="M308.618 220.122L280.212 203.723C243.953 220.122 204.577 224.588 162.083 217.122L169.011 177.124C202.268 181.391 227.787 178.391 245.57 168.125C253.422 163.592 257.348 159.059 257.348 154.526C257.348 149.993 254.346 145.993 248.341 142.527C242.798 139.327 235.87 137.86 227.556 138.127C219.473 138.26 207.695 139.994 192.221 143.327L172.129 147.726C119.705 159.326 75.8251 154.926 40.4905 134.527C21.7839 123.728 11.7378 111.395 10.3521 97.5296C8.73552 83.5306 15.4329 70.8647 30.4444 59.5321L1.6917 42.9332L30.4444 26.3343L59.197 42.9332C79.9821 34.1338 106.194 30.4674 137.834 31.9339L139.566 71.3314C126.864 70.9314 117.28 71.2647 110.813 72.3313C104.347 73.3979 98.5732 75.3978 93.4924 78.3309C86.1021 82.5973 82.407 86.997 82.407 91.53C82.407 95.7964 85.2938 99.5962 91.0675 102.929C97.072 106.396 104.693 107.996 113.931 107.729C123.169 107.196 136.564 104.929 154.115 100.929L173.168 96.7297C222.129 86.0637 263.583 90.5301 297.532 110.129C317.394 121.595 328.248 134.127 330.096 147.726C331.943 161.325 324.784 174.391 308.618 186.924L337.37 203.523L308.618 220.122Z" fill="#28EBBE"/>
</g>
</g>
<g clip-path="url(#clip7_42_302)">
<g filter="url(#filter7_d_42_302)">
<path d="M308.618 210.122L280.212 193.723C243.953 210.122 204.577 214.588 162.083 207.122L169.011 167.124C202.268 171.391 227.787 168.391 245.57 158.125C253.422 153.592 257.348 149.059 257.348 144.526C257.348 139.993 254.346 135.993 248.341 132.527C242.798 129.327 235.87 127.86 227.556 128.127C219.473 128.26 207.695 129.994 192.221 133.327L172.129 137.726C119.705 149.326 75.8251 144.926 40.4905 124.527C21.7839 113.728 11.7378 101.395 10.3521 87.5296C8.73552 73.5306 15.4329 60.8647 30.4444 49.5321L1.6917 32.9332L30.4444 16.3343L59.197 32.9332C79.9821 24.1338 106.194 20.4674 137.834 21.9339L139.566 61.3314C126.864 60.9314 117.28 61.2647 110.813 62.3313C104.347 63.3979 98.5732 65.3978 93.4924 68.3309C86.1021 72.5973 82.407 76.997 82.407 81.53C82.407 85.7964 85.2938 89.5962 91.0675 92.9293C97.072 96.3957 104.693 97.9956 113.931 97.729C123.169 97.1957 136.564 94.9292 154.115 90.9294L173.168 86.7297C222.129 76.0637 263.583 80.5301 297.532 100.129C317.394 111.595 328.248 124.127 330.096 137.726C331.943 151.325 324.784 164.391 308.618 176.924L337.37 193.523L308.618 210.122Z" fill="#28EBBE"/>
</g>
</g>
<g clip-path="url(#clip8_42_302)">
<g filter="url(#filter8_d_42_302)">
<path d="M308.618 200.122L280.212 183.723C243.953 200.122 204.577 204.588 162.083 197.122L169.011 157.124C202.268 161.391 227.787 158.391 245.57 148.125C253.422 143.592 257.348 139.059 257.348 134.526C257.348 129.993 254.346 125.993 248.341 122.527C242.798 119.327 235.87 117.86 227.556 118.127C219.473 118.26 207.695 119.994 192.221 123.327L172.129 127.726C119.705 139.326 75.8251 134.926 40.4905 114.527C21.7839 103.728 11.7378 91.3954 10.3521 77.5296C8.73552 63.5306 15.4329 50.8647 30.4444 39.5321L1.6917 22.9332L30.4444 6.33429L59.197 22.9332C79.9821 14.1338 106.194 10.4674 137.834 11.9339L139.566 51.3314C126.864 50.9314 117.28 51.2647 110.813 52.3313C104.347 53.3979 98.5732 55.3978 93.4924 58.3309C86.1021 62.5973 82.407 66.997 82.407 71.53C82.407 75.7964 85.2938 79.5962 91.0675 82.9293C97.072 86.3957 104.693 87.9956 113.931 87.729C123.169 87.1957 136.564 84.9292 154.115 80.9294L173.168 76.7297C222.129 66.0637 263.583 70.5301 297.532 90.1288C317.394 101.595 328.248 114.127 330.096 127.726C331.943 141.325 324.784 154.391 308.618 166.924L337.37 183.523L308.618 200.122Z" fill="#28EBBE"/>
</g>
</g>
<defs>
<filter id="filter0_iii_42_302" x="-78.9775" y="34.1367" width="487.317" height="289.782" filterUnits="userSpaceOnUse" color-interpolation-filters="sRGB">
<feFlood flood-opacity="0" result="BackgroundImageFix"/>
<feBlend mode="normal" in="SourceGraphic" in2="BackgroundImageFix" result="shape"/>
<feColorMatrix in="SourceAlpha" type="matrix" values="0 0 0 0 0 0 0 0 0 0 0 0 0 0 0 0 0 0 127 0" result="hardAlpha"/>
<feOffset dx="10" dy="10"/>
<feGaussianBlur stdDeviation="10"/>
<feComposite in2="hardAlpha" operator="arithmetic" k2="-1" k3="1"/>
<feColorMatrix type="matrix" values="0 0 0 0 0 0 0 0 0 0 0 0 0 0 0 0 0 0 0.36 0"/>
<feBlend mode="normal" in2="shape" result="effect1_innerShadow_42_302"/>
<feColorMatrix in="SourceAlpha" type="matrix" values="0 0 0 0 0 0 0 0 0 0 0 0 0 0 0 0 0 0 127 0" result="hardAlpha"/>
<feOffset dx="-10" dy="-10"/>
<feGaussianBlur stdDeviation="10"/>
<feComposite in2="hardAlpha" operator="arithmetic" k2="-1" k3="1"/>
<feColorMatrix type="matrix" values="0 0 0 0 1 0 0 0 0 1 0 0 0 0 1 0 0 0 1 0"/>
<feBlend mode="normal" in2="effect1_innerShadow_42_302" result="effect2_innerShadow_42_302"/>
<feColorMatrix in="SourceAlpha" type="matrix" values="0 0 0 0 0 0 0 0 0 0 0 0 0 0 0 0 0 0 127 0" result="hardAlpha"/>
<feOffset dy="8"/>
<feGaussianBlur stdDeviation="2"/>
<feComposite in2="hardAlpha" operator="arithmetic" k2="-1" k3="1"/>
<feColorMatrix type="matrix" values="0 0 0 0 0 0 0 0 0 0 0 0 0 0 0 0 0 0 0.25 0"/>
<feBlend mode="normal" in2="effect2_innerShadow_42_302" result="effect3_innerShadow_42_302"/>
</filter>
<filter id="filter1_d_42_302" x="-76.9775" y="33.1367" width="487.317" height="289.782" filterUnits="userSpaceOnUse" color-interpolation-filters="sRGB">
<feFlood flood-opacity="0" result="BackgroundImageFix"/>
<feColorMatrix in="SourceAlpha" type="matrix" values="0 0 0 0 0 0 0 0 0 0 0 0 0 0 0 0 0 0 127 0" result="hardAlpha"/>
<feOffset dx="2" dy="2"/>
<feGaussianBlur stdDeviation="5"/>
<feComposite in2="hardAlpha" operator="out"/>
<feColorMatrix type="matrix" values="0 0 0 0 0 0 0 0 0 0 0 0 0 0 0 0 0 0 0.2 0"/>
<feBlend mode="normal" in2="BackgroundImageFix" result="effect1_dropShadow_42_302"/>
<feBlend mode="normal" in="SourceGraphic" in2="effect1_dropShadow_42_302" result="shape"/>
</filter>
<filter id="filter2_d_42_302" x="-76.9775" y="23.1367" width="487.317" height="289.782" filterUnits="userSpaceOnUse" color-interpolation-filters="sRGB">
<feFlood flood-opacity="0" result="BackgroundImageFix"/>
<feColorMatrix in="SourceAlpha" type="matrix" values="0 0 0 0 0 0 0 0 0 0 0 0 0 0 0 0 0 0 127 0" result="hardAlpha"/>
<feOffset dx="2" dy="2"/>
<feGaussianBlur stdDeviation="5"/>
<feComposite in2="hardAlpha" operator="out"/>
<feColorMatrix type="matrix" values="0 0 0 0 0 0 0 0 0 0 0 0 0 0 0 0 0 0 0.2 0"/>
<feBlend mode="normal" in2="BackgroundImageFix" result="effect1_dropShadow_42_302"/>
<feBlend mode="normal" in="SourceGraphic" in2="effect1_dropShadow_42_302" result="shape"/>
</filter>
<filter id="filter3_d_42_302" x="-76.9775" y="13.1367" width="487.317" height="289.782" filterUnits="userSpaceOnUse" color-interpolation-filters="sRGB">
<feFlood flood-opacity="0" result="BackgroundImageFix"/>
<feColorMatrix in="SourceAlpha" type="matrix" values="0 0 0 0 0 0 0 0 0 0 0 0 0 0 0 0 0 0 127 0" result="hardAlpha"/>
<feOffset dx="2" dy="2"/>
<feGaussianBlur stdDeviation="5"/>
<feComposite in2="hardAlpha" operator="out"/>
<feColorMatrix type="matrix" values="0 0 0 0 0 0 0 0 0 0 0 0 0 0 0 0 0 0 0.2 0"/>
<feBlend mode="normal" in2="BackgroundImageFix" result="effect1_dropShadow_42_302"/>
<feBlend mode="normal" in="SourceGraphic" in2="effect1_dropShadow_42_302" result="shape"/>
</filter>
<filter id="filter4_d_42_302" x="-76.9775" y="3.13672" width="487.317" height="289.782" filterUnits="userSpaceOnUse" color-interpolation-filters="sRGB">
<feFlood flood-opacity="0" result="BackgroundImageFix"/>
<feColorMatrix in="SourceAlpha" type="matrix" values="0 0 0 0 0 0 0 0 0 0 0 0 0 0 0 0 0 0 127 0" result="hardAlpha"/>
<feOffset dx="2" dy="2"/>
<feGaussianBlur stdDeviation="5"/>
<feComposite in2="hardAlpha" operator="out"/>
<feColorMatrix type="matrix" values="0 0 0 0 0 0 0 0 0 0 0 0 0 0 0 0 0 0 0.2 0"/>
<feBlend mode="normal" in2="BackgroundImageFix" result="effect1_dropShadow_42_302"/>
<feBlend mode="normal" in="SourceGraphic" in2="effect1_dropShadow_42_302" result="shape"/>
</filter>
<filter id="filter5_d_42_302" x="-76.9775" y="-6.86328" width="487.317" height="289.782" filterUnits="userSpaceOnUse" color-interpolation-filters="sRGB">
<feFlood flood-opacity="0" result="BackgroundImageFix"/>
<feColorMatrix in="SourceAlpha" type="matrix" values="0 0 0 0 0 0 0 0 0 0 0 0 0 0 0 0 0 0 127 0" result="hardAlpha"/>
<feOffset dx="2" dy="2"/>
<feGaussianBlur stdDeviation="5"/>
<feComposite in2="hardAlpha" operator="out"/>
<feColorMatrix type="matrix" values="0 0 0 0 0 0 0 0 0 0 0 0 0 0 0 0 0 0 0.2 0"/>
<feBlend mode="normal" in2="BackgroundImageFix" result="effect1_dropShadow_42_302"/>
<feBlend mode="normal" in="SourceGraphic" in2="effect1_dropShadow_42_302" result="shape"/>
</filter>
<filter id="filter6_d_42_302" x="-76.9775" y="-16.8633" width="487.317" height="289.782" filterUnits="userSpaceOnUse" color-interpolation-filters="sRGB">
<feFlood flood-opacity="0" result="BackgroundImageFix"/>
<feColorMatrix in="SourceAlpha" type="matrix" values="0 0 0 0 0 0 0 0 0 0 0 0 0 0 0 0 0 0 127 0" result="hardAlpha"/>
<feOffset dx="2" dy="2"/>
<feGaussianBlur stdDeviation="5"/>
<feComposite in2="hardAlpha" operator="out"/>
<feColorMatrix type="matrix" values="0 0 0 0 0 0 0 0 0 0 0 0 0 0 0 0 0 0 0.2 0"/>
<feBlend mode="normal" in2="BackgroundImageFix" result="effect1_dropShadow_42_302"/>
<feBlend mode="normal" in="SourceGraphic" in2="effect1_dropShadow_42_302" result="shape"/>
</filter>
<filter id="filter7_d_42_302" x="-76.9775" y="-26.8633" width="487.317" height="289.782" filterUnits="userSpaceOnUse" color-interpolation-filters="sRGB">
<feFlood flood-opacity="0" result="BackgroundImageFix"/>
<feColorMatrix in="SourceAlpha" type="matrix" values="0 0 0 0 0 0 0 0 0 0 0 0 0 0 0 0 0 0 127 0" result="hardAlpha"/>
<feOffset dx="2" dy="2"/>
<feGaussianBlur stdDeviation="5"/>
<feComposite in2="hardAlpha" operator="out"/>
<feColorMatrix type="matrix" values="0 0 0 0 0 0 0 0 0 0 0 0 0 0 0 0 0 0 0.2 0"/>
<feBlend mode="normal" in2="BackgroundImageFix" result="effect1_dropShadow_42_302"/>
<feBlend mode="normal" in="SourceGraphic" in2="effect1_dropShadow_42_302" result="shape"/>
</filter>
<filter id="filter8_d_42_302" x="-76.9775" y="-36.8633" width="487.317" height="289.782" filterUnits="userSpaceOnUse" color-interpolation-filters="sRGB">
<feFlood flood-opacity="0" result="BackgroundImageFix"/>
<feColorMatrix in="SourceAlpha" type="matrix" values="0 0 0 0 0 0 0 0 0 0 0 0 0 0 0 0 0 0 127 0" result="hardAlpha"/>
<feOffset dx="2" dy="2"/>
<feGaussianBlur stdDeviation="5"/>
<feComposite in2="hardAlpha" operator="out"/>
<feColorMatrix type="matrix" values="0 0 0 0 0 0 0 0 0 0 0 0 0 0 0 0 0 0 0.2 0"/>
<feBlend mode="normal" in2="BackgroundImageFix" result="effect1_dropShadow_42_302"/>
<feBlend mode="normal" in="SourceGraphic" in2="effect1_dropShadow_42_302" result="shape"/>
</filter>
<clipPath id="clip0_42_302">
<rect width="340" height="206" fill="white" transform="translate(0 73)"/>
</clipPath>
<clipPath id="clip1_42_302">
<rect width="340" height="206" fill="white" transform="translate(0 70)"/>
</clipPath>
<clipPath id="clip2_42_302">
<rect width="340" height="206" fill="white" transform="translate(0 60)"/>
</clipPath>
<clipPath id="clip3_42_302">
<rect width="340" height="206" fill="white" transform="translate(0 50)"/>
</clipPath>
<clipPath id="clip4_42_302">
<rect width="340" height="206" fill="white" transform="translate(0 40)"/>
</clipPath>
<clipPath id="clip5_42_302">
<rect width="340" height="206" fill="white" transform="translate(0 30)"/>
</clipPath>
<clipPath id="clip6_42_302">
<rect width="340" height="206" fill="white" transform="translate(0 20)"/>
</clipPath>
<clipPath id="clip7_42_302">
<rect width="340" height="206" fill="white" transform="translate(0 10)"/>
</clipPath>
<clipPath id="clip8_42_302">
<rect width="340" height="206" fill="white"/>
</clipPath>
</defs>
</svg>
