<svg width="207" height="73" viewBox="0 0 207 73" fill="none" xmlns="http://www.w3.org/2000/svg">
<path d="M4.35355 72.4659C4.15829 72.6611 3.84171 72.6611 3.64645 72.4659L0.464462 69.2839C0.269203 69.0886 0.269203 68.7721 0.464462 68.5768C0.659729 68.3815 0.976311 68.3815 1.17157 68.5768L4 71.4052L6.82843 68.5768C7.02369 68.3815 7.34027 68.3815 7.53554 68.5768C7.7308 68.7721 7.7308 69.0886 7.53554 69.2839L4.35355 72.4659ZM121.658 16.5867C121.448 16.6566 121.141 16.6911 120.798 16.7124C120.438 16.7348 119.982 16.745 119.441 16.7469C118.358 16.7505 116.906 16.7206 115.148 16.6806C111.626 16.6005 106.85 16.4795 101.244 16.503C90.0316 16.5498 75.5184 17.1742 61.1542 19.8539C46.7829 22.5348 32.6071 27.2649 22.0336 35.4913C11.4825 43.7003 4.5 55.4024 4.5 72.1123H3.5C3.5 55.0723 10.6425 43.0869 21.4195 34.7021C32.1742 26.3347 46.5296 21.5648 60.9708 18.8708C75.4191 16.1755 89.9997 15.5499 101.24 15.503C106.861 15.4795 111.651 15.6008 115.171 15.6808C116.932 15.7209 118.37 15.7505 119.437 15.7469C119.971 15.745 120.405 15.7349 120.736 15.7143C121.084 15.6927 121.27 15.6618 121.342 15.638L121.658 16.5867Z" fill="black"/>
<path d="M128.05 21V11.06H129.254V14.798C129.749 14.1913 130.472 13.888 131.424 13.888C132.217 13.888 132.866 14.1493 133.37 14.672C133.874 15.1853 134.126 15.8713 134.126 16.73V21H132.922V16.8C132.922 16.2773 132.763 15.8527 132.446 15.526C132.129 15.19 131.699 15.022 131.158 15.022C130.169 15.022 129.534 15.5073 129.254 16.478V21H128.05ZM139.308 21.112C138.262 21.112 137.394 20.7667 136.704 20.076C136.013 19.376 135.668 18.5173 135.668 17.5C135.668 16.4827 136.013 15.6287 136.704 14.938C137.394 14.238 138.262 13.888 139.308 13.888C140.344 13.888 141.207 14.238 141.898 14.938C142.588 15.6287 142.934 16.4827 142.934 17.5C142.934 18.5173 142.588 19.376 141.898 20.076C141.207 20.7667 140.344 21.112 139.308 21.112ZM137.586 19.278C138.034 19.7447 138.608 19.978 139.308 19.978C140.008 19.978 140.577 19.7447 141.016 19.278C141.464 18.802 141.688 18.2093 141.688 17.5C141.688 16.7907 141.464 16.2027 141.016 15.736C140.577 15.26 140.008 15.022 139.308 15.022C138.608 15.022 138.034 15.26 137.586 15.736C137.138 16.2027 136.914 16.7907 136.914 17.5C136.914 18.2093 137.138 18.802 137.586 19.278ZM146.978 21.112L143.282 14H144.64L146.978 18.732L149.33 14H150.688L146.978 21.112ZM154.606 21.112C153.579 21.112 152.72 20.7667 152.03 20.076C151.348 19.376 151.008 18.5173 151.008 17.5C151.008 16.4827 151.348 15.6287 152.03 14.938C152.711 14.238 153.542 13.888 154.522 13.888C155.558 13.888 156.384 14.252 157 14.98C157.625 15.6987 157.938 16.6367 157.938 17.794H152.254C152.31 18.4473 152.562 18.9747 153.01 19.376C153.467 19.7773 153.999 19.978 154.606 19.978C155.408 19.978 156.09 19.698 156.65 19.138L157.42 19.978C156.701 20.734 155.763 21.112 154.606 21.112ZM154.452 14.994C153.976 14.994 153.532 15.1433 153.122 15.442C152.711 15.7313 152.445 16.1653 152.324 16.744H156.58C156.496 16.184 156.258 15.75 155.866 15.442C155.474 15.134 155.002 14.9847 154.452 14.994ZM159.454 21V14H160.658V14.826C161.144 14.2287 161.788 13.93 162.59 13.93C162.768 13.93 162.931 13.944 163.08 13.972V15.218C162.884 15.162 162.66 15.134 162.408 15.134C161.568 15.134 160.985 15.5027 160.658 16.24V21H159.454ZM167.493 21V11.06H168.697V14.798C169.192 14.1913 169.915 13.888 170.867 13.888C171.661 13.888 172.309 14.1493 172.813 14.672C173.317 15.1853 173.569 15.8713 173.569 16.73V21H172.365V16.8C172.365 16.2773 172.207 15.8527 171.889 15.526C171.572 15.19 171.143 15.022 170.601 15.022C169.612 15.022 168.977 15.5073 168.697 16.478V21H167.493ZM178.709 21.112C177.682 21.112 176.824 20.7667 176.133 20.076C175.452 19.376 175.111 18.5173 175.111 17.5C175.111 16.4827 175.452 15.6287 176.133 14.938C176.814 14.238 177.645 13.888 178.625 13.888C179.661 13.888 180.487 14.252 181.103 14.98C181.728 15.6987 182.041 16.6367 182.041 17.794H176.357C176.413 18.4473 176.665 18.9747 177.113 19.376C177.57 19.7773 178.102 19.978 178.709 19.978C179.512 19.978 180.193 19.698 180.753 19.138L181.523 19.978C180.804 20.734 179.866 21.112 178.709 21.112ZM178.555 14.994C178.079 14.994 177.636 15.1433 177.225 15.442C176.814 15.7313 176.548 16.1653 176.427 16.744H180.683C180.599 16.184 180.361 15.75 179.969 15.442C179.577 15.134 179.106 14.9847 178.555 14.994ZM183.558 21V14H184.762V14.826C185.247 14.2287 185.891 13.93 186.694 13.93C186.871 13.93 187.034 13.944 187.184 13.972V15.218C186.988 15.162 186.764 15.134 186.512 15.134C185.672 15.134 185.088 15.5027 184.762 16.24V21H183.558ZM191.369 21.112C190.343 21.112 189.484 20.7667 188.793 20.076C188.112 19.376 187.771 18.5173 187.771 17.5C187.771 16.4827 188.112 15.6287 188.793 14.938C189.475 14.238 190.305 13.888 191.285 13.888C192.321 13.888 193.147 14.252 193.763 14.98C194.389 15.6987 194.701 16.6367 194.701 17.794H189.017C189.073 18.4473 189.325 18.9747 189.773 19.376C190.231 19.7773 190.763 19.978 191.369 19.978C192.172 19.978 192.853 19.698 193.413 19.138L194.183 19.978C193.465 20.734 192.527 21.112 191.369 21.112ZM191.215 14.994C190.739 14.994 190.296 15.1433 189.885 15.442C189.475 15.7313 189.209 16.1653 189.087 16.744H193.343C193.259 16.184 193.021 15.75 192.629 15.442C192.237 15.134 191.766 14.9847 191.215 14.994Z" fill="black"/>
<path d="M122.5 6.5L120 3M125.5 5.5L123.5 1M200 14L202.5 10M202.5 16L206 14" stroke="black"/>
</svg>
