<svg width="50" height="50" viewBox="0 0 50 50" fill="none" xmlns="http://www.w3.org/2000/svg">
<path d="M19.75 12.5H30.25C34.25 12.5 37.5 15.75 37.5 19.75V30.25C37.5 32.1728 36.7362 34.0169 35.3765 35.3765C34.0169 36.7362 32.1728 37.5 30.25 37.5H19.75C15.75 37.5 12.5 34.25 12.5 30.25V19.75C12.5 17.8272 13.2638 15.9831 14.6235 14.6235C15.9831 13.2638 17.8272 12.5 19.75 12.5ZM19.5 15C18.3065 15 17.1619 15.4741 16.318 16.318C15.4741 17.1619 15 18.3065 15 19.5V30.5C15 32.9875 17.0125 35 19.5 35H30.5C31.6935 35 32.8381 34.5259 33.682 33.682C34.5259 32.8381 35 31.6935 35 30.5V19.5C35 17.0125 32.9875 15 30.5 15H19.5ZM31.5625 16.875C31.9769 16.875 32.3743 17.0396 32.6674 17.3326C32.9604 17.6257 33.125 18.0231 33.125 18.4375C33.125 18.8519 32.9604 19.2493 32.6674 19.5424C32.3743 19.8354 31.9769 20 31.5625 20C31.1481 20 30.7507 19.8354 30.4576 19.5424C30.1646 19.2493 30 18.8519 30 18.4375C30 18.0231 30.1646 17.6257 30.4576 17.3326C30.7507 17.0396 31.1481 16.875 31.5625 16.875ZM25 18.75C26.6576 18.75 28.2473 19.4085 29.4194 20.5806C30.5915 21.7527 31.25 23.3424 31.25 25C31.25 26.6576 30.5915 28.2473 29.4194 29.4194C28.2473 30.5915 26.6576 31.25 25 31.25C23.3424 31.25 21.7527 30.5915 20.5806 29.4194C19.4085 28.2473 18.75 26.6576 18.75 25C18.75 23.3424 19.4085 21.7527 20.5806 20.5806C21.7527 19.4085 23.3424 18.75 25 18.75ZM25 21.25C24.0054 21.25 23.0516 21.6451 22.3483 22.3483C21.6451 23.0516 21.25 24.0054 21.25 25C21.25 25.9946 21.6451 26.9484 22.3483 27.6517C23.0516 28.3549 24.0054 28.75 25 28.75C25.9946 28.75 26.9484 28.3549 27.6517 27.6517C28.3549 26.9484 28.75 25.9946 28.75 25C28.75 24.0054 28.3549 23.0516 27.6517 22.3483C26.9484 21.6451 25.9946 21.25 25 21.25Z" fill="white"/>
<g clip-path="url(#clip0_142_87908)">
<path d="M31.6406 12.5H18.3594C15.1233 12.5 12.5 15.1233 12.5 18.3594V31.6406C12.5 34.8767 15.1233 37.5 18.3594 37.5H31.6406C34.8767 37.5 37.5 34.8767 37.5 31.6406V18.3594C37.5 15.1233 34.8767 12.5 31.6406 12.5Z" fill="url(#paint0_radial_142_87908)"/>
<path d="M31.6406 12.5H18.3594C15.1233 12.5 12.5 15.1233 12.5 18.3594V31.6406C12.5 34.8767 15.1233 37.5 18.3594 37.5H31.6406C34.8767 37.5 37.5 34.8767 37.5 31.6406V18.3594C37.5 15.1233 34.8767 12.5 31.6406 12.5Z" fill="url(#paint1_radial_142_87908)"/>
<path d="M25.0009 15.2344C22.3487 15.2344 22.0158 15.246 20.9742 15.2934C19.9346 15.341 19.2249 15.5056 18.604 15.7471C17.9616 15.9965 17.4168 16.3302 16.874 16.8731C16.3308 17.416 15.9971 17.9608 15.7469 18.6029C15.5047 19.224 15.3399 19.934 15.2932 20.9731C15.2466 22.0148 15.2344 22.3479 15.2344 25.0001C15.2344 27.6523 15.2461 27.9842 15.2934 29.0258C15.3412 30.0654 15.5058 30.7751 15.7471 31.396C15.9967 32.0384 16.3304 32.5832 16.8733 33.126C17.416 33.6692 17.9608 34.0037 18.6027 34.2531C19.2241 34.4946 19.9339 34.6592 20.9733 34.7068C22.015 34.7542 22.3477 34.7658 24.9997 34.7658C27.6521 34.7658 27.984 34.7542 29.0256 34.7068C30.0652 34.6592 30.7757 34.4946 31.3971 34.2531C32.0392 34.0037 32.5832 33.6692 33.1258 33.126C33.669 32.5832 34.0026 32.0384 34.2529 31.3963C34.493 30.7751 34.6578 30.0652 34.7066 29.026C34.7534 27.9844 34.7656 27.6523 34.7656 25.0001C34.7656 22.3479 34.7534 22.015 34.7066 20.9733C34.6578 19.9337 34.493 19.2241 34.2529 18.6032C34.0026 17.9608 33.669 17.416 33.1258 16.8731C32.5826 16.33 32.0394 15.9963 31.3965 15.7472C30.7739 15.5056 30.0639 15.3409 29.0242 15.2934C27.9825 15.246 27.6509 15.2344 24.9979 15.2344H25.0009ZM24.1248 16.9942C24.3849 16.9938 24.675 16.9942 25.0009 16.9942C27.6084 16.9942 27.9174 17.0036 28.9471 17.0504C29.8992 17.0939 30.416 17.253 30.7603 17.3867C31.216 17.5637 31.5409 17.7753 31.8825 18.1172C32.2243 18.459 32.4358 18.7845 32.6133 19.2402C32.747 19.584 32.9062 20.1008 32.9496 21.0529C32.9964 22.0824 33.0065 22.3916 33.0065 24.9979C33.0065 27.6041 32.9964 27.9134 32.9496 28.9428C32.9061 29.8949 32.747 30.4117 32.6133 30.7556C32.4363 31.2113 32.2243 31.5358 31.8825 31.8774C31.5407 32.2192 31.2162 32.4308 30.7603 32.6078C30.4164 32.7421 29.8992 32.9008 28.9471 32.9443C27.9176 32.9911 27.6084 33.0013 25.0009 33.0013C22.3933 33.0013 22.0842 32.9911 21.0548 32.9443C20.1026 32.9004 19.5858 32.7413 19.2413 32.6076C18.7856 32.4306 18.4601 32.219 18.1183 31.8772C17.7765 31.5354 17.5649 31.2107 17.3875 30.7548C17.2538 30.4109 17.0945 29.8941 17.0512 28.942C17.0044 27.9125 16.995 27.6033 16.995 24.9954C16.995 22.3876 17.0044 22.08 17.0512 21.0505C17.0947 20.0983 17.2538 19.5815 17.3875 19.2373C17.5646 18.7815 17.7765 18.4561 18.1184 18.1143C18.4602 17.7725 18.7856 17.5608 19.2414 17.3835C19.5856 17.2492 20.1026 17.0905 21.0548 17.0468C21.9557 17.0061 22.3048 16.9938 24.1248 16.9918V16.9942ZM30.2138 18.6157C29.5668 18.6157 29.0419 19.1401 29.0419 19.7872C29.0419 20.4342 29.5668 20.9591 30.2138 20.9591C30.8607 20.9591 31.3856 20.4342 31.3856 19.7872C31.3856 19.1402 30.8607 18.6157 30.2138 18.6157ZM25.0009 19.985C22.2313 19.985 19.9858 22.2305 19.9858 25.0001C19.9858 27.7697 22.2313 30.0142 25.0009 30.0142C27.7705 30.0142 30.0152 27.7697 30.0152 25.0001C30.0152 22.2306 27.7705 19.985 25.0009 19.985ZM25.0009 21.7448C26.7986 21.7448 28.2562 23.2021 28.2562 25.0001C28.2562 26.7979 26.7986 28.2554 25.0009 28.2554C23.203 28.2554 21.7457 26.7979 21.7457 25.0001C21.7457 23.2021 23.203 21.7448 25.0009 21.7448Z" fill="white"/>
</g>
<circle cx="25" cy="25" r="24.5" stroke="#303030"/>
<path d="M13.288 35V16.54H16.304V35H13.288ZM36.5058 35.208L23.8958 23.144V35H20.8798V16.332L33.4898 28.396V16.54H36.5058V35.208Z" fill="white" fill-opacity="0.01"/>
<path d="M11 43.06H38.7938V45.348H11V43.06Z" fill="white" fill-opacity="0.01"/>
<a href="https://www.instagram.com/deni_drifter_/">
<rect fill="black" fill-opacity="0" y="0.0160007" width="27.7938" height="32.968"/>
</a>
<defs>
<radialGradient id="paint0_radial_142_87908" cx="0" cy="0" r="1" gradientUnits="userSpaceOnUse" gradientTransform="translate(19.1406 39.4255) rotate(-90) scale(24.7769 23.0444)">
<stop stop-color="#FFDD55"/>
<stop offset="0.1" stop-color="#FFDD55"/>
<stop offset="0.5" stop-color="#FF543E"/>
<stop offset="1" stop-color="#C837AB"/>
</radialGradient>
<radialGradient id="paint1_radial_142_87908" cx="0" cy="0" r="1" gradientUnits="userSpaceOnUse" gradientTransform="translate(8.3124 14.3009) rotate(78.681) scale(11.0754 45.6531)">
<stop stop-color="#3771C8"/>
<stop offset="0.128" stop-color="#3771C8"/>
<stop offset="1" stop-color="#6600FF" stop-opacity="0"/>
</radialGradient>
<clipPath id="clip0_142_87908">
<rect width="25" height="25" fill="white" transform="translate(12.5 12.5)"/>
</clipPath>
</defs>
</svg>
